<svg xmlns="http://www.w3.org/2000/svg" width="247" height="26" viewBox="0 0 247 26">
  <g fill="#FFF">
    <path d="M32.5490566 10.0566038L45.4509434 10.0566038C44.3226415 7.60377358 41.8698113 5.91132075 39 5.91132075 36.1301887 5.91132075 33.6773585 7.60377358 32.5490566 10.0566038M39 26C31.8377358 26 26 20.1622642 26 13 26 5.83773585 31.8377358 0 39 0 46.1622642 0 52 5.83773585 52 13 52 14.6188679 50.6754717 15.9433962 49.0566038 15.9433962L32.5490566 15.9433962C33.6773585 18.3962264 36.1301887 20.0886792 39 20.0886792 40.6188679 20.0886792 41.9433962 21.4132075 41.9433962 23.0320755 41.9433962 24.6754717 40.6188679 26 39 26M78.0075472 26C76.3886792 26 75.0641509 24.6666667 75.0641509 23.037037L75.0641509 13.0864198C75.0641509 9.16049383 71.8754717 5.95061728 67.9754717 5.95061728 64.0754717 5.95061728 60.8867925 9.16049383 60.8867925 13.0864198L60.8867925 23.037037C60.8867925 24.6666667 59.5622642 26 57.9433962 26 56.3245283 26 55 24.6666667 55 23.037037L55 13.0864198C55 5.87654321 60.8377358 0 68 0 75.1622642 0 81 5.87654321 81 13.0864198L81 23.037037C80.9509434 24.6666667 79.6264151 26 78.0075472 26M120.02442 26C112.848702 26 107 20.1234568 107 12.9135802L107 2.96296296C107 1.33333333 108.327016 0 109.948925 0 111.595409 0 112.897851 1.33333333 112.897851 2.96296296L112.897851 12.9135802C112.897851 16.8395062 116.09252 20.0493827 119.999846 20.0493827 123.907172 20.0493827 127.101841 16.8395062 127.101841 12.9135802L127.101841 2.96296296C127.101841 1.33333333 128.428857 0 130.050766 0 131.672675 0 132.999691 1.33333333 132.999691 2.96296296L132.999691 12.9135802C133.04884 20.1234568 127.224713 26 120.02442 26M95.7745803 10.5816808C91.6978417 9.69782814 90.0671463 9.32955619 90.0671463 7.80736544 90.0671463 6.28517469 92.1534772 5.45042493 94.4556355 5.45042493 95.6786571 5.45042493 96.8297362 5.74504249 97.7889688 6.13786591 98.1726619 6.28517469 98.5563549 6.40793201 98.9880096 6.40793201 100.47482 6.40793201 101.673861 5.18035883 101.673861 3.65816808 101.673861 2.40604344 100.882494 1.32577904 99.7793765.982058546 98.3405276.441926346 96.5179856 0 94.4556355 0 87.8369305 0 84.0479616 3.85457979 84.0479616 7.73371105 84.0479616 12.4230406 88.2206235 14.509915 93.0167866 15.565628 96.6858513 16.3512748 97.8129496 16.6704438 97.8129496 18.2908404 97.8129496 19.8130312 95.7266187 20.5250236 93.2326139 20.5250236 90.9784173 20.5250236 89.2997602 19.592068 87.8129496 18.8064212 87.7889688 18.8064212 87.8129496 18.8064212 87.8129496 18.8064212 87.501199 18.6836638 87.0935252 18.5609065 86.7338129 18.5609065 85.2230216 18.5609065 84 19.8130312 84 21.3597734 84 22.4645892 84.6235012 23.4220963 85.5347722 23.8640227 87.381295 24.9442871 90.0191847 26 93.4484412 26 99.6115108 26 104 22.611898 104 18.3644948 103.976019 13.2577904 100.570743 11.6373938 95.7745803 10.5816808M148.798561 10.5816808C144.721823 9.69782814 143.091127 9.32955619 143.091127 7.80736544 143.091127 6.28517469 145.177458 5.45042493 147.479616 5.45042493 148.702638 5.45042493 149.853717 5.74504249 150.81295 6.13786591 151.196643 6.28517469 151.580336 6.40793201 152.01199 6.40793201 153.498801 6.40793201 154.697842 5.18035883 154.697842 3.65816808 154.697842 2.40604344 153.906475 1.37488196 152.803357.982058546 151.364508.441926346 149.541966 0 147.479616 0 140.860911 0 137.071942 3.85457979 137.071942 7.73371105 137.071942 12.4230406 141.244604 14.509915 146.040767 15.565628 149.709832 16.3512748 150.83693 16.6704438 150.83693 18.2908404 150.83693 19.8130312 148.7506 20.5250236 146.256595 20.5250236 144.002398 20.5250236 142.275779 19.5675165 140.764988 18.7818697 140.741007 18.7573182 140.764988 18.7818697 140.764988 18.7818697 140.453237 18.6591124 140.093525 18.5609065 139.733813 18.5609065 138.223022 18.5609065 137 19.8130312 137 21.3597734 137 22.4645892 137.647482 23.3975449 138.534772 23.8640227 140.381295 24.9442871 143.019185 26 146.448441 26 152.611511 26 157 22.611898 157 18.3644948 157 13.2577904 153.594724 11.6373938 148.798561 10.5816808M12.8408537 26C5.76627015 26 0 20.1622642 0 13 0 5.83773585 5.76627015 0 12.8408537 0 16.3781455 0 19.7942971 1.52075472 22.2170997 4.14528302 23.3073609 5.34716981 23.2589048 7.21132075 22.0717315 8.31509434 20.8845583 9.41886792 19.0432283 9.36981132 17.9529671 8.16792453 16.6204257 6.69622642 14.7790958 5.91132075 12.8408537 5.91132075 8.98859759 5.91132075 5.83895423 9.1 5.83895423 13 5.83895423 16.9 8.98859759 20.0886792 12.8408537 20.0886792 14.8033238 20.0886792 16.6204257 19.2792453 17.9529671 17.8075472 19.0432283 16.6056604 20.8845583 16.5566038 22.0717315 17.6603774 23.2589048 18.7641509 23.3073609 20.6283019 22.2170997 21.8301887 19.7942971 24.4792453 16.3781455 26 12.8408537 26"/>
    <path d="M164,23.3307985 L164,22.3669202 C164,17.2262357 167.966459,14.9524715 171.71119,13.0988593 C174.98783,11.4676806 177.919561,10.2319392 177.919561,7.53802281 C177.919561,4.94296578 176.022559,3.41064639 172.844464,3.41064639 C169.198278,3.41064639 167.449095,5.65969582 166.759276,8.20532319 C166.759276,8.32889734 164.147818,8.35361217 164.147818,6.27756654 C164.147818,4.96768061 164.911546,3.41064639 166.414366,2.17490494 C167.917186,0.939163498 170.183734,1.42108547e-14 173.115465,1.42108547e-14 C178.53547,1.42108547e-14 181.81211,2.81749049 181.81211,7.46387833 C181.81211,11.9372624 178.26447,13.71673 174.495102,15.4467681 C171.218462,16.904943 168.533096,18.3136882 167.867913,20.9581749 C167.794004,21.3041825 167.720095,21.6996198 167.720095,22.0703422 L180.358563,22.0703422 C181.664292,22.0703422 182.255565,22.6140684 182.255565,23.6273764 L182.255565,23.8498099 C182.255565,24.8878327 181.688928,25.4809886 180.358563,25.4809886 L166.463639,25.4809886 C164.714455,25.4809886 164,24.9125475 164,23.3307985 Z M184.965568,14.2851711 L184.965568,11.7395437 C184.965568,4.52281369 188.932027,0 195.312852,0 C201.792223,0 205.709409,4.47338403 205.709409,11.6901141 L205.709409,14.2110266 C205.709409,21.4277567 201.74295,26 195.312852,26 C188.858118,26 184.965568,21.5019011 184.965568,14.2851711 Z M201.767587,14.4087452 L201.767587,11.6159696 C201.767587,6.35171103 199.377857,3.26235741 195.337489,3.26235741 C191.297121,3.26235741 188.9813,6.27756654 188.9813,11.5171103 L188.9813,14.3346008 C188.9813,19.5988593 191.321757,22.5893536 195.337489,22.5893536 C199.451766,22.6387833 201.767587,19.648289 201.767587,14.4087452 Z M209.035322,23.3307985 L209.035322,22.3669202 C209.035322,17.2262357 213.001781,14.9524715 216.746512,13.0988593 C220.023152,11.4676806 222.954883,10.2319392 222.954883,7.53802281 C222.954883,4.94296578 221.057881,3.41064639 217.879786,3.41064639 C214.2336,3.41064639 212.484417,5.65969582 211.794598,8.20532319 C211.794598,8.32889734 209.18314,8.35361217 209.18314,6.27756654 C209.18314,4.96768061 209.946869,3.41064639 211.449688,2.17490494 C212.952508,0.939163498 215.219056,1.42108547e-14 218.150787,1.42108547e-14 C223.570793,1.42108547e-14 226.847432,2.81749049 226.847432,7.46387833 C226.847432,11.9372624 223.299792,13.71673 219.530424,15.4467681 C216.253785,16.904943 213.568418,18.3136882 212.903235,20.9581749 C212.829326,21.3041825 212.755417,21.6996198 212.755417,22.0703422 L225.393885,22.0703422 C226.699614,22.0703422 227.290888,22.6140684 227.290888,23.6273764 L227.290888,23.8498099 C227.290888,24.8878327 226.724251,25.4809886 225.393885,25.4809886 L211.523598,25.4809886 C209.749777,25.4809886 209.035322,24.9125475 209.035322,23.3307985 Z M232.316711,23.9486692 L232.316711,23.7509506 C232.316711,22.6387833 232.932621,22.1197719 234.115168,22.1197719 L238.278718,22.1197719 L238.278718,4.32509506 C236.775898,5.51140684 236.159988,6.22813688 235.420896,6.79657795 C234.657168,7.41444867 234.041259,7.63688213 233.376076,7.63688213 C232.070347,7.63688213 231.331256,6.52471483 231.331256,5.2148289 L238.771446,0.321292776 L240.126447,0.321292776 C241.235085,0.321292776 241.900267,0.939163498 241.900267,2.12547529 L241.850994,22.1197719 L245.201543,22.1197719 C246.38409,22.1197719 247,22.6140684 247,23.7509506 L247,23.9486692 C247,25.0361217 246.38409,25.5057034 245.201543,25.5057034 L234.115168,25.5057034 C232.932621,25.4809886 232.316711,25.0361217 232.316711,23.9486692 Z" opacity=".7"/>
  </g>
</svg>
