<svg xmlns="http://www.w3.org/2000/svg" width="172" height="121" viewBox="0 0 172 121">
  <g fill="#FFF">
    <path d="M2,118.305906 L2,117.342035 C2,112.20139 5.91867023,109.927643 9.61828436,108.074045 C12.8554467,106.442878 15.7518551,105.207146 15.7518551,102.513251 C15.7518551,99.9182134 13.8777085,98.3859057 10.7379044,98.3859057 C7.13564856,98.3859057 5.40753933,100.634938 4.72603146,103.180546 C4.72603146,103.304119 2.1460374,103.328834 2.1460374,101.252804 C2.1460374,99.942928 2.90056397,98.3859057 4.38527753,97.1501737 C5.8699911,95.9144417 8.10923123,95 11.0056397,95 C16.3603443,95 19.5975067,97.817469 19.5975067,102.463821 C19.5975067,106.937171 16.0926091,108.716625 12.3686554,110.44665 C9.13149302,111.904814 6.47848026,113.313548 5.82131196,115.958015 C5.74829326,116.30402 5.67527456,116.699454 5.67527456,117.070174 L18.1614722,117.070174 C19.4514693,117.070174 20.0356189,117.613896 20.0356189,118.627196 L20.0356189,118.849628 C20.0356189,119.887643 19.4758088,120.480794 18.1614722,120.480794 L4.45829623,120.480794 C2.730187,120.480794 2,119.887643 2,118.305906 Z M22.7371959,109.285062 L22.7371959,106.739454 C22.7371959,99.5227791 26.655981,95 32.9599288,95 C39.3612348,95 43.2312259,99.4733499 43.2312259,106.714739 L43.2312259,109.235633 C43.2312259,116.452308 39.3125557,121.024516 32.9599288,120.999901 C26.5586227,120.975087 22.7129712,116.501737 22.7371959,109.285062 Z M39.3125557,109.408635 L39.3125557,106.615881 C39.3125557,101.351663 36.9516177,98.2623325 32.9599288,98.2623325 C28.9682398,98.2623325 26.6803206,101.277519 26.6803206,106.517022 L26.6803206,109.334491 C26.6803206,114.59871 28.9925794,117.589181 32.9599288,117.589181 C37.0246364,117.63861 39.3125557,114.648139 39.3125557,109.408635 Z M46.4927278,118.33062 L46.4927278,117.366749 C46.4927278,112.226104 50.411398,109.952357 54.1110122,108.098759 C57.3481745,106.467593 60.244583,105.231861 60.244583,102.537965 C60.244583,99.942928 58.3704363,98.4106203 55.2306322,98.4106203 C51.6283764,98.4106203 49.9002671,100.659653 49.2187593,103.205261 C49.2187593,103.328834 46.6387652,103.353548 46.6387652,101.277519 C46.6387652,99.9676427 47.3932918,98.4106203 48.8780053,97.1748883 C50.3627189,95.9391563 52.601959,95.0247146 55.4983675,95.0247146 C60.8530721,95.0247146 64.0902345,97.8421836 64.0902345,102.488536 C64.0902345,106.961886 60.5853369,108.74134 56.8613832,110.471365 C53.6242208,111.929528 50.9712081,113.338263 50.3140398,115.982729 C50.2410211,116.328734 50.1680024,116.724169 50.1680024,117.094888 L62.6542001,117.094888 C63.9441971,117.094888 64.5283467,117.63861 64.5283467,118.651911 L64.5283467,118.874342 C64.5283467,119.912357 63.9685367,120.505509 62.6542001,120.505509 L48.951024,120.505509 C47.2229148,120.480794 46.4927278,119.912357 46.4927278,118.33062 Z M69.4936183,118.948486 L69.4936183,118.750769 C69.4936183,117.63861 70.1021075,117.119603 71.2704066,117.119603 L75.3837934,117.119603 L75.3837934,99.325062 C73.8990798,100.511365 73.2905907,101.228089 72.5604037,101.796526 C71.8058771,102.414392 71.1973879,102.636824 70.5402196,102.636824 C69.2502226,102.636824 68.5200356,101.524665 68.5200356,100.214789 L75.8705847,95.3212903 L77.2092609,95.3212903 C78.3045414,95.3212903 78.9617097,95.9391563 78.9617097,97.1254591 L78.9130306,117.119603 L82.2232116,117.119603 C83.3915108,117.119603 84,117.613896 84,118.750769 L84,118.948486 C84,120.03593 83.3915108,120.480794 82.2232116,120.480794 L71.2704066,120.480794 C70.1021075,120.505509 69.4936183,120.03593 69.4936183,118.948486 Z" opacity=".7"/>
    <path d="M154.532768 24.2867094C154.532768 20.4085921 157.69096 17.2576218 161.577966 17.2576218 163.181356 17.2576218 164.711864 17.790863 165.950847 18.7846305L165.950847 21.1599773 165.950847 29.76455C164.711864 30.7583176 163.20565 31.2916976 161.577966 31.2916976 157.69096 31.3157969 154.532768 28.1648266 154.532768 24.2867094M168.890395.436288192C167.262712.436288192 165.950847 1.74515277 165.950847 3.36911437L165.950847 12.1918312C164.566102 11.6828283 163.084181 11.4162077 161.577966 11.4162077 154.459887 11.4162077 148.677966 17.1849071 148.677966 24.2867094 148.677966 31.3885116 154.459887 37.157211 161.577966 37.157211 165.124859 37.157211 168.574576 35.6544406 171.003955 33.0367115 171.489831 32.5034703 171.757062 31.849038 171.781356 31.1703675 171.781356 31.0976528 171.781356 31.0249381 171.781356 30.9522234L171.781356 21.1599773 171.781356 16.2153778 171.781356 3.34487614C171.829944 1.74515277 170.493785.436288192 168.890395.436288192M13.0943503 17.1364307C15.0621469 17.1364307 16.8841808 17.9362924 18.2446328 19.3905863 19.3378531 20.5782597 21.2084746 20.6267362 22.3745763 19.5360157 23.5649718 18.4452952 23.6135593 16.5789513 22.520339 15.4155161 20.0909605 12.797787 16.6412429 11.3192548 13.0943503 11.3192548 5.97627119 11.3192548.194350282 17.0879542.194350282 24.1897564.194350282 31.2915587 5.97627119 37.0602581 13.0943503 37.0602581 16.6412429 37.0602581 20.0909605 35.5574877 22.520339 32.9397585 23.6135593 31.7520851 23.5649718 29.9099794 22.3745763 28.8192548 21.1841808 27.7285384 19.3378531 27.7770149 18.2446328 28.9646883 16.8841808 30.4189823 15.0621469 31.218844 13.0943503 31.218844 9.20734463 31.218844 6.04915254 28.0678737 6.04915254 24.1897564 6.04915254 20.2874009 9.20734463 17.1364307 13.0943503 17.1364307M87.5062147 11.343493C85.8785311 11.343493 84.5666667 12.6523576 84.5666667 14.2763192L84.5666667 19.3178716 84.5666667 24.2624711 84.5666667 34.0547172C84.5666667 35.6786788 85.8785311 36.9875434 87.5062147 36.9875434 89.1338983 36.9875434 90.4457627 35.6786788 90.4457627 34.0547172L90.4457627 24.2624711 90.4457627 19.3178716 90.4457627 14.2763192C90.4457627 12.6523576 89.1338983 11.343493 87.5062147 11.343493M62.8966102 13.524934L62.1677966 13.524934 60.7344633 13.524934 60.7344633 12.700834C60.7344633 9.52562553 62.8480226 6.85941991 65.7389831 5.98684353L65.8118644 5.9626053C67.3666667 5.50207887 68.2412429 3.87811727 67.779661 2.32687036 67.3180791.775623453 65.6903955-.0969529316 64.159887.363573494 58.8152542 1.93905863 54.9039548 6.88365815 54.879661 12.700834L54.879661 33.9335261C54.879661 35.5574877 56.1915254 36.8663523 57.819209 36.8663523 59.4468927 36.8663523 60.7587571 35.5574877 60.7587571 33.9335261L60.7587571 19.3905863 62.1920904 19.3905863 62.920904 19.3905863C64.5485876 19.3905863 65.860452 18.0817217 65.860452 16.4577601 65.8361582 14.8337985 64.5242938 13.524934 62.8966102 13.524934M126.959322 24.14128C126.959322 20.2631627 130.117514 17.1121924 134.00452 17.1121924 135.850847 17.1121924 137.575706 17.8151012 138.887571 19.0997275L138.887571 19.3178716 138.887571 24.2624711 138.887571 29.1585942C137.551412 30.4432205 135.850847 31.1462682 134.00452 31.1462682 130.117514 31.1703675 126.959322 28.0193972 126.959322 24.14128M141.827119 11.3677312C140.879661 11.3677312 140.029379 11.8040194 139.494915 12.5069282 137.79435 11.7070665 135.923729 11.2707783 134.00452 11.2707783 126.886441 11.2707783 121.10452 17.0394777 121.10452 24.14128 121.10452 31.2430822 126.886441 37.0117816 134.00452 37.0117816 135.899435 37.0117816 137.770056 36.5754935 139.470621 35.79987 140.005085 36.527017 140.855367 36.9875434 141.827119 36.9875434 143.454802 36.9875434 144.766667 35.6786788 144.766667 34.0547172L144.766667 24.2624711 144.766667 19.3178716 144.766667 14.2763192C144.766667 12.6765958 143.454802 11.3677312 141.827119 11.3677312M87.5548023 2.20567919C85.9271186 2.20567919 84.6152542 3.51454377 84.6152542 5.13850538 84.6152542 6.76246698 85.9271186 8.07133156 87.5548023 8.07133156 89.1824859 8.07133156 90.4943503 6.76246698 90.4943503 5.13850538 90.4943503 3.51454377 89.1824859 2.20567919 87.5548023 2.20567919M114.788136 11.3677312C113.160452 11.3677312 111.848588 12.6765958 111.848588 14.3005574L111.848588 19.3421099 111.848588 24.2867094 111.848588 34.0789555C111.848588 35.7029171 113.160452 37.0117816 114.788136 37.0117816 116.415819 37.0117816 117.727684 35.7029171 117.727684 34.0789555L117.727684 24.2867094 117.727684 19.3421099 117.727684 14.3005574C117.70339 12.6765958 116.391525 11.3677312 114.788136 11.3677312M114.812429 2.20567919C113.184746 2.20567919 111.872881 3.51454377 111.872881 5.13850538 111.872881 6.76246698 113.184746 8.07133156 114.812429 8.07133156 116.440113 8.07133156 117.751977 6.76246698 117.751977 5.13850538 117.751977 3.538782 116.440113 2.20567919 114.812429 2.20567919M77.1813559 11.8282577L77.1813559 11.8282577C71.8367232 13.4037428 67.9254237 18.3483423 67.9254237 24.1655182L67.9254237 33.9577643C67.9254237 35.5817259 69.2372881 36.8905905 70.8649718 36.8905905 72.4926554 36.8905905 73.8045198 35.5817259 73.8045198 33.9577643L73.8045198 24.1655182C73.8045198 20.9903097 75.9180791 18.3241041 78.8090395 17.4515277L78.8819209 17.4272895C80.4367232 16.966763 81.3112994 15.3428014 80.8497175 13.7915545 80.339548 12.2403076 78.7118644 11.3677312 77.1813559 11.8282577M50.1909605 14.3247956C50.1909605 12.700834 48.879096 11.3919695 47.2514124 11.3919695 45.6237288 11.3919695 44.3118644 12.700834 44.3118644 14.3247956L44.3118644 24.1170417C44.3118644 27.995159 42.1497175 31.1461293 38.2627119 31.1461293 34.3757062 31.1461293 32.2135593 27.995159 32.2135593 24.1170417L32.2135593 14.3247956C32.2135593 12.700834 30.9016949 11.3919695 29.2740113 11.3919695 27.6463277 11.3919695 26.3344633 12.700834 26.3344633 14.3247956L26.3344633 24.1170417C26.3344633 31.218844 31.120339 36.9875434 38.2384181 36.9875434 40.5220339 36.9875434 42.5627119 36.3815876 44.2875706 35.3393436L44.2875706 35.5090112C44.2875706 38.6842197 42.1740113 41.3504253 39.2830508 42.2230017L39.2101695 42.24724 39.2101695 42.24724C37.6553672 42.7077664 38.2384181 44.331728 38.7 45.8829749 39.1615819 47.4342218 40.7892655 48.3067982 42.3440678 47.8462718 47.6887006 46.2707866 50.1423729 41.3261871 50.1423729 35.5090112L50.1423729 19.3178716C50.1423729 19.2693952 50.1423729 19.2209187 50.1423729 19.1724422L50.1909605 14.3247956zM105.070621.339335261L105.070621.339335261C99.7259887 1.9148204 95.8146893 6.85941991 95.8146893 12.6765958L95.8146893 33.9092878C95.8146893 35.5332494 97.1265537 36.842114 98.7542373 36.842114 100.381921 36.842114 101.693785 35.5332494 101.693785 33.9092878L101.693785 19.3663481 103.127119 19.3663481 103.855932 19.3663481C105.483616 19.3663481 106.79548 18.0574835 106.79548 16.4335219 106.79548 14.8095603 105.483616 13.5006957 103.855932 13.5006957L103.127119 13.5006957 101.693785 13.5006957 101.693785 12.6765958C101.693785 9.5013873 103.807345 6.83518168 106.698305 5.9626053L106.771186 5.93836706C108.325989 5.47784064 109.200565 3.85387903 108.738983 2.30263213 108.228814.75138522 106.60113-.121191165 105.070621.339335261"/>
    <path d="M32.2621469 10.1073431L45.040678 10.1073431C43.9231638 7.68351983 41.4937853 6.01108176 38.6514124 6.01108176 35.8090395 6.01108176 33.3553672 7.68351983 32.2621469 10.1073431M38.6271186 25.8621945C31.5333333 25.8621945 25.7514124 20.0934951 25.7514124 13.0159311 25.7514124 5.93836706 31.5333333.16966763 38.6271186.16966763 45.720904.16966763 51.5028249 5.93836706 51.5028249 13.0159311 51.5028249 14.6156544 50.1909605 15.924519 48.5875706 15.924519L32.2621469 15.924519C33.379661 18.3483423 35.8090395 20.0207804 38.6514124 20.0207804 40.2548023 20.0207804 41.5666667 21.329645 41.5666667 22.9293683 41.5666667 24.5533299 40.2548023 25.8621945 38.6271186 25.8621945M77.0841808 25.7167651C75.480791 25.7167651 74.1689266 24.4079005 74.1689266 22.8081772L74.1689266 13.0401693C74.1689266 9.18629027 71.0107345 6.03531999 67.1480226 6.03531999 63.2853107 6.03531999 60.1271186 9.18629027 60.1271186 13.0401693L60.1271186 22.8081772C60.1271186 24.4079005 58.8152542 25.7167651 57.2118644 25.7167651 55.6084746 25.7167651 54.2966102 24.4079005 54.2966102 22.8081772L54.2966102 13.0401693C54.2966102 5.9626053 60.0785311.193905863 67.1723164.193905863 74.2661017.193905863 80.0480226 5.9626053 80.0480226 13.0401693L80.0480226 22.8081772C79.999435 24.4079005 78.7118644 25.7167651 77.0841808 25.7167651M119.403955 25.7167651C112.310169 25.7167651 106.528249 19.9480657 106.528249 12.8705017L106.528249 3.10249381C106.528249 1.50277044 107.840113.193905863 109.443503.193905863 111.071186.193905863 112.358757 1.50277044 112.358757 3.10249381L112.358757 12.8705017C112.358757 16.7243807 115.516949 19.875351 119.379661 19.875351 123.242373 19.875351 126.400565 16.7243807 126.400565 12.8705017L126.400565 3.10249381C126.400565 1.50277044 127.712429.193905863 129.315819.193905863 130.919209.193905863 132.231073 1.50277044 132.231073 3.10249381L132.231073 12.8705017C132.279661 19.9723039 126.49774 25.7167651 119.403955 25.7167651M95.280226 10.6648225C91.1502825 9.79224609 89.4983051 9.4286726 89.4983051 7.92590216 89.4983051 6.42313172 91.6118644 5.5990318 93.9440678 5.5990318 95.1830508 5.5990318 96.3491525 5.8898906 97.320904 6.27770232 97.7096045 6.42313172 98.0983051 6.54432288 98.5355932 6.54432288 100.041808 6.54432288 101.280791 5.33241124 101.280791 3.8296408 101.280791 2.59349092 100.479096 1.52700867 99.3615819 1.18767341 97.9039548.654432288 96.0576271.218144096 93.9683616.218144096 87.2632768.218144096 83.4248588 4.02354666 83.4248588 7.85318746 83.4248588 12.4826899 87.6519774 14.5429397 92.5107345 15.5851838 96.2276836 16.3608072 97.3694915 16.6759042 97.3694915 18.2756276 97.3694915 19.7783981 95.2559322 20.4813068 92.7293785 20.4813068 90.4457627 20.4813068 88.7451977 19.560254 87.2389831 18.7846305 87.2146893 18.7846305 87.2389831 18.7846305 87.2389831 18.7846305 86.9231638 18.6634393 86.5101695 18.5422482 86.1457627 18.5422482 84.6152542 18.5422482 83.3762712 19.7783981 83.3762712 21.3054067 83.3762712 22.3961272 84.0079096 23.3414183 84.9310734 23.7777065 86.8016949 24.8441887 89.4740113 25.8864327 92.9480226 25.8864327 99.1915254 25.8864327 103.637288 22.5415566 103.637288 18.3725805 103.588701 13.3067899 100.114689 11.7070665 95.280226 10.6648225M147.171751 10.6890607C143.041808 9.81648433 141.389831 9.45291083 141.389831 7.95014039 141.389831 6.44736995 143.50339 5.62327003 145.835593 5.62327003 147.074576 5.62327003 148.240678 5.91412883 149.212429 6.30194056 149.60113 6.44736995 149.989831 6.56856112 150.427119 6.56856112 151.933333 6.56856112 153.148023 5.35664947 153.148023 3.85387903 153.148023 2.61772915 152.346328 1.59972337 151.228814 1.21191165 149.771186.678670521 147.924859.242382329 145.835593.242382329 139.130508.242382329 135.29209 4.0477849 135.29209 7.87742569 135.29209 12.5069282 139.519209 14.567178 144.377966 15.609422 148.094915 16.3850454 149.236723 16.7001425 149.236723 18.2998658 149.236723 19.8026363 147.123164 20.505545 144.59661 20.505545 142.312994 20.505545 140.563842 19.560254 139.033333 18.7846305 139.00904 18.7603923 139.033333 18.7846305 139.033333 18.7846305 138.717514 18.6634393 138.353107 18.5664864 137.988701 18.5664864 136.458192 18.5664864 135.219209 19.8026363 135.219209 21.329645 135.219209 22.4203654 135.875141 23.3414183 136.774011 23.8019447 138.644633 24.868427 141.316949 25.910671 144.79096 25.910671 151.034463 25.910671 155.480226 22.5657948 155.480226 18.3968188 155.480226 13.3310281 152.030508 11.7313047 147.171751 10.6890607M13.0457627 25.8621945C5.9519774 25.8621945.170056497 20.0934951.170056497 13.0159311.170056497 5.93836706 5.9519774.16966763 13.0457627.16966763 16.5926554.16966763 20.0180791 1.67243807 22.4474576 4.26592899 23.540678 5.4536024 23.4920904 7.29570811 22.3016949 8.38642859 21.1112994 9.47714907 19.2649718 9.4286726 18.1717514 8.24099919 16.8355932 6.78670521 15.0135593 6.01108176 13.0457627 6.01108176 9.18305085 6.01108176 6.02485876 9.16205204 6.02485876 13.0159311 6.02485876 16.8698101 9.18305085 20.0207804 13.0457627 20.0207804 15.0135593 20.0207804 16.8355932 19.2209187 18.1717514 17.790863 19.2649718 16.6031895 21.1112994 16.5547131 22.3016949 17.6454336 23.4920904 18.736154 23.540678 20.5782597 22.4474576 21.7659332 20.0180791 24.3594241 16.5926554 25.8621945 13.0457627 25.8621945" transform="translate(0 55.748)"/>
  </g>
</svg>
