<svg width="549" height="100" viewBox="0 0 549 100" fill="none" xmlns="http://www.w3.org/2000/svg">
<g clip-path="url(#clip0_253_349)">
<path opacity="0.7" d="M375.385 71.7436V69.7436C375.385 59.0769 383.641 54.3589 391.436 50.5128C398.257 47.1282 404.359 44.5641 404.359 38.9743C404.359 33.5897 400.41 30.4102 393.795 30.4102C386.205 30.4102 382.564 35.0769 381.128 40.359C381.128 40.6154 375.692 40.6667 375.692 36.359C375.692 33.641 377.282 30.4102 380.41 27.8461C383.539 25.282 388.257 23.3333 394.359 23.3333C405.641 23.3333 412.462 29.1795 412.462 38.8205C412.462 48.1025 405.077 51.7948 397.231 55.3846C390.41 58.4102 384.821 61.3333 383.436 66.8205C383.282 67.5384 383.128 68.3589 383.128 69.1282H409.436C412.154 69.1282 413.385 70.2564 413.385 72.3589V72.8205C413.385 74.9743 412.205 76.2051 409.436 76.2051H380.513C376.872 76.2051 375.385 75.0256 375.385 71.7436ZM419.026 52.9743V47.6923C419.026 32.7179 427.282 23.3333 440.564 23.3333C454.051 23.3333 462.205 32.6154 462.205 47.5897V52.8205C462.205 67.7948 453.949 77.282 440.564 77.282C427.128 77.282 419.026 67.9487 419.026 52.9743ZM454 53.2307V47.4359C454 36.5128 449.026 30.1025 440.616 30.1025C432.205 30.1025 427.385 36.3589 427.385 47.2307V53.0769C427.385 64 432.257 70.2051 440.616 70.2051C449.18 70.3077 454 64.1025 454 53.2307ZM469.128 71.7436V69.7436C469.128 59.0769 477.385 54.3589 485.18 50.5128C492 47.1282 498.103 44.5641 498.103 38.9743C498.103 33.5897 494.154 30.4102 487.539 30.4102C479.949 30.4102 476.308 35.0769 474.872 40.359C474.872 40.6154 469.436 40.6667 469.436 36.359C469.436 33.641 471.026 30.4102 474.154 27.8461C477.282 25.282 482 23.3333 488.103 23.3333C499.385 23.3333 506.205 29.1795 506.205 38.8205C506.205 48.1025 498.821 51.7948 490.975 55.3846C484.154 58.4102 478.564 61.3333 477.18 66.8205C477.026 67.5384 476.872 68.3589 476.872 69.1282H503.18C505.898 69.1282 507.128 70.2564 507.128 72.3589V72.8205C507.128 74.9743 505.949 76.2051 503.18 76.2051H474.308C470.616 76.2051 469.128 75.0256 469.128 71.7436ZM517.59 73.0256V72.6153C517.59 70.3077 518.872 69.2307 521.334 69.2307H530V32.3077C526.872 34.7692 525.59 36.2564 524.051 37.4359C522.462 38.7179 521.18 39.1795 519.795 39.1795C517.077 39.1795 515.539 36.8718 515.539 34.1538L531.026 24H533.846C536.154 24 537.539 25.282 537.539 27.7436L537.436 69.2307H544.41C546.872 69.2307 548.154 70.2564 548.154 72.6153V73.0256C548.154 75.282 546.872 76.2564 544.41 76.2564H521.334C518.872 76.2051 517.59 75.282 517.59 73.0256Z" fill="#902092"/>
<path d="M321.949 50.359C321.949 42.2564 328.513 35.6923 336.615 35.6923C340 35.6923 343.128 36.8205 345.692 38.8718V43.8461V61.7948C343.128 63.8461 339.949 65.0256 336.615 65.0256C328.564 65.0256 321.949 58.4615 321.949 50.359ZM351.846 0.564087C348.461 0.564087 345.743 3.28203 345.743 6.66665V25.1282C342.82 24.1025 339.743 23.5384 336.666 23.5384C321.846 23.5384 309.795 35.5897 309.795 50.4102C309.795 65.2307 321.846 77.282 336.666 77.282C344.102 77.282 351.231 74.1538 356.308 68.7179C357.333 67.5897 357.897 66.2051 357.949 64.8205C357.949 64.6667 357.949 64.5128 357.949 64.359V43.9487V33.5897V6.66665C357.949 3.28203 355.231 0.564087 351.846 0.564087Z" fill="#902092"/>
<path d="M27.1281 35.5384C31.2307 35.5384 35.0256 37.1795 37.8461 40.2051C40.1538 42.6667 43.9999 42.8205 46.4615 40.5128C48.923 38.2051 49.0769 34.359 46.7692 31.8974C41.6923 26.4615 34.5128 23.3333 27.1281 23.3333C12.3076 23.3333 0.256348 35.3846 0.256348 50.2051C0.256348 65.0256 12.3076 77.0769 27.1281 77.0769C34.564 77.0769 41.6923 73.9487 46.7692 68.5128C49.0769 66.0513 48.923 62.2051 46.4615 59.8974C43.9999 57.5897 40.1025 57.7436 37.8461 60.2051C35.0256 63.2308 31.2307 64.923 27.1281 64.923C19.0256 64.923 12.4615 58.359 12.4615 50.2564C12.4615 42.1025 19.0769 35.5384 27.1281 35.5384Z" fill="#902092"/>
<path d="M182.256 23.3846C178.872 23.3846 176.154 26.1026 176.154 29.4872V40V50.359V70.7693C176.154 74.1539 178.872 76.8718 182.256 76.8718C185.641 76.8718 188.359 74.1539 188.359 70.7693V50.359V40V29.4872C188.359 26.1026 185.641 23.3846 182.256 23.3846Z" fill="#902092"/>
<path d="M130.974 27.8974H129.436H126.461V26.1538C126.461 19.5384 130.872 13.9487 136.872 12.1025L137.026 12.0512C140.256 11.0769 142.103 7.69227 141.128 4.4615C140.154 1.23073 136.769 -0.564139 133.538 0.358938C122.41 3.64099 114.205 13.9487 114.205 26.1538V70.5128C114.205 73.8974 116.923 76.6154 120.308 76.6154C123.692 76.6154 126.41 73.8974 126.41 70.5128V40.1538H129.385H130.923C134.308 40.1538 137.026 37.4359 137.026 34.0512C137.026 30.6666 134.359 27.8974 130.974 27.8974Z" fill="#902092"/>
<path d="M264.513 50.0512C264.513 41.9487 271.077 35.3846 279.179 35.3846C283.026 35.3846 286.615 36.8717 289.333 39.5384V40V50.3589V60.6153C286.564 63.282 282.974 64.7692 279.179 64.7692C271.077 64.7179 264.513 58.1538 264.513 50.0512ZM295.436 23.3846C293.487 23.3846 291.692 24.3076 290.615 25.7948C287.077 24.1025 283.179 23.2307 279.179 23.2307C264.359 23.2307 252.308 35.282 252.308 50.1025C252.308 64.923 264.359 76.9743 279.179 76.9743C283.128 76.9743 287.026 76.0512 290.564 74.4102C291.692 75.8974 293.436 76.8718 295.487 76.8718C298.872 76.8718 301.59 74.1538 301.59 70.7692V50.3589V40V29.4871C301.538 26.1025 298.82 23.3846 295.436 23.3846Z" fill="#902092"/>
<path d="M182.308 4.25635C178.923 4.25635 176.154 7.02558 176.154 10.4102C176.154 13.7948 178.923 16.564 182.308 16.564C185.692 16.564 188.462 13.7948 188.462 10.4102C188.462 7.02558 185.692 4.25635 182.308 4.25635Z" fill="#902092"/>
<path d="M239.077 23.3846C235.692 23.3846 232.974 26.1026 232.974 29.4872V40V50.359V70.7693C232.974 74.1539 235.692 76.8718 239.077 76.8718C242.461 76.8718 245.179 74.1539 245.179 70.7693V50.359V40V29.4872C245.179 26.1026 242.461 23.3846 239.077 23.3846Z" fill="#902092"/>
<path d="M239.128 4.25635C235.743 4.25635 232.974 7.02558 232.974 10.4102C232.974 13.7948 235.743 16.564 239.128 16.564C242.513 16.564 245.282 13.7948 245.282 10.4102C245.282 7.02558 242.513 4.25635 239.128 4.25635Z" fill="#902092"/>
<path d="M160.718 24.4103C149.59 27.6923 141.436 38 141.436 50.2051V70.6154C141.436 74 144.154 76.7179 147.538 76.7179C150.923 76.7179 153.641 74 153.641 70.6154V50.2051C153.641 43.5898 158.051 38 164.051 36.1538L164.205 36.1026C167.436 35.1282 169.282 31.7436 168.308 28.5128C167.282 25.2308 163.949 23.4359 160.718 24.4103Z" fill="#902092"/>
<path d="M104.513 29.5898C104.513 26.2051 101.795 23.4872 98.4103 23.4872C95.0257 23.4872 92.3077 26.2051 92.3077 29.5898V50C92.3077 58.1026 87.7949 64.6667 79.6924 64.6667C71.5898 64.6667 67.0769 58.1026 67.0769 50V29.5898C67.0769 26.2051 64.359 23.4872 60.9744 23.4872C57.5898 23.4872 54.8718 26.2051 54.8718 29.5898V50C54.8718 64.8205 64.8718 76.8718 79.6924 76.8718C84.4616 76.8718 88.718 75.641 92.3077 73.4359V73.7949C92.3077 80.4103 87.8975 86 81.8975 87.8462L81.7436 87.8975C78.5129 88.8718 79.7436 92.2564 80.718 95.4872C81.6924 98.718 85.077 100.564 88.3077 99.5898C99.4359 96.3077 104.564 86 104.564 73.7949V39.9487C104.564 39.8462 104.564 39.7436 104.564 39.641V29.5898H104.513Z" fill="#902092"/>
<path d="M218.82 0.358955C207.692 3.64101 199.538 13.9487 199.538 26.1538V70.5128C199.538 73.8974 202.256 76.6154 205.641 76.6154C209.026 76.6154 211.743 73.8974 211.743 70.5128V40.1538H214.718H216.256C219.641 40.1538 222.359 37.4359 222.359 34.0513C222.359 30.6666 219.641 27.9487 216.256 27.9487H214.718H211.743V26.1538C211.743 19.5384 216.154 13.9487 222.154 12.1025L222.308 12.0513C225.538 11.0769 227.385 7.69229 226.41 4.46152C225.436 1.23075 222.051 -0.615404 218.82 0.358955Z" fill="#902092"/>
</g>
<defs>
<clipPath id="clip0_253_349">
<rect width="548.205" height="100" fill="white"/>
</clipPath>
</defs>
</svg>
