<svg width="549" height="100" viewBox="0 0 549 100" fill="none" xmlns="http://www.w3.org/2000/svg">
<g clip-path="url(#clip0_253_372)">
<path opacity="0.7" d="M375.385 71.7436V69.7436C375.385 59.0769 383.641 54.359 391.436 50.5128C398.256 47.1282 404.359 44.5641 404.359 38.9743C404.359 33.5897 400.41 30.4102 393.795 30.4102C386.205 30.4102 382.564 35.0769 381.128 40.359C381.128 40.6154 375.692 40.6667 375.692 36.359C375.692 33.641 377.282 30.4102 380.41 27.8461C383.538 25.282 388.256 23.3333 394.359 23.3333C405.641 23.3333 412.461 29.1795 412.461 38.8205C412.461 48.1025 405.077 51.7948 397.231 55.3846C390.41 58.4102 384.82 61.3333 383.436 66.8205C383.282 67.5384 383.128 68.3589 383.128 69.1282H409.436C412.154 69.1282 413.385 70.2564 413.385 72.3589V72.8205C413.385 74.9743 412.205 76.2051 409.436 76.2051H380.513C376.872 76.2051 375.385 75.0256 375.385 71.7436ZM419.026 52.9743V47.6923C419.026 32.7179 427.282 23.3333 440.564 23.3333C454.051 23.3333 462.205 32.6154 462.205 47.5897V52.8205C462.205 67.7948 453.949 77.282 440.564 77.282C427.128 77.282 419.026 67.9487 419.026 52.9743ZM454 53.2307V47.4359C454 36.5128 449.026 30.1025 440.615 30.1025C432.205 30.1025 427.385 36.3589 427.385 47.2307V53.0769C427.385 64 432.256 70.2051 440.615 70.2051C449.179 70.3077 454 64.1025 454 53.2307ZM469.128 71.7436V69.7436C469.128 59.0769 477.385 54.359 485.179 50.5128C492 47.1282 498.103 44.5641 498.103 38.9743C498.103 33.5897 494.154 30.4102 487.538 30.4102C479.949 30.4102 476.308 35.0769 474.872 40.359C474.872 40.6154 469.436 40.6667 469.436 36.359C469.436 33.641 471.026 30.4102 474.154 27.8461C477.282 25.282 482 23.3333 488.103 23.3333C499.385 23.3333 506.205 29.1795 506.205 38.8205C506.205 48.1025 498.82 51.7948 490.974 55.3846C484.154 58.4102 478.564 61.3333 477.179 66.8205C477.026 67.5384 476.872 68.3589 476.872 69.1282H503.179C505.897 69.1282 507.128 70.2564 507.128 72.3589V72.8205C507.128 74.9743 505.949 76.2051 503.179 76.2051H474.308C470.615 76.2051 469.128 75.0256 469.128 71.7436ZM517.59 73.0256V72.6153C517.59 70.3077 518.872 69.2307 521.333 69.2307H530V32.3077C526.872 34.7692 525.59 36.2564 524.051 37.4359C522.461 38.7179 521.179 39.1795 519.795 39.1795C517.077 39.1795 515.538 36.8718 515.538 34.1538L531.026 24H533.846C536.154 24 537.538 25.282 537.538 27.7436L537.436 69.2307H544.41C546.872 69.2307 548.154 70.2564 548.154 72.6153V73.0256C548.154 75.282 546.872 76.2564 544.41 76.2564H521.333C518.872 76.2051 517.59 75.282 517.59 73.0256Z" fill="black"/>
<path d="M321.949 50.359C321.949 42.2565 328.513 35.6924 336.615 35.6924C340 35.6924 343.128 36.8205 345.692 38.8718V43.8462V61.7949C343.128 63.8462 339.949 65.0257 336.615 65.0257C328.564 65.0257 321.949 58.4616 321.949 50.359ZM351.846 0.564148C348.461 0.564148 345.743 3.28209 345.743 6.66671V25.1282C342.82 24.1026 339.743 23.5385 336.666 23.5385C321.846 23.5385 309.795 35.5898 309.795 50.4103C309.795 65.2308 321.846 77.2821 336.666 77.2821C344.102 77.2821 351.231 74.1539 356.308 68.718C357.333 67.5898 357.897 66.2052 357.949 64.8206C357.949 64.6667 357.949 64.5129 357.949 64.359V43.9488V33.5898V6.66671C357.949 3.28209 355.231 0.564148 351.846 0.564148Z" fill="black"/>
<path d="M27.1281 35.5385C31.2307 35.5385 35.0256 37.1795 37.8461 40.2052C40.1538 42.6667 43.9999 42.8206 46.4615 40.5129C48.923 38.2052 49.0769 34.359 46.7692 31.8975C41.6923 26.4616 34.5128 23.3334 27.1281 23.3334C12.3076 23.3334 0.256348 35.3847 0.256348 50.2052C0.256348 65.0257 12.3076 77.077 27.1281 77.077C34.564 77.077 41.6923 73.9487 46.7692 68.5129C49.0769 66.0513 48.923 62.2052 46.4615 59.8975C43.9999 57.5898 40.1025 57.7436 37.8461 60.2052C35.0256 63.2308 31.2307 64.9231 27.1281 64.9231C19.0256 64.9231 12.4615 58.359 12.4615 50.2565C12.4615 42.1026 19.0769 35.5385 27.1281 35.5385Z" fill="black"/>
<path d="M182.256 23.3846C178.872 23.3846 176.154 26.1026 176.154 29.4872V40V50.359V70.7693C176.154 74.1539 178.872 76.8718 182.256 76.8718C185.641 76.8718 188.359 74.1539 188.359 70.7693V50.359V40V29.4872C188.359 26.1026 185.641 23.3846 182.256 23.3846Z" fill="black"/>
<path d="M130.974 27.8975H129.436H126.461V26.1539C126.461 19.5385 130.872 13.9487 136.872 12.1026L137.026 12.0513C140.256 11.0769 142.103 7.69233 141.128 4.46156C140.154 1.23079 136.769 -0.564078 133.538 0.358999C122.41 3.64105 114.205 13.9487 114.205 26.1539V70.5128C114.205 73.8975 116.923 76.6154 120.308 76.6154C123.692 76.6154 126.41 73.8975 126.41 70.5128V40.1539H129.385H130.923C134.308 40.1539 137.026 37.4359 137.026 34.0513C137.026 30.6667 134.359 27.8975 130.974 27.8975Z" fill="black"/>
<path d="M264.513 50.0513C264.513 41.9487 271.077 35.3846 279.179 35.3846C283.026 35.3846 286.615 36.8718 289.333 39.5385V40V50.359V60.6154C286.564 63.2821 282.974 64.7692 279.179 64.7692C271.077 64.718 264.513 58.1538 264.513 50.0513ZM295.436 23.3846C293.487 23.3846 291.692 24.3077 290.615 25.7949C287.077 24.1026 283.179 23.2308 279.179 23.2308C264.359 23.2308 252.308 35.2821 252.308 50.1026C252.308 64.9231 264.359 76.9744 279.179 76.9744C283.128 76.9744 287.026 76.0513 290.564 74.4103C291.692 75.8974 293.436 76.8718 295.487 76.8718C298.872 76.8718 301.59 74.1539 301.59 70.7692V50.359V40V29.4872C301.538 26.1026 298.82 23.3846 295.436 23.3846Z" fill="black"/>
<path d="M182.308 4.25647C178.923 4.25647 176.154 7.0257 176.154 10.4103C176.154 13.7949 178.923 16.5642 182.308 16.5642C185.692 16.5642 188.462 13.7949 188.462 10.4103C188.462 7.0257 185.692 4.25647 182.308 4.25647Z" fill="black"/>
<path d="M239.077 23.3846C235.692 23.3846 232.974 26.1026 232.974 29.4872V40V50.359V70.7693C232.974 74.1539 235.692 76.8718 239.077 76.8718C242.462 76.8718 245.179 74.1539 245.179 70.7693V50.359V40V29.4872C245.179 26.1026 242.462 23.3846 239.077 23.3846Z" fill="black"/>
<path d="M239.128 4.25647C235.744 4.25647 232.974 7.0257 232.974 10.4103C232.974 13.7949 235.744 16.5642 239.128 16.5642C242.513 16.5642 245.282 13.7949 245.282 10.4103C245.282 7.0257 242.513 4.25647 239.128 4.25647Z" fill="black"/>
<path d="M160.718 24.4103C149.59 27.6923 141.436 38 141.436 50.2052V70.6154C141.436 74 144.154 76.718 147.538 76.718C150.923 76.718 153.641 74 153.641 70.6154V50.2052C153.641 43.5898 158.051 38 164.051 36.1539L164.205 36.1026C167.436 35.1282 169.282 31.7436 168.308 28.5129C167.333 25.2821 163.949 23.4359 160.718 24.4103Z" fill="black"/>
<path d="M104.513 29.5898C104.513 26.2051 101.795 23.4872 98.4103 23.4872C95.0257 23.4872 92.3077 26.2051 92.3077 29.5898V50C92.3077 58.1026 87.7949 64.6667 79.6924 64.6667C71.5898 64.6667 67.0769 58.1026 67.0769 50V29.5898C67.0769 26.2051 64.359 23.4872 60.9744 23.4872C57.5898 23.4872 54.8718 26.2051 54.8718 29.5898V50C54.8718 64.8205 64.8718 76.8718 79.6924 76.8718C84.4616 76.8718 88.718 75.641 92.3077 73.4359V73.7949C92.3077 80.4103 87.8975 86 81.8975 87.8462L81.7436 87.8975C78.5129 88.8718 79.7436 92.2564 80.718 95.4872C81.6924 98.718 85.077 100.564 88.3077 99.5898C99.4359 96.3077 104.564 86 104.564 73.7949V39.9487C104.564 39.8462 104.564 39.7436 104.564 39.641V29.5898H104.513Z" fill="black"/>
<path d="M218.82 0.359016C207.692 3.64107 199.538 13.9488 199.538 26.1539V70.5129C199.538 73.8975 202.256 76.6154 205.641 76.6154C209.026 76.6154 211.743 73.8975 211.743 70.5129V40.1539H214.718H216.256C219.641 40.1539 222.359 37.4359 222.359 34.0513C222.359 30.6667 219.641 27.9488 216.256 27.9488H214.718H211.743V26.1539C211.743 19.5385 216.154 13.9488 222.154 12.1026L222.308 12.0513C225.538 11.077 227.385 7.69235 226.41 4.46158C225.436 1.23081 222.051 -0.615343 218.82 0.359016Z" fill="black"/>
</g>
<defs>
<clipPath id="clip0_253_372">
<rect width="548.205" height="100" fill="white"/>
</clipPath>
</defs>
</svg>
