<svg xmlns="http://www.w3.org/2000/svg" width="157" height="62" viewBox="0 0 157 62">
  <g fill="#FFF">
    <path d="M32.5490566 10.0566038L45.4509434 10.0566038C44.3226415 7.60377358 41.8698113 5.91132075 39 5.91132075 36.1301887 5.91132075 33.6773585 7.60377358 32.5490566 10.0566038M39 26C31.8377358 26 26 20.1622642 26 13 26 5.83773585 31.8377358 0 39 0 46.1622642 0 52 5.83773585 52 13 52 14.6188679 50.6754717 15.9433962 49.0566038 15.9433962L32.5735849 15.9433962C33.7018868 18.3962264 36.154717 20.0886792 39.0245283 20.0886792 40.6433962 20.0886792 41.9679245 21.4132075 41.9679245 23.0320755 41.9679245 24.6509434 40.6188679 26 39 26M78.0075472 26C76.3886792 26 75.0641509 24.6666667 75.0641509 23.037037L75.0641509 13.0864198C75.0641509 9.16049383 71.8754717 5.95061728 67.9754717 5.95061728 64.0754717 5.95061728 60.8867925 9.16049383 60.8867925 13.0864198L60.8867925 23.037037C60.8867925 24.6666667 59.5622642 26 57.9433962 26 56.3245283 26 55 24.6666667 55 23.037037L55 13.0864198C55 5.87654321 60.8377358 0 68 0 75.1622642 0 81 5.87654321 81 13.0864198L81 23.037037C80.9754717 24.6666667 79.6509434 26 78.0075472 26M120.024421 26C112.848702 26 107 20.1178707 107 12.9011407L107 2.96577947C107 1.33460076 108.327016 0 109.948925 0 111.595409 0 112.897851 1.33460076 112.897851 2.96577947L112.897851 12.9258555C112.897851 16.8555133 116.09252 20.0684411 119.999846 20.0684411 123.907172 20.0684411 127.101842 16.8555133 127.101842 12.9258555L127.101842 2.96577947C127.101842 1.33460076 128.428858 0 130.050767 0 131.672676 0 132.999692 1.33460076 132.999692 2.96577947L132.999692 12.9258555C133.048841 20.1178707 127.200139 26 120.024421 26M95.7745803 10.5816808C91.6978417 9.69782814 90.0671463 9.32955619 90.0671463 7.80736544 90.0671463 6.28517469 92.1534772 5.45042493 94.4556355 5.45042493 95.6786571 5.45042493 96.8297362 5.74504249 97.7889688 6.13786591 98.1726619 6.28517469 98.5563549 6.40793201 98.9880096 6.40793201 100.47482 6.40793201 101.673861 5.18035883 101.673861 3.65816808 101.673861 2.40604344 100.882494 1.32577904 99.7793765.982058546 98.3405276.441926346 96.5179856 0 94.4556355 0 87.8369305 0 84.0479616 3.85457979 84.0479616 7.73371105 84.0479616 12.4230406 88.2206235 14.509915 93.0167866 15.565628 96.6858513 16.3512748 97.8129496 16.6704438 97.8129496 18.2908404 97.8129496 19.8130312 95.7266187 20.5250236 93.2326139 20.5250236 90.9784173 20.5250236 89.2997602 19.592068 87.8129496 18.8064212 87.7889688 18.8064212 87.8129496 18.8064212 87.8129496 18.8064212 87.501199 18.6836638 87.0935252 18.5609065 86.7338129 18.5609065 85.2230216 18.5609065 84 19.8130312 84 21.3597734 84 22.4645892 84.6235012 23.4220963 85.5347722 23.8640227 87.381295 24.9442871 90.0191847 26 93.4484412 26 99.6115108 26 104 22.611898 104 18.3644948 103.976019 13.2577904 100.570743 11.6373938 95.7745803 10.5816808M148.798561 10.5816808C144.721823 9.69782814 143.091127 9.32955619 143.091127 7.80736544 143.091127 6.28517469 145.177458 5.45042493 147.479616 5.45042493 148.702638 5.45042493 149.853717 5.74504249 150.81295 6.13786591 151.196643 6.28517469 151.580336 6.40793201 152.01199 6.40793201 153.498801 6.40793201 154.697842 5.18035883 154.697842 3.65816808 154.697842 2.40604344 153.906475 1.37488196 152.803357.982058546 151.364508.441926346 149.541966 0 147.479616 0 140.860911 0 137.071942 3.85457979 137.071942 7.73371105 137.071942 12.4230406 141.244604 14.509915 146.040767 15.565628 149.709832 16.3512748 150.83693 16.6704438 150.83693 18.2908404 150.83693 19.8130312 148.7506 20.5250236 146.256595 20.5250236 144.002398 20.5250236 142.275779 19.5675165 140.764988 18.7818697 140.741007 18.7573182 140.764988 18.7818697 140.764988 18.7818697 140.453237 18.6591124 140.093525 18.5609065 139.733813 18.5609065 138.223022 18.5609065 137 19.8130312 137 21.3597734 137 22.4645892 137.647482 23.3975449 138.534772 23.8640227 140.381295 24.9442871 143.019185 26 146.448441 26 152.611511 26 157 22.611898 157 18.3644948 157 13.2577904 153.594724 11.6373938 148.798561 10.5816808M12.8408537 26C5.76627015 26 0 20.1622642 0 13 0 5.83773585 5.76627015 0 12.8408537 0 16.3781455 0 19.7942971 1.52075472 22.2170997 4.14528302 23.3073609 5.34716981 23.2589048 7.21132075 22.0717315 8.31509434 20.8845583 9.41886792 19.0432283 9.36981132 17.9529671 8.16792453 16.6204257 6.69622642 14.7790958 5.91132075 12.8408537 5.91132075 8.98859759 5.91132075 5.83895423 9.1 5.83895423 13 5.83895423 16.9 8.98859759 20.0886792 12.8408537 20.0886792 14.8033238 20.0886792 16.6204257 19.2792453 17.9529671 17.8075472 19.0432283 16.6056604 20.8845583 16.5566038 22.0717315 17.6603774 23.2589048 18.7641509 23.3073609 20.6283019 22.2170997 21.8301887 19.7942971 24.4792453 16.3781455 26 12.8408537 26"/>
    <path d="M2,59.3307985 L2,58.3669202 C2,53.2262357 5.9652819,50.9524715 9.70890208,49.0988593 C12.9845697,47.4676806 15.9154303,46.2319392 15.9154303,43.5380228 C15.9154303,40.9429658 14.0189911,39.4106464 10.8418398,39.4106464 C7.19673591,39.4106464 5.44807122,41.6596958 4.75845697,44.2053232 C4.75845697,44.3288973 2.14777448,44.3536122 2.14777448,42.2775665 C2.14777448,40.9676806 2.91127596,39.4106464 4.41364985,38.1749049 C5.91602374,36.9391635 8.18189911,36 11.1127596,36 C16.5311573,36 19.8068249,38.8174905 19.8068249,43.4638783 C19.8068249,47.9372624 16.2602374,49.71673 12.4919881,51.4467681 C9.21632047,52.904943 6.53175074,54.3136882 5.86676558,56.9581749 C5.79287834,57.3041825 5.7189911,57.6996198 5.7189911,58.0703422 L18.3537092,58.0703422 C19.6590504,58.0703422 20.2501484,58.6140684 20.2501484,59.6273764 L20.2501484,59.8498099 C20.2501484,60.8878327 19.6836795,61.4809886 18.3537092,61.4809886 L4.48753709,61.4809886 C2.7388724,61.4809886 2,60.9125475 2,59.3307985 Z M22.9839763,50.2851711 L22.9839763,47.7395437 C22.9839763,40.5228137 26.9492582,36 33.3281899,36 C39.805638,36 43.7216617,40.473384 43.7216617,47.6901141 L43.7216617,50.2110266 C43.7216617,57.4277567 39.7563798,62 33.3281899,62 C26.8753709,62 22.9839763,57.526616 22.9839763,50.2851711 Z M39.7563798,50.4087452 L39.7563798,47.6159696 C39.7563798,42.351711 37.3673591,39.2623574 33.3281899,39.2623574 C29.2890208,39.2623574 26.9738872,42.2775665 26.9738872,47.5171103 L26.9738872,50.3593156 C26.9738872,55.6235741 29.3136499,58.6142204 33.3281899,58.6142204 C37.4658754,58.6387833 39.7563798,55.648289 39.7563798,50.4087452 Z M47.0465875,59.3307985 L47.0465875,58.3669202 C47.0465875,53.2262357 51.0118694,50.9524715 54.7554896,49.0988593 C58.0311573,47.4676806 60.9620178,46.2319392 60.9620178,43.5380228 C60.9620178,40.9429658 59.0655786,39.4106464 55.8884273,39.4106464 C52.2433234,39.4106464 50.4946588,41.6596958 49.8050445,44.2053232 C49.8050445,44.3288973 47.194362,44.3536122 47.194362,42.2775665 C47.194362,40.9676806 47.9578635,39.4106464 49.4602374,38.1749049 C50.9626113,36.9391635 53.2284866,36 56.1593472,36 C61.5777448,36 64.8534125,38.8174905 64.8534125,43.4638783 C64.8534125,47.9372624 61.3068249,49.71673 57.5385757,51.4467681 C54.262908,52.904943 51.5783383,54.3136882 50.9133531,56.9581749 C50.8394659,57.3041825 50.7655786,57.6996198 50.7655786,58.0703422 L63.4002967,58.0703422 C64.705638,58.0703422 65.2967359,58.6140684 65.2967359,59.6273764 L65.2967359,59.8498099 C65.2967359,60.8878327 64.7302671,61.4809886 63.4002967,61.4809886 L49.5341246,61.4809886 C47.7608309,61.4809886 47.0465875,60.9125475 47.0465875,59.3307985 Z M70.3210682,59.9486692 L70.3210682,59.7509506 C70.3210682,58.6387833 70.9367953,58.1197719 72.1189911,58.1197719 L76.2813056,58.1197719 L76.2813056,40.3250951 C74.7789318,41.5114068 74.1632047,42.2281369 73.4243323,42.7965779 C72.6608309,43.4144487 72.0451039,43.6368821 71.3801187,43.6368821 C70.0747774,43.6368821 69.335905,42.5247148 69.335905,41.2148289 L76.7738872,36.3212928 L78.1284866,36.3212928 C79.2367953,36.3212928 79.9017804,36.9391635 79.9017804,38.1254753 L79.8525223,58.1197719 L83.2020772,58.1197719 C84.384273,58.1197719 85,58.6140684 85,59.7509506 L85,59.9486692 C85,61.0361217 84.384273,61.5057034 83.2020772,61.5057034 L72.1189911,61.5057034 C70.9367953,61.4809886 70.3210682,61.0361217 70.3210682,59.9486692 Z" opacity=".7"/>
  </g>
</svg>
