<svg xmlns="http://www.w3.org/2000/svg" width="263" height="48" viewBox="0 0 263 48">
  <g fill="#FFF">
    <path d="M180,34.3307985 L180,33.3669202 C180,28.2262357 183.966459,25.9524715 187.71119,24.0988593 C190.98783,22.4676806 193.919561,21.2319392 193.919561,18.5380228 C193.919561,15.9429658 192.022559,14.4106464 188.844464,14.4106464 C185.198278,14.4106464 183.449095,16.6596958 182.759276,19.2053232 C182.759276,19.3288973 180.147818,19.3536122 180.147818,17.2775665 C180.147818,15.9676806 180.911546,14.4106464 182.414366,13.1749049 C183.917186,11.9391635 186.183734,11 189.115465,11 C194.53547,11 197.81211,13.8174905 197.81211,18.4638783 C197.81211,22.9372624 194.26447,24.71673 190.495102,26.4467681 C187.218462,27.904943 184.533096,29.3136882 183.867913,31.9581749 C183.794004,32.3041825 183.720095,32.6996198 183.720095,33.0703422 L196.358563,33.0703422 C197.664292,33.0703422 198.255565,33.6140684 198.255565,34.6273764 L198.255565,34.8498099 C198.255565,35.8878327 197.688928,36.4809886 196.358563,36.4809886 L182.463639,36.4809886 C180.714455,36.4809886 180,35.9125475 180,34.3307985 Z M200.965568,25.2851711 L200.965568,22.7395437 C200.965568,15.5228137 204.932027,11 211.312852,11 C217.792223,11 221.709409,15.473384 221.709409,22.6901141 L221.709409,25.2110266 C221.709409,32.4277567 217.74295,37 211.312852,37 C204.858118,37 200.965568,32.5019011 200.965568,25.2851711 Z M217.767587,25.4087452 L217.767587,22.6159696 C217.767587,17.351711 215.377857,14.2623574 211.337489,14.2623574 C207.297121,14.2623574 204.9813,17.2775665 204.9813,22.5171103 L204.9813,25.3346008 C204.9813,30.5988593 207.321757,33.5893536 211.337489,33.5893536 C215.451766,33.6387833 217.767587,30.648289 217.767587,25.4087452 Z M225.035322,34.3307985 L225.035322,33.3669202 C225.035322,28.2262357 229.001781,25.9524715 232.746512,24.0988593 C236.023152,22.4676806 238.954883,21.2319392 238.954883,18.5380228 C238.954883,15.9429658 237.057881,14.4106464 233.879786,14.4106464 C230.2336,14.4106464 228.484417,16.6596958 227.794598,19.2053232 C227.794598,19.3288973 225.18314,19.3536122 225.18314,17.2775665 C225.18314,15.9676806 225.946869,14.4106464 227.449688,13.1749049 C228.952508,11.9391635 231.219056,11 234.150787,11 C239.570793,11 242.847432,13.8174905 242.847432,18.4638783 C242.847432,22.9372624 239.299792,24.71673 235.530424,26.4467681 C232.253785,27.904943 229.568418,29.3136882 228.903235,31.9581749 C228.829326,32.3041825 228.755417,32.6996198 228.755417,33.0703422 L241.393885,33.0703422 C242.699614,33.0703422 243.290888,33.6140684 243.290888,34.6273764 L243.290888,34.8498099 C243.290888,35.8878327 242.724251,36.4809886 241.393885,36.4809886 L227.523598,36.4809886 C225.749777,36.4809886 225.035322,35.9125475 225.035322,34.3307985 Z M248.316711,34.9486692 L248.316711,34.7509506 C248.316711,33.6387833 248.932621,33.1197719 250.115168,33.1197719 L254.278718,33.1197719 L254.278718,15.3250951 C252.775898,16.5114068 252.159988,17.2281369 251.420896,17.7965779 C250.657168,18.4144487 250.041259,18.6368821 249.376076,18.6368821 C248.070347,18.6368821 247.331256,17.5247148 247.331256,16.2148289 L254.771446,11.3212928 L256.126447,11.3212928 C257.235085,11.3212928 257.900267,11.9391635 257.900267,13.1254753 L257.850994,33.1197719 L261.201543,33.1197719 C262.38409,33.1197719 263,33.6140684 263,34.7509506 L263,34.9486692 C263,36.0361217 262.38409,36.5057034 261.201543,36.5057034 L250.115168,36.5057034 C248.932621,36.4809886 248.316711,36.0361217 248.316711,34.9486692 Z" opacity=".7"/>
    <path d="M154.701433 24.1723077C154.701433 20.2830769 157.855587 17.1323077 161.748997 17.1323077 163.375358 17.1323077 164.87851 17.6738462 166.110602 18.6584615L166.110602 21.0461538 166.110602 29.6615385C164.87851 30.6461538 163.350716 31.2123077 161.748997 31.2123077 157.880229 31.2123077 154.701433 28.0615385 154.701433 24.1723077M169.067622.270769231C167.441261.270769231 166.135244 1.57538462 166.135244 3.2L166.135244 12.0615385C164.730659 11.5692308 163.252149 11.2984615 161.773639 11.2984615 154.652149 11.2984615 148.861318 17.0830769 148.861318 24.1969231 148.861318 31.3107692 154.652149 37.0953846 161.773639 37.0953846 165.346705 37.0953846 168.77192 35.5938462 171.211461 32.9846154 171.704298 32.4430769 171.975358 31.7784615 172 31.1138462 172 31.04 172 30.9661538 172 30.8923077L172 21.0953846 172 16.1230769 172 3.2C172 1.57538462 170.693983.270769231 169.067622.270769231M13.0355301 17.0584615C15.0068768 17.0584615 16.8303725 17.8461538 18.1856734 19.2984615 19.2945559 20.48 21.1426934 20.5538462 22.3255014 19.4461538 23.5083095 18.3384615 23.582235 16.4923077 22.4733524 15.3107692 20.0338109 12.7015385 16.5839542 11.2 13.0355301 11.2 5.91404011 11.2.123209169 16.9846154.123209169 24.0984615.123209169 31.2123077 5.91404011 36.9969231 13.0355301 36.9969231 16.608596 36.9969231 20.0338109 35.4953846 22.4733524 32.8861538 23.582235 31.7046154 23.5083095 29.8584615 22.3255014 28.7507692 21.1426934 27.6430769 19.269914 27.7169231 18.1856734 28.8984615 16.8303725 30.3507692 15.0068768 31.1630769 13.0355301 31.1630769 9.14212034 31.1630769 5.98796562 28.0123077 5.98796562 24.1230769 5.98796562 20.2092308 9.16676218 17.0584615 13.0355301 17.0584615M87.5770774 11.2246154C85.9507163 11.2246154 84.6446991 12.5292308 84.6446991 14.1538462L84.6446991 19.2 84.6446991 24.1723077 84.6446991 33.9692308C84.6446991 35.5938462 85.9507163 36.8984615 87.5770774 36.8984615 89.2034384 36.8984615 90.5094556 35.5938462 90.5094556 33.9692308L90.5094556 24.1723077 90.5094556 19.2 90.5094556 14.1538462C90.5094556 12.5292308 89.2034384 11.2246154 87.5770774 11.2246154M62.9352436 13.3907692L62.1959885 13.3907692 60.7667622 13.3907692 60.7667622 12.5538462C60.7667622 9.37846154 62.8859599 6.69538462 65.7690544 5.80923077L65.8429799 5.78461538C67.3954155 5.31692308 68.2825215 3.69230769 67.8143266 2.14153846 67.3461318.590769231 65.7197708-.270769231 64.1673352.172307692 58.8200573 1.74769231 54.8773639 6.69538462 54.8773639 12.5538462L54.8773639 33.8461538C54.8773639 35.4707692 56.1833811 36.7753846 57.8097421 36.7753846 59.4361032 36.7753846 60.7421203 35.4707692 60.7421203 33.8461538L60.7421203 19.2738462 62.1713467 19.2738462 62.9106017 19.2738462C64.5369628 19.2738462 65.8429799 17.9692308 65.8429799 16.3446154 65.8429799 14.72 64.5616046 13.3907692 62.9352436 13.3907692M127.102579 24.0246154C127.102579 20.1353846 130.256734 16.9846154 134.150143 16.9846154 135.998281 16.9846154 137.723209 17.6984615 139.029226 18.9784615L139.029226 19.2 139.029226 24.1723077 139.029226 29.0953846C137.698567 30.3753846 135.973639 31.0892308 134.150143 31.0892308 130.256734 31.0646154 127.102579 27.9138462 127.102579 24.0246154M141.961605 11.2246154C141.025215 11.2246154 140.162751 11.6676923 139.645272 12.3815385 137.944986 11.5692308 136.072206 11.1507692 134.150143 11.1507692 127.028653 11.1507692 121.237822 16.9353846 121.237822 24.0492308 121.237822 31.1630769 127.028653 36.9476923 134.150143 36.9476923 136.047564 36.9476923 137.920344 36.5046154 139.62063 35.7169231 140.162751 36.4307692 141.000573 36.8984615 141.986246 36.8984615 143.612607 36.8984615 144.918625 35.5938462 144.918625 33.9692308L144.918625 24.1723077 144.918625 19.2 144.918625 14.1538462C144.893983 12.5292308 143.587966 11.2246154 141.961605 11.2246154M87.6017192 2.04307692C85.9753582 2.04307692 84.6446991 3.37230769 84.6446991 4.99692308 84.6446991 6.62153846 85.9753582 7.95076923 87.6017192 7.95076923 89.2280802 7.95076923 90.5587393 6.62153846 90.5587393 4.99692308 90.5587393 3.37230769 89.2280802 2.04307692 87.6017192 2.04307692M114.880229 11.2246154C113.253868 11.2246154 111.947851 12.5292308 111.947851 14.1538462L111.947851 19.2 111.947851 24.1723077 111.947851 33.9692308C111.947851 35.5938462 113.253868 36.8984615 114.880229 36.8984615 116.50659 36.8984615 117.812607 35.5938462 117.812607 33.9692308L117.812607 24.1723077 117.812607 19.2 117.812607 14.1538462C117.812607 12.5292308 116.50659 11.2246154 114.880229 11.2246154M114.904871 2.04307692C113.27851 2.04307692 111.947851 3.37230769 111.947851 4.99692308 111.947851 6.62153846 113.27851 7.95076923 114.904871 7.95076923 116.531232 7.95076923 117.861891 6.62153846 117.861891 4.99692308 117.861891 3.37230769 116.531232 2.04307692 114.904871 2.04307692M77.2275072 11.7169231L77.2275072 11.7169231C71.8802292 13.2923077 67.9621777 18.24 67.9621777 24.0984615L67.9621777 33.8953846C67.9621777 35.52 69.2681948 36.8246154 70.8945559 36.8246154 72.5209169 36.8246154 73.8269341 35.52 73.8269341 33.8953846L73.8269341 24.0984615C73.8269341 20.9230769 75.9461318 18.24 78.8292264 17.3538462L78.9031519 17.3292308C80.4555874 16.8615385 81.3426934 15.2369231 80.8744986 13.6861538 80.4063037 12.1353846 78.7799427 11.2492308 77.2275072 11.7169231M50.2200573 14.2030769C50.2200573 12.5784615 48.9140401 11.2738462 47.2876791 11.2738462 45.6613181 11.2738462 44.3553009 12.5784615 44.3553009 14.2030769L44.3553009 24C44.3553009 27.8892308 42.1868195 31.04 38.2934097 31.04 34.4 31.04 32.2315186 27.8892308 32.2315186 24L32.2315186 14.2030769C32.2315186 12.5784615 30.9255014 11.2738462 29.2991404 11.2738462 27.6727794 11.2738462 26.3667622 12.5784615 26.3667622 14.2030769L26.3667622 24C26.3667622 31.1138462 31.1719198 36.8984615 38.2934097 36.8984615 40.5851003 36.8984615 42.6303725 36.3076923 44.3553009 35.2492308L44.3553009 35.4215385C44.3553009 38.5969231 42.2361032 41.28 39.3530086 42.1661538L39.2790831 42.1907692 39.2790831 42.1907692C37.7266476 42.6584615 38.3180516 44.2830769 38.7862464 45.8338462 39.2544413 47.3846154 40.8808023 48.2707692 42.4332378 47.8030769 47.7805158 46.2276923 50.2446991 41.28 50.2446991 35.4215385L50.2446991 19.1753846C50.2446991 19.1261538 50.2446991 19.0769231 50.2446991 19.0276923L50.2446991 14.2030769 50.2200573 14.2030769zM105.146705.172307692L105.146705.172307692C99.7994269 1.74769231 95.8813754 6.69538462 95.8813754 12.5538462L95.8813754 33.8461538C95.8813754 35.4707692 97.1873926 36.7753846 98.8137536 36.7753846 100.440115 36.7753846 101.746132 35.4707692 101.746132 33.8461538L101.746132 19.2738462 103.175358 19.2738462 103.914613 19.2738462C105.540974 19.2738462 106.846991 17.9692308 106.846991 16.3446154 106.846991 14.72 105.540974 13.4153846 103.914613 13.4153846L103.175358 13.4153846 101.746132 13.4153846 101.746132 12.5538462C101.746132 9.37846154 103.86533 6.69538462 106.748424 5.80923077L106.82235 5.78461538C108.374785 5.31692308 109.261891 3.69230769 108.793696 2.14153846 108.325501.590769231 106.69914-.295384615 105.146705.172307692"/>
  </g>
</svg>
