<svg width="115" height="45" viewBox="0 0 115 45" fill="none" xmlns="http://www.w3.org/2000/svg">
<g clip-path="url(#clip0_534_8791)">
<path d="M23.6429 7.48219H33.0357C32.2143 5.69648 30.4286 4.46434 28.3393 4.46434C26.25 4.46434 24.4643 5.69648 23.6429 7.48219ZM28.3393 19.0893C23.125 19.0893 18.875 14.8393 18.875 9.62505C18.875 4.41077 23.125 0.160767 28.3393 0.160767C33.5536 0.160767 37.8036 4.41077 37.8036 9.62505C37.8036 10.8036 36.8393 11.7679 35.6607 11.7679H23.6607C24.4821 13.5536 26.2679 14.7858 28.3571 14.7858C29.5357 14.7858 30.5 15.7501 30.5 16.9286C30.5 18.1072 29.5179 19.0893 28.3393 19.0893Z" fill="#902092"/>
<path d="M56.5889 18.9643C55.4103 18.9643 54.446 18.0001 54.446 16.8215V9.62505C54.446 6.78577 52.1246 4.46434 49.2853 4.46434C46.446 4.46434 44.1246 6.78577 44.1246 9.62505V16.8215C44.1246 18.0001 43.1603 18.9643 41.9817 18.9643C40.8032 18.9643 39.8389 18.0001 39.8389 16.8215V9.62505C39.8389 4.41077 44.0889 0.160767 49.3032 0.160767C54.5174 0.160767 58.7674 4.41077 58.7674 9.62505V16.8215C58.7496 18.0001 57.7853 18.9643 56.5889 18.9643Z" fill="#902092"/>
<path d="M87.6967 18.9643C82.4824 18.9643 78.2324 14.7143 78.2324 9.50002V2.32145C78.2324 1.14287 79.1967 0.178589 80.3753 0.178589C81.5717 0.178589 82.5181 1.14287 82.5181 2.32145V9.51787C82.5181 12.3572 84.8396 14.6786 87.6789 14.6786C90.5181 14.6786 92.8396 12.3572 92.8396 9.51787V2.32145C92.8396 1.14287 93.8039 0.178589 94.9824 0.178589C96.161 0.178589 97.1253 1.14287 97.1253 2.32145V9.51787C97.161 14.7143 92.911 18.9643 87.6967 18.9643Z" fill="#902092"/>
<path d="M69.9642 7.87502C66.9284 7.23216 65.7141 6.9643 65.7141 5.85716C65.7141 4.75002 67.2677 4.14288 68.982 4.14288C69.8927 4.14288 70.7498 4.35716 71.4641 4.64287C71.7498 4.75002 72.0356 4.8393 72.357 4.8393C73.4641 4.8393 74.357 3.94644 74.357 2.8393C74.357 1.92859 73.7677 1.14287 72.9463 0.892875C71.8749 0.500017 70.5177 0.178589 68.982 0.178589C64.0534 0.178589 61.232 2.98216 61.232 5.80359C61.232 9.2143 64.3391 10.7322 67.9106 11.5C70.6427 12.0714 71.482 12.3036 71.482 13.4822C71.482 14.5893 69.9284 15.1072 68.0713 15.1072C66.3927 15.1072 65.1427 14.4286 64.0356 13.8572C64.0177 13.8572 64.0356 13.8572 64.0356 13.8572C63.8034 13.7679 63.4999 13.6786 63.232 13.6786C62.107 13.6786 61.1963 14.5893 61.1963 15.7143C61.1963 16.5179 61.6606 17.2143 62.3391 17.5357C63.7141 18.3214 65.6784 19.0893 68.232 19.0893C72.8213 19.0893 76.0891 16.625 76.0891 13.5357C76.0713 9.82144 73.5356 8.64288 69.9642 7.87502Z" fill="#902092"/>
<path d="M108.107 7.87502C105.071 7.23216 103.857 6.9643 103.857 5.85716C103.857 4.75002 105.411 4.14288 107.125 4.14288C108.036 4.14288 108.893 4.35716 109.607 4.64287C109.893 4.75002 110.178 4.8393 110.5 4.8393C111.607 4.8393 112.5 3.94644 112.5 2.8393C112.5 1.92859 111.911 1.17859 111.089 0.892875C110.018 0.500017 108.661 0.178589 107.125 0.178589C102.196 0.178589 99.3749 2.98216 99.3749 5.80359C99.3749 9.2143 102.482 10.7322 106.053 11.5C108.786 12.0714 109.625 12.3036 109.625 13.4822C109.625 14.5893 108.071 15.1072 106.214 15.1072C104.536 15.1072 103.25 14.4107 102.125 13.8393C102.107 13.8214 102.125 13.8393 102.125 13.8393C101.893 13.75 101.625 13.6786 101.357 13.6786C100.232 13.6786 99.3213 14.5893 99.3213 15.7143C99.3213 16.5179 99.8034 17.1964 100.464 17.5357C101.839 18.3214 103.803 19.0893 106.357 19.0893C110.946 19.0893 114.214 16.625 114.214 13.5357C114.214 9.82144 111.678 8.64288 108.107 7.87502Z" fill="#902092"/>
<path d="M9.53557 19.0893C4.32129 19.0893 0.0712891 14.8393 0.0712891 9.62505C0.0712891 4.41077 4.32129 0.160767 9.53557 0.160767C12.1427 0.160767 14.6606 1.26791 16.4463 3.17862C17.2498 4.05362 17.2141 5.41077 16.3391 6.21434C15.4641 7.01791 14.107 6.9822 13.3034 6.1072C12.3213 5.03577 10.9641 4.46434 9.53557 4.46434C6.69629 4.46434 4.37486 6.78577 4.37486 9.62505C4.37486 12.4643 6.69629 14.7858 9.53557 14.7858C10.982 14.7858 12.3213 14.1965 13.3034 13.1251C14.107 12.2501 15.4641 12.2143 16.3391 13.0179C17.2141 13.8215 17.2498 15.1786 16.4463 16.0536C14.6606 17.9822 12.1427 19.0893 9.53557 19.0893Z" fill="#902092"/>
<path opacity="0.7" d="M1.57129 42.9107V42.2143C1.57129 38.5 4.44629 36.8572 7.16057 35.5179C9.53557 34.3393 11.6606 33.4464 11.6606 31.5C11.6606 29.625 10.2856 28.5179 7.98201 28.5179C5.33915 28.5179 4.07129 30.1429 3.57129 31.9822C3.57129 32.0714 1.67844 32.0893 1.67844 30.5893C1.67844 29.6429 2.232 28.5179 3.32129 27.625C4.41057 26.7322 6.05343 26.0536 8.17843 26.0536C12.107 26.0536 14.482 28.0893 14.482 31.4464C14.482 34.6786 11.9106 35.9643 9.17844 37.2143C6.80344 38.2679 4.857 39.2857 4.37486 41.1964C4.32129 41.4464 4.26772 41.7322 4.26772 42H13.4284C14.3749 42 14.8034 42.3929 14.8034 43.125V43.2857C14.8034 44.0357 14.3927 44.4643 13.4284 44.4643H3.37487C2.10701 44.4643 1.57129 44.0536 1.57129 42.9107ZM16.7856 36.375V34.5357C16.7856 29.3214 19.6606 26.0536 24.2856 26.0536C28.982 26.0536 31.8213 29.2857 31.8213 34.5V36.3214C31.8213 41.5357 28.9463 44.8393 24.2856 44.8393C19.607 44.8393 16.7856 41.6072 16.7856 36.375ZM28.9463 36.4643V34.4464C28.9463 30.6429 27.2141 28.4107 24.2856 28.4107C21.357 28.4107 19.6784 30.5893 19.6784 34.375V36.4286C19.6784 40.2322 21.3749 42.3929 24.2856 42.3929C27.2856 42.4107 28.9463 40.25 28.9463 36.4643ZM34.232 42.9107V42.2143C34.232 38.5 37.107 36.8572 39.8213 35.5179C42.1963 34.3393 44.3213 33.4464 44.3213 31.5C44.3213 29.625 42.9463 28.5179 40.6427 28.5179C37.9999 28.5179 36.732 30.1429 36.232 31.9822C36.232 32.0714 34.3391 32.0893 34.3391 30.5893C34.3391 29.6429 34.8927 28.5179 35.982 27.625C37.0713 26.7322 38.7141 26.0536 40.8391 26.0536C44.7677 26.0536 47.1427 28.0893 47.1427 31.4464C47.1427 34.6786 44.5713 35.9643 41.8391 37.2143C39.4641 38.2679 37.5177 39.2857 37.0356 41.1964C36.982 41.4464 36.9284 41.7322 36.9284 42H46.0891C47.0356 42 47.4641 42.3929 47.4641 43.125V43.2857C47.4641 44.0357 47.0534 44.4643 46.0891 44.4643H36.0356C34.7499 44.4643 34.232 44.0536 34.232 42.9107ZM51.107 43.3572V43.2143C51.107 42.4107 51.5534 42.0357 52.4106 42.0357H55.4284V29.1786C54.3391 30.0357 53.8927 30.5536 53.357 30.9643C52.8034 31.4107 52.357 31.5714 51.8749 31.5714C50.9284 31.5714 50.3927 30.7679 50.3927 29.8214L55.7856 26.2857H56.7677C57.5713 26.2857 58.0534 26.7322 58.0534 27.5893L58.0177 42.0357H60.4463C61.3034 42.0357 61.7498 42.3929 61.7498 43.2143V43.3572C61.7498 44.1429 61.3034 44.4822 60.4463 44.4822H52.4106C51.5534 44.4643 51.107 44.1429 51.107 43.3572Z" fill="#902092"/>
</g>
<defs>
<clipPath id="clip0_534_8791">
<rect width="114.286" height="45" fill="white"/>
</clipPath>
</defs>
</svg>
