<svg xmlns="http://www.w3.org/2000/svg" viewBox="0 0 16 16"><defs><style>.c{fill:#003c57;}</style></defs><g id="a"/><g id="b"><g><circle class="c" cx="3.75" cy="12.25" r="1.75"/><path class="c" d="M3.14,6.01c-.55-.08-1.05,.3-1.13,.85-.08,.55,.3,1.05,.85,1.13,3.08,.44,4.71,2.08,5.15,5.15,.07,.5,.5,.86,.99,.86,.05,0,.09,0,.14-.01,.55-.08,.93-.58,.85-1.13-.56-3.92-2.93-6.29-6.85-6.85Z"/><path class="c" d="M3.09,2c-.55-.05-1.04,.36-1.09,.91-.05,.55,.36,1.04,.91,1.09,4.99,.45,8.64,4.11,9.09,9.09,.05,.52,.48,.91,1,.91,.03,0,.06,0,.09,0,.55-.05,.96-.54,.91-1.09C13.45,6.93,9.07,2.55,3.09,2Z"/></g></g></svg>