<svg width="59" height="59" viewBox="0 0 59 59" fill="none" xmlns="http://www.w3.org/2000/svg">
<g clip-path="url(#clip0_534_8790)">
<path d="M42.0712 18.6337C39.7212 20.3881 37.6746 22.6049 35.9656 24.8898C32.7248 29.2128 30.7081 33.723 29.9904 35.4845C29.7833 35.9894 29.6869 36.2547 29.6869 36.2547L29.216 37.5581L27.9821 36.9241C23.0508 34.3839 19.247 33.0692 16.5466 32.3671C15.2836 32.0328 13.9995 31.7835 12.7031 31.6211C12.9987 34.2462 13.9081 36.7649 15.3578 38.9734C16.8074 41.1818 18.7566 43.018 21.0476 44.3333C23.3386 45.6486 25.907 46.406 28.545 46.5444C31.1831 46.6828 33.8167 46.1982 36.2327 45.1298C38.6487 44.0615 40.7793 42.4393 42.452 40.3947C44.1248 38.35 45.2927 35.9403 45.8613 33.3605C46.4299 30.7806 46.3833 28.1032 45.7251 25.5448C45.0669 22.9863 43.8156 20.6188 42.0726 18.6337" fill="#003B61"/>
<path d="M12.5938 29.7305C12.5951 30.3622 12.6311 30.9933 12.7015 31.6211C13.8653 31.7648 15.0188 31.9822 16.155 32.2721C15.9943 31.4344 15.9131 30.5834 15.9125 29.7305C15.9125 29.7234 15.9125 29.712 15.9125 29.7049C16.3082 29.7915 16.7152 29.8893 17.1577 30.0028C19.8071 30.6921 23.3882 31.9203 27.8997 34.1485C29.1999 31.0886 30.7799 28.1554 32.6197 25.3862C34.5968 22.439 37.1468 19.3272 40.3081 16.8977C37.8598 14.8196 34.8679 13.4856 31.6858 13.0532C28.5037 12.6208 25.2643 13.108 22.3502 14.4573C19.436 15.8067 16.9689 17.9618 15.2401 20.6681C13.5113 23.3745 12.593 26.519 12.5938 29.7305Z" fill="#C1C600"/>
<path d="M0 29.4993C0 13.2073 13.2069 -0.00140381 29.5 -0.00140381C45.7931 -0.00140381 59 13.2058 59 29.4993C59 45.7928 45.7917 59 29.5 59C13.2083 59 0 45.7942 0 29.4993ZM9.11096 9.1112C4.3935 13.8282 1.45752 20.0351 0.803281 26.6742C0.149043 33.3134 1.81703 39.974 5.52303 45.5211C9.22903 51.0683 14.7437 55.1588 21.1275 57.0956C27.5113 59.0325 34.3691 58.6959 40.5326 56.1432C46.696 53.5905 51.7836 48.9796 54.9286 43.0961C58.0736 37.2127 59.0813 30.4208 57.7801 23.8777C56.4789 17.3345 52.9492 11.445 47.7925 7.2126C42.6358 2.98021 36.1711 0.666822 29.5 0.666617C25.7129 0.660877 21.962 1.40401 18.4631 2.85325C14.9642 4.3025 11.7863 6.42926 9.11238 9.1112" fill="#003B61"/>
<path d="M3.54611 33.7273C3.38868 32.8323 3.42272 32.0934 3.56596 31.6452L4.6637 31.865C4.53999 32.3013 4.5148 32.7596 4.58995 33.2067C4.70909 33.8875 5.12606 34.2846 5.62954 34.1996C6.82373 33.9911 5.95433 31.3913 7.89877 31.0481C8.99226 30.858 10.0659 31.6608 10.3254 33.1443C10.4532 33.7549 10.4322 34.3873 10.2644 34.9881L9.283 34.7754C9.40648 34.3816 9.43564 33.9642 9.3681 33.5571C9.25748 32.9231 8.85611 32.5642 8.37531 32.6437C7.16978 32.8564 8.15406 35.5625 6.03517 35.9327C4.87786 36.1355 3.80707 35.2377 3.54327 33.7343" fill="#003B61"/>
<path d="M11.7761 40.0728L6.90147 42.7165L6.10156 41.2429L10.9747 38.5963L10.2656 37.29L11.1237 36.8234L13.3432 40.9152L12.4852 41.379L11.7761 40.0728Z" fill="#003B61"/>
<path d="M13.2208 50.0548L13.815 48.6138L12.089 47.0536L10.7189 47.7997L9.52051 46.7203L15.7978 43.6001L17.0033 44.6836L14.5596 51.2561L13.2208 50.0548ZM15.1326 45.7587C15.2469 45.4981 15.3796 45.2459 15.5297 45.0042L15.5141 44.9914C15.2904 45.1658 15.0533 45.3223 14.805 45.4595L12.8194 46.5941L14.2136 47.8493L15.1326 45.7587Z" fill="#003B61"/>
<path d="M22.5049 48.9371L20.4016 54.07L18.8486 53.4346L20.9505 48.3003L19.5734 47.7358L19.9435 46.8324L24.2522 48.5967L23.8821 49.5002L22.5049 48.9371Z" fill="#003B61"/>
<path d="M26.6485 48.9857L25.9658 55.4698L27.6245 55.6445L28.3072 49.1603L26.6485 48.9857Z" fill="#003B61"/>
<path d="M33.9254 55.4727C33.0291 55.6329 32.2902 55.6031 31.8406 55.4599L32.0533 54.3621C32.4904 54.4844 32.9492 54.5077 33.3964 54.4302C34.0772 54.3082 34.4743 53.8884 34.3892 53.3849C34.175 52.1907 31.5768 53.0729 31.2265 51.1156C31.0307 50.0221 31.8292 48.9456 33.3142 48.679C33.9242 48.5489 34.5567 48.5679 35.1579 48.7343L34.9494 49.7158C34.5551 49.5947 34.138 49.567 33.7311 49.6349C33.0957 49.7484 32.7383 50.1512 32.822 50.6363C33.0376 51.839 35.7408 50.8447 36.1209 52.9623C36.328 54.1196 35.4345 55.1947 33.9311 55.467" fill="#003B61"/>
<path d="M40.2348 47.2011L42.9096 52.0602L41.4403 52.8673L38.764 48.011L37.4607 48.7272L36.9912 47.872L41.0673 45.6282L41.5396 46.4835L40.2348 47.2011Z" fill="#003B61"/>
<path d="M47.4884 48.6223L42.8818 44.0099L44.0633 42.8313L48.6684 47.4437L47.4884 48.6223Z" fill="#003B61"/>
<path d="M53.0932 41.3549C52.1146 43.1547 50.1829 43.3122 48.6242 42.464C47.0911 41.6286 46.1465 39.9111 47.1237 38.1155C47.4783 37.4659 47.8669 37.0503 48.2583 36.8319L48.8866 37.5822C48.6183 37.7727 48.3995 38.0246 48.2484 38.3169C47.6683 39.382 48.437 40.3734 49.4525 40.9251C50.468 41.4769 51.7217 41.4925 52.2621 40.4897C52.4252 40.2175 52.512 39.9064 52.5131 39.5891L53.5612 39.7068C53.5811 40.1323 53.4464 40.7124 53.096 41.3549" fill="#003B61"/>
<path d="M55.5257 33.9443C55.3839 34.8435 55.113 35.5285 54.8336 35.9086L53.8663 35.3413C54.1253 34.9686 54.2974 34.5426 54.3698 34.0946C54.4776 33.4124 54.2124 32.9004 53.7061 32.8181C52.509 32.6295 52.4906 35.3711 50.5334 35.0647C49.4399 34.8903 48.6896 33.7882 48.9166 32.2948C48.9964 31.6781 49.2209 31.0891 49.5718 30.5758L50.4298 31.0949C50.1861 31.4277 50.0234 31.8128 49.9547 32.2196C49.8554 32.8564 50.1164 33.3273 50.6029 33.4039C51.8112 33.5939 51.7559 30.7204 53.8805 31.0523C55.0406 31.2381 55.764 32.4323 55.5257 33.94" fill="#003B61"/>
<path d="M11.7232 21.1171L6.43589 22.4971C6.18494 22.5628 5.93009 22.6125 5.67286 22.6461L5.66577 22.6645C5.66577 22.6645 6.03168 22.7694 6.40469 22.9099L10.478 24.4374L10.1163 25.4047L4.00781 23.1169L4.41627 22.0263L9.39723 20.7058C9.65228 20.6358 9.91202 20.5841 10.1744 20.5512V20.5328C10.1744 20.5328 9.81563 20.4378 9.44971 20.303L5.59769 18.8578L5.96361 17.8834L12.0707 20.1711L11.7232 21.1171Z" fill="#003B61"/>
<path d="M16.5811 14.7489L14.8465 14.0284L13.0652 15.9049L13.8708 17.6068L13.0354 18.4862L10.1436 12.0542L10.9406 11.2145L17.5015 13.776L16.5811 14.7489ZM11.9561 12.708C11.6888 12.5944 11.43 12.4617 11.1817 12.3109L11.1704 12.3251C11.3321 12.5659 11.4771 12.8175 11.6044 13.0782L12.7191 15.3163L14.2423 13.7164L11.9561 12.708Z" fill="#003B61"/>
<path d="M18.5027 6.71851L21.135 11.8698L20.0316 12.4357L17.395 7.28299L15.9342 8.03044L15.5967 7.37235L19.6345 5.30872L19.9706 5.96681L18.5027 6.71851Z" fill="#003B61"/>
<path d="M24.9686 3.86313L23.7422 4.10931L25.0258 10.5045L26.2523 10.2583L24.9686 3.86313Z" fill="#003B61"/>
<path d="M31.7794 10.2543C29.7342 10.0217 29.0024 8.39353 29.2123 6.5469C29.4222 4.70027 30.4987 3.2763 32.5438 3.50606C34.589 3.73583 35.308 5.3768 35.0967 7.21209C34.8854 9.04737 33.8203 10.4855 31.7751 10.2543H31.7794ZM32.4587 4.25351C31.2022 4.11168 30.6348 5.41084 30.493 6.65328C30.3512 7.89571 30.5781 9.27855 31.8687 9.42606C33.1594 9.57356 33.6799 8.26447 33.8203 7.03054C33.9607 5.79662 33.7125 4.39534 32.4587 4.25351Z" fill="#003B61"/>
<path d="M40.8817 13.4725L40.3682 8.03185C40.3442 7.77305 40.3366 7.51297 40.3456 7.25321L40.3285 7.2447C40.3285 7.2447 40.164 7.58793 39.9683 7.93257L37.804 11.7109L36.9062 11.2032L40.147 5.52997L41.1611 6.11005L41.6674 11.2386C41.6956 11.5014 41.7046 11.7659 41.6943 12.0301L41.7099 12.04C41.7099 12.04 41.8603 11.701 42.0546 11.362L44.0983 7.79925L45.0031 8.31693L41.7624 13.9788L40.8817 13.4725Z" fill="#003B61"/>
<path d="M46.4133 19.3145L47.4061 17.716L45.8389 15.6524L44.0335 16.1786L43.2988 15.2099L50.1065 13.386L50.8057 14.3064L47.2289 20.3796L46.4133 19.3145ZM49.1733 15.0737C49.3281 14.8275 49.5007 14.5929 49.6895 14.3717L49.6782 14.3561C49.4142 14.4786 49.1416 14.5819 48.8627 14.6653L46.4715 15.4085L47.8089 17.1686L49.1733 15.0737Z" fill="#003B61"/>
<path d="M47.9414 22.4546L54.1733 20.5243L54.4796 21.6164L49.0746 23.2701L49.7738 25.4302L48.9498 25.7067L47.9414 22.4546Z" fill="#003B61"/>
</g>
<defs>
<clipPath id="clip0_534_8790">
<rect width="59" height="59" fill="white"/>
</clipPath>
</defs>
</svg>
