<?xml version="1.0" encoding="utf-8"?>
<!-- Generator: Adobe Illustrator 21.0.2, SVG Export Plug-In . SVG Version: 6.00 Build 0)  -->
<svg version="1.1" id="Layer_1" xmlns="http://www.w3.org/2000/svg" xmlns:xlink="http://www.w3.org/1999/xlink" x="0px" y="0px"
	 viewBox="0 0 636.9 128.9" style="enable-background:new 0 0 636.9 128.9;" xml:space="preserve">
<style type="text/css">
	.st0{fill:#A8BD3A;}
	.st1{fill:#003D59;}
</style>
<g>
	<g>
		<path class="st0" d="M0,70.6c1.8-3.6,3.6-7.2,5.6-10.7C3.3,54.4,1.5,48.6,0,42.7C0,52.3,0,62.6,0,70.6z M10.9,0C10.9,0,0,0,0,13.5
			c0,0.9,0,3.5,0,7.2C1.1,33,3.6,45,7.9,56.2c6.1-9.6,13.4-18.4,22.3-26C47.9,15.1,71.6,4.6,103.9,0H10.9z"/>
		<path class="st1" d="M116,7.4c-36.9,3.5-62.1,14-80.1,29.5c-9.7,8.3-17.4,18-23.6,29.1c14.1,27.5,41.1,47.6,86.1,50.6l4.4,0
			c0,0,13.8,0.5,13.8-14.9V7.3C116.4,7.3,116.2,7.3,116,7.4z M21.3,85.6c-4.2-5-7.9-10.3-11-16C6.3,77,3,85.1,0,93.6
			c0,13.2,0,22.7,0,22.7l73.7,0.1C50.7,110.9,33.5,99.9,21.3,85.6z"/>
	</g>
	<g>
		<path class="st1" d="M153.5,52.3c-4.5,0-8.3-1-10.3-2.2l1.5-3.5c1.7,0.9,4.7,1.9,8,1.9c5.4,0,9.4-3.3,9.4-8
			c0-10.1-17.9-5.9-17.9-18.7c0-6,4.9-11.4,12.7-11.4c4,0,7.4,1.1,9.2,2.2l-1.3,3.2c-1.5-0.9-4.4-1.9-7.3-1.9c-5,0-8.3,3.1-8.3,7.6
			c0,9.7,18.1,5.4,18.1,18.8C167.1,47.3,161.4,52.3,153.5,52.3z"/>
		<path class="st1" d="M204.8,51.6h-4.1l-7.2-23.3c-0.6-1.9-0.9-3.8-0.9-3.8h-0.1c0,0-0.2,1.9-0.8,3.8l-7.4,23.3h-4.2L170.2,20h4.9
			l6.5,23.2c0.6,2.1,0.8,4,0.8,4h0.1c0,0,0.2-1.9,0.9-4l7.2-23.2h4.3l7,23.2c0.5,1.8,0.9,4,0.9,4h0.1c0,0,0.3-2.3,0.8-4l6.6-23.2
			h4.4L204.8,51.6z"/>
		<path class="st1" d="M228.8,64.2h-5.1l5.7-12.6L217.7,20h5.1l7.6,23.3c0.7,2.1,1.1,4.3,1.1,4.3h0.1c0,0,0.5-2.2,1.2-4.3l7.8-23.3
			h4.3L228.8,64.2z"/>
		<path class="st1" d="M263,52.3c-10,0-15-6.2-15-16c0-10.5,6-16.9,15-16.9c2.2,0,4.3,0.3,5.9,0.7V5.6h4.6v44.6
			C271.3,51.4,267.7,52.3,263,52.3z M268.9,22.7c-1.4-0.4-3.1-0.5-4.9-0.5c-8.2,0-11.3,6.8-11.3,13.7c0,8,3.1,13.3,10.6,13.3
			c2.4,0,4.5-0.5,5.6-1.2V22.7z"/>
		<path class="st1" d="M294.6,52.3c-10,0-15-6.2-15-16c0-10.5,6-16.9,15-16.9c2.2,0,4.3,0.3,5.9,0.7V5.6h4.6v44.6
			C302.8,51.4,299.2,52.3,294.6,52.3z M300.4,22.7c-1.4-0.4-3.1-0.5-4.9-0.5c-8.2,0-11.3,6.8-11.3,13.7c0,8,3.1,13.3,10.6,13.3
			c2.4,0,4.5-0.5,5.6-1.2V22.7z"/>
		<path class="st1" d="M319.8,22.8v28.8h-4.6V22.8h-4.7V20h4.7v-4.6c0-5.7,3.4-9.9,10.1-9.9c0.5,0,1.1,0.1,1.1,0.1v2.9h-0.5
			c-3.2,0-6,2.1-6,6.4V20h6.6v2.8H319.8z"/>
		<path class="st1" d="M341.6,52.3c-8.8,0-12.7-3.7-12.7-9.3c0-8.6,8.9-11,19.6-12v-1.9c0-5.1-3.4-6.7-8.1-6.7c-3,0-6.3,0.9-8.2,1.8
			l-1.2-2.8c2-0.9,5.9-2.2,10.2-2.2c6.4,0,11.7,2.6,11.7,10.3v20.7C350.2,51.5,346.3,52.3,341.6,52.3z M348.4,33.5
			c-9.1,1.1-15.1,2.6-15.1,9.4c0,4.7,3.4,6.7,8.7,6.7c2.6,0,4.9-0.5,6.4-1.3V33.5z"/>
		<path class="st1" d="M160.9,98v17.5h-7.1V98l-12.3-22.8h7.5l8.6,17.2h0.1l8.8-17.2h6.8L160.9,98z"/>
		<path class="st1" d="M184.7,116.3c-3.9,0-7.7-1.1-9.5-2.3l1.8-4.3c1.3,0.9,4,1.9,6.9,1.9c3.4,0,6.2-2.2,6.2-4.9
			c0-7.5-13.9-4-13.9-14.3c0-4.7,4.2-9.3,11-9.3c3.9,0,6.7,1,8.9,2.3l-1.8,3.9c-1-0.7-3.1-1.8-5.8-1.8c-3.5,0-5.7,2.1-5.7,4.5
			c0,7,14.1,3.9,14.1,14.5C197.1,111.5,192.3,116.3,184.7,116.3z"/>
		<path class="st1" d="M214.2,116.2c-6.6,0-9.2-4.3-9.2-8.6V88h-4.4v-4.1h4.4v-7.1l6.7-1.9v9h6.1V88h-6.1v19.3
			c0,2.5,1.5,4.4,4.3,4.4c0.6,0,1.2-0.1,1.8-0.3v4.2C217.3,115.9,215.9,116.2,214.2,116.2z"/>
		<path class="st1" d="M235.2,116.3c-9.3,0-13.6-3.7-13.6-9.7c0-8.5,8.9-10.8,19.5-11.7v-1.8c0-4.3-3-5.6-7.3-5.6
			c-3.1,0-6.6,0.9-8.6,1.8l-1.6-3.9c2.2-0.9,6.4-2.3,11.4-2.3c7,0,12.4,2.9,12.4,11v20C244.7,115.4,240.5,116.3,235.2,116.3z
			 M241.1,98c-7.8,0.8-13,2.3-13,8.4c0,4.3,3,6.1,7.8,6.1c2.2,0,4.1-0.5,5.3-1.1V98z"/>
		<path class="st1" d="M268.8,116.3c-10.2,0-15.8-5.9-15.8-16.2c0-10.4,6.1-16.8,15-16.8c2.2,0,4.2,0.3,5.6,0.6V69.5h6.7V114
			C277.8,115.4,274,116.3,268.8,116.3z M273.6,87.6c-1.2-0.3-2.5-0.5-4-0.5c-7,0-9.7,5.9-9.7,12.6c0,7.7,2.7,12.2,9.1,12.2
			c1.9,0,3.7-0.5,4.6-1V87.6z"/>
		<path class="st1" d="M292.5,102.1c0.6,6.3,4.1,9.4,9.9,9.4c3.9,0,7.1-0.9,8.9-1.8l1.6,4.3c-2.2,1.1-6,2.3-11.1,2.3
			c-9.6,0-15.8-5.9-15.8-16.7c0-10.4,5.8-16.5,14.5-16.5c8.8,0,13.6,5.6,13.6,16.2L292.5,102.1z M300.2,87.2
			c-4.6,0-8.3,3.7-8.1,11.5l15.5-2.2C307.6,90.1,304.6,87.2,300.2,87.2z"/>
		<path class="st1" d="M331.7,128.9c-5.1,0-9.4-1.1-11.8-2.2l1.8-4.3c1.9,0.9,5.6,1.8,9.1,1.8c5.9,0,8.5-3,8.5-7.4v-2
			c-1.4,0.8-3.9,1.3-7,1.3c-8.2,0-13.7-6-13.7-15.6c0-10.2,5.6-17.3,16.4-17.3c4.7,0,8.9,1.1,11,2.3v30.7
			C345.9,124.4,340.1,128.9,331.7,128.9z M339.2,88.1c-1-0.5-2.5-1-4.6-1c-6.1,0-9.2,5-9.2,13c0,7.8,3,12,8.8,12
			c1.9,0,3.8-0.4,5-1.1V88.1z"/>
		<path class="st1" d="M364.9,116.3c-9.3,0-13.6-3.7-13.6-9.7c0-8.5,8.9-10.8,19.5-11.7v-1.8c0-4.3-3-5.6-7.3-5.6
			c-3.1,0-6.6,0.9-8.6,1.8l-1.6-3.9c2.2-0.9,6.4-2.3,11.4-2.3c7,0,12.4,2.9,12.4,11v20C374.4,115.4,370.1,116.3,364.9,116.3z
			 M370.7,98c-7.8,0.8-13,2.3-13,8.4c0,4.3,3,6.1,7.8,6.1c2.2,0,4.1-0.5,5.3-1.1V98z"/>
		<path class="st1" d="M396.6,116.3c-8.9,0-12.9-4.2-12.9-10.9V83.9h6.7v21.9c0,3.3,2.1,5.9,6.5,5.9c2.5,0,4.5-0.4,5.8-1.1V83.9h6.7
			V114C407,115.3,402.4,116.3,396.6,116.3z"/>
		<path class="st1" d="M450.6,116.3c-11.6,0-19.5-7.4-19.5-21.2c0-13.1,8.5-20.7,19.8-20.7c5.3,0,8.7,1.1,10.9,2.3l-1.7,4.3
			c-1.3-0.8-4.6-1.5-8.3-1.5c-7.7,0-13.4,4.8-13.4,16c0,10.6,5.3,16.1,11.9,16.1c2.5,0,4.6-0.4,5.6-0.9V96.7h-7.1v-4.2h13.9V114
			C460.1,115.4,456.1,116.3,450.6,116.3z"/>
		<path class="st1" d="M504.3,115.5H498l-6.2-20.6c-0.6-2-0.8-4.1-0.8-4.1h-0.1c0,0-0.2,2.1-0.8,4.1l-6.4,20.6h-6.3l-9.7-31.6h7
			l5.6,21.1c0.6,2.3,0.8,4.3,0.8,4.3h0.1c0,0,0.2-2,0.9-4.3l6.3-21.1h5.9l6.1,21.1c0.6,2.1,0.9,4.3,0.9,4.3h0.1c0,0,0.2-2.3,0.8-4.3
			l5.7-21.1h6.2L504.3,115.5z"/>
		<path class="st1" d="M518.8,115.5v-46h6.7v19.9v26.1H518.8z"/>
		<path class="st1" d="M544.8,116.3c-9.3,0-13.6-3.7-13.6-9.7c0-8.5,8.9-10.8,19.5-11.7v-1.8c0-4.3-3-5.6-7.3-5.6
			c-3.1,0-6.6,0.9-8.6,1.8l-1.6-3.9c2.2-0.9,6.4-2.3,11.4-2.3c7,0,12.4,2.9,12.4,11v20C554.3,115.4,550,116.3,544.8,116.3z
			 M550.6,98c-7.8,0.8-13,2.3-13,8.4c0,4.3,3,6.1,7.8,6.1c2.2,0,4.1-0.5,5.3-1.1V98z"/>
		<path class="st1" d="M578.4,116.3c-10.2,0-15.8-5.9-15.8-16.2c0-10.4,6.1-16.8,15-16.8c2.2,0,4.2,0.3,5.6,0.6V69.5h6.7V114
			C587.4,115.4,583.5,116.3,578.4,116.3z M583.2,87.6c-1.2-0.3-2.5-0.5-4-0.5c-7,0-9.7,5.9-9.7,12.6c0,7.7,2.7,12.2,9.1,12.2
			c1.9,0,3.7-0.5,4.6-1V87.6z"/>
		<path class="st1" d="M610,116.3c-9.6,0-14.4-7.1-14.4-16.6c0-9.4,4.8-16.6,14.4-16.6c9.6,0,14.4,7.2,14.4,16.6
			C624.3,109.2,619.6,116.3,610,116.3z M610,87.4c-5.8,0-7.5,6.1-7.5,12.2c0,6.2,1.8,12,7.5,12c5.8,0,7.5-5.9,7.5-12
			C617.5,93.5,615.8,87.4,610,87.4z"/>
		<path class="st1" d="M630.2,115.5V86.1V69.5h6.7v46H630.2z"/>
	</g>
</g>
</svg>
