<?xml version="1.0" encoding="utf-8"?>
<!-- Generator: Adobe Illustrator 24.1.0, SVG Export Plug-In . SVG Version: 6.00 Build 0)  -->
<svg version="1.1" id="Layer_1" xmlns="http://www.w3.org/2000/svg" xmlns:xlink="http://www.w3.org/1999/xlink" x="0px" y="0px"
	 viewBox="0 0 448 252" style="enable-background:new 0 0 448 252;" xml:space="preserve">
<style type="text/css">
	.st0{fill:url(#SVGID_1_);}
	.st1{fill:#0A0B0B;}
	.st2{fill:#FBC900;}
	.st3{fill:#005253;}
	.st4{fill:#007A7D;}
	.st5{fill:#008080;}
	.st6{fill:#FFFFFF;}
	.st7{fill:#00A3A6;}
	.st8{fill:none;stroke:#008080;stroke-width:12;stroke-linecap:round;stroke-linejoin:round;stroke-miterlimit:10;}
	
		.st9{fill:none;stroke:#FFFFFF;stroke-width:7;stroke-linecap:round;stroke-linejoin:round;stroke-miterlimit:10;stroke-dasharray:6,23;}
	.st10{fill:none;stroke:#FFFFFF;stroke-width:11.3251;stroke-miterlimit:10;}
	.st11{fill:none;stroke:#00A3A6;stroke-width:44;stroke-miterlimit:10;}
	.st12{fill:none;stroke:#008080;stroke-width:44;stroke-miterlimit:10;}
	.st13{fill:#008080;stroke:#025253;stroke-width:44;stroke-miterlimit:10;}
	.st14{fill:none;stroke:#003C57;stroke-width:44;stroke-miterlimit:10;}
	.st15{fill:#E2BC22;}
	.st16{fill:#00A5A1;}
	.st17{fill:#025253;}
	.st18{fill:#003C57;}
	
		.st19{fill:none;stroke:#FFFFFF;stroke-width:4;stroke-linecap:round;stroke-linejoin:round;stroke-miterlimit:10;stroke-dasharray:3,11;}
	.st20{fill:#206095;}
	.st21{fill:none;stroke:#D0D2D3;stroke-linecap:round;stroke-linejoin:round;stroke-miterlimit:10;stroke-dasharray:4,4;}
	.st22{fill:#A8BD3A;}
	.st23{fill:#0F8243;}
	.st24{fill:#F0F762;}
	.st25{fill:#FE781F;}
	.st26{fill:#D0021B;}
	.st27{fill:#27A0CC;}
	.st28{fill:#3C388E;}
	.st29{fill:#902082;}
	.st30{fill:#DF0667;}
	.st31{fill:url(#SVGID_2_);}
	.st32{opacity:0.7;fill:#FFFFFF;}
	.st33{opacity:0.1;fill:#FFFFFF;}
	.st34{opacity:0.5;}
	.st35{fill:none;stroke:#FFFFFF;stroke-width:3.5;stroke-linecap:round;stroke-linejoin:round;stroke-miterlimit:10;}
	.st36{fill:url(#SVGID_3_);}
	.st37{fill:none;stroke:#FFFFFF;stroke-width:2;stroke-linecap:round;stroke-linejoin:round;stroke-miterlimit:10;}
	.st38{fill:none;stroke:#003C57;stroke-width:5;stroke-linecap:round;stroke-linejoin:round;stroke-miterlimit:10;}
	.st39{fill:none;stroke:#003C57;stroke-width:4;stroke-linecap:round;stroke-linejoin:round;stroke-miterlimit:10;}
	.st40{fill:#FFFFFF;stroke:#003C57;stroke-width:4;stroke-linecap:round;stroke-linejoin:round;stroke-miterlimit:10;}
	.st41{fill:none;stroke:#003C57;stroke-width:8;stroke-linecap:round;stroke-linejoin:round;stroke-miterlimit:10;}
	.st42{fill:#FFFFFF;stroke:#003C57;stroke-width:8;stroke-linecap:round;stroke-linejoin:round;stroke-miterlimit:10;}
</style>
<rect x="-8.8" y="-6.2" class="st20" width="461" height="264.4"/>
<rect x="-8.8" y="-6.2" class="st20" width="461" height="264.4"/>
<rect x="-8.8" y="-6.2" class="st20" width="461" height="264.4"/>
<polyline class="st6" points="259.6,196.1 134.7,196.1 134.7,85.4 "/>
<path class="st18" d="M142.3,49.2c-8.1,0-14.7,6.6-14.7,14.7v124.3c0,8.1,6.6,14.6,14.6,14.6h113.4h50c8.1,0,14.6-6.6,14.6-14.6
	V63.9c0-8.1-6.6-14.7-14.7-14.7H142.3z"/>
<circle class="st20" cx="148.3" cy="71" r="6.9"/>
<circle class="st20" cx="169" cy="71" r="6.9"/>
<circle class="st20" cx="189.6" cy="71" r="6.9"/>
<path class="st6" d="M258.6,194.1H142.3c-3.3,0-5.9-2.7-5.9-5.9V87.6h175.1v100.5c0,3.3-2.7,5.9-5.9,5.9H258.6z"/>
<line class="st41" x1="162.1" y1="109.4" x2="224.9" y2="109.4"/>
<line class="st41" x1="162.1" y1="172" x2="282.2" y2="172"/>
<g>
	<polyline class="st41" points="169.3,147.1 201.4,134.9 230.9,143.4 263.8,128.9 	"/>
	<circle class="st42" cx="169.8" cy="146.7" r="7.3"/>
	<circle class="st42" cx="201.9" cy="135" r="7.3"/>
	<circle class="st42" cx="230.5" cy="143.2" r="7.3"/>
	<circle class="st42" cx="263.8" cy="128.9" r="7.3"/>
</g>
</svg>
