<svg xmlns="http://www.w3.org/2000/svg" width="52" height="52" viewBox="0 0 52 52">
  <g fill="#F1F1F1" fill-rule="evenodd">
    <path d="M45.8611111,0.361111111 L6.13888889,0.361111111 C2.96111111,0.361111111 0.361111111,2.96111111 0.361111111,6.13888889 L0.361111111,45.8611111 C0.361111111,49.0388889 2.96111111,51.6388889 6.13888889,51.6388889 L45.8611111,51.6388889 C49.0388889,51.6388889 51.6388889,49.0388889 51.6388889,45.8611111 L51.6388889,6.13888889 C51.6388889,2.96111111 49.0388889,0.361111111 45.8611111,0.361111111 Z M45.8611111,45.8611111 L6.13888889,45.8611111 L6.13888889,6.13888889 L45.8611111,6.13888889 L45.8611111,45.8611111 Z"/>
    <path d="M19.8611111,35.75 C20.4388889,36.3277778 21.1611111,36.6166667 21.8833333,36.6166667 C22.6055556,36.6166667 23.3277778,36.3277778 23.9055556,35.75 L38.8555556,20.8 C40.0111111,19.6444444 40.0111111,17.8388889 38.8555556,16.6833333 C37.7,15.5277778 35.8944444,15.5277778 34.7388889,16.6833333 L21.8833333,29.6111111 L17.1888889,24.9166667 C16.0333333,23.7611111 14.2277778,23.7611111 13.0722222,24.9166667 C11.9166667,26.0722222 11.9166667,27.8777778 13.0722222,29.0333333 L19.8611111,35.75 Z"/>
  </g>
</svg>
