<?xml version="1.0" encoding="utf-8"?>
<!-- Generator: Adobe Illustrator 22.1.0, SVG Export Plug-In . SVG Version: 6.00 Build 0)  -->
<svg version="1.1" id="Layer_1" xmlns="http://www.w3.org/2000/svg" xmlns:xlink="http://www.w3.org/1999/xlink" x="0px" y="0px"
	 viewBox="0 0 300 1000" style="enable-background:new 0 0 300 1000;" xml:space="preserve">
<style type="text/css">
	.st0{fill:none;stroke:#706F6F;stroke-width:2;stroke-linecap:round;stroke-linejoin:round;stroke-miterlimit:10;}
	.st1{fill:#706F6F;}
	.st2{fill:none;stroke:#706F6F;stroke-width:5;stroke-linejoin:round;stroke-miterlimit:10;}
	.st3{fill:none;stroke:#F1F2F2;stroke-width:2;stroke-linecap:round;stroke-linejoin:round;stroke-miterlimit:10;}
	.st4{fill:#F1F2F2;}
	.st5{fill:none;stroke:#F1F2F2;stroke-width:5;stroke-linejoin:round;stroke-miterlimit:10;}
	.st6{fill:none;stroke:#706F6F;stroke-linecap:round;stroke-linejoin:round;stroke-miterlimit:10;}
	.st7{fill:#B21F2B;}
	.st8{fill:#FFFFFF;}
	.st9{fill:none;stroke:#F9F9F9;stroke-width:2;stroke-linecap:round;stroke-miterlimit:10;}
	.st10{fill:none;stroke:#F9F9F9;stroke-linecap:round;stroke-miterlimit:10;}
	.st11{fill:#F9F9F9;}
	.st12{fill:#3C7A9F;stroke:#F1F2F2;stroke-width:2;stroke-miterlimit:10;}
	.st13{fill:#3C7A9F;stroke:#F1F2F2;stroke-miterlimit:10;}
	.st14{fill:none;stroke:#706F6F;stroke-linejoin:round;stroke-miterlimit:10;}
	.st15{fill:none;stroke:#F1F2F2;stroke-linecap:round;stroke-linejoin:round;stroke-miterlimit:10;}
	.st16{fill:none;stroke:#F1F2F2;stroke-linejoin:round;stroke-miterlimit:10;}
	.st17{fill:none;stroke:#F6F6F6;stroke-width:2;stroke-linecap:round;stroke-linejoin:round;stroke-miterlimit:10;}
	.st18{fill:none;stroke:#F6F6F6;stroke-linecap:round;stroke-linejoin:round;stroke-miterlimit:10;}
	.st19{fill:none;stroke:#F1F2F2;stroke-width:2;stroke-miterlimit:10;}
	.st20{fill:none;stroke:#F1F2F2;stroke-width:2;stroke-linecap:round;stroke-miterlimit:10;}
</style>
<g>
	<path class="st0" d="M48,32L32,16 M32,16L16,32"/>
</g>
<g>
	<path class="st0" d="M16,48l16,16 M32,64l16-16"/>
</g>
<path class="st0" d="M48,111H16 M35.5,88.3H24.1 M24.1,88.3v16 M24.1,104.3h16 M40.1,104.3V93.5 M40.1,93.5l-4.5-5.2 M40.1,93.5
	h-4.8 M35.3,93.5v-5.2 M23.5,98.9h-3.7 M44.2,98.9h-3.7 M44.2,98.9l3.8,3.8 M19.8,98.9l-3.8,3.8 M48,102.7v8.3 M16,102.7v8.3"/>
<path class="st1" d="M40.1,93.5l-4.6-5.2l0.1,5.2"/>
<g>
	<path class="st0" d="M40.3,145.2v-8.5 M40.3,136.7h-8.5 M40.3,136.7l-13.7,13.7 M36,160H16.1 M16,159.9V141 M16.1,141h11.4
		 M36,159.9v-9.5"/>
</g>
<g>
	<path class="st0" d="M16,199l6,6 M22,205l6-6 M22,205v-18 M16,208h12"/>
</g>
<g>
	<path class="st0" d="M16,232h32 M16,240h32 M16,248h32 M16,256h32 M16,256v-24 M48,256v-24 M40,256v-24 M32,256v-24 M24,256v-24"/>
	<path class="st2" d="M40,228v4 M24,228v4"/>
</g>
<path class="st0" d="M32.8,302.7c0-8.6-6.9-15.5-15.5-15.5 M38,302.7c0-11.4-9.3-20.7-20.7-20.7 M27.6,302.7
	c0-5.7-4.6-10.4-10.4-10.4"/>
<circle class="st1" cx="18.6" cy="301.4" r="2.6"/>
<g>
	<path class="st3" d="M112,31.9l-16-16 M96,15.9l-16,16"/>
</g>
<g>
	<path class="st0" d="M18,512.1l16-16 M34,496.1l-16-16"/>
</g>
<g>
	<path class="st3" d="M82,511.9l16-16 M98,495.9l-16-16"/>
</g>
<g>
	<path class="st0" d="M34,544.1l-16,16 M18,560.1l16,16"/>
</g>
<g>
	<path class="st3" d="M98,543.9l-16,16 M82,559.9l16,16"/>
</g>
<g>
	<path class="st3" d="M80,47.9l16,16 M96,63.9l16-16"/>
</g>
<path class="st3" d="M112,110.8H80 M99.5,88.2H88.1 M88.1,88.2v16 M88.1,104.2h16 M104.1,104.2V93.3 M104.1,93.3l-4.5-5.1
	 M104.1,93.3h-4.8 M99.3,93.3v-5.1 M87.5,98.8h-3.7 M108.2,98.8h-3.7 M108.2,98.8l3.8,3.8 M83.8,98.8l-3.8,3.8 M112,102.6v8.2
	 M80,102.6v8.2"/>
<path class="st4" d="M104.1,93.3l-4.6-5.1l0.1,5.1"/>
<g>
	<path class="st3" d="M104.3,145.1v-8.5 M104.3,136.6h-8.5 M104.3,136.6l-13.7,13.7 M100,159.9H80.1 M80,159.8v-18.9 M80.1,140.9
		h11.4 M100,159.8v-9.5"/>
</g>
<g>
	<path class="st3" d="M80,198.9l6,6 M86,204.9l6-6 M86,204.9v-18 M80,207.9h12"/>
</g>
<g>
	<path class="st3" d="M80,231.9h32 M80,239.9h32 M80,247.9h32 M80,255.9h32 M80,255.9v-24 M112,255.9v-24 M104,255.9v-24 M96,255.9
		v-24 M88,255.9v-24"/>
	<path class="st5" d="M104,227.9v4 M88,227.9v4"/>
</g>
<path class="st3" d="M96.8,302.6c0-8.6-6.9-15.5-15.5-15.5 M102,302.6c0-11.4-9.3-20.7-20.7-20.7 M91.6,302.6
	c0-5.7-4.6-10.4-10.4-10.4"/>
<circle class="st4" cx="82.6" cy="301.3" r="2.6"/>
<path class="st0" d="M16,336h32 M16,348h32 M16,360h32"/>
<path class="st3" d="M79.8,336h32 M79.8,348h32 M79.8,360h32"/>
<g>
	<path class="st0" d="M35.9,440H24.5 M24.5,440v24.2 M24.5,464.2h16 M40.5,464.2v-19 M40.5,445.2L36,440"/>
	<path class="st6" d="M40.5,445.2h-4.9 M35.6,445.2V440"/>
	<path class="st1" d="M40.5,445.2l-4.6-5.2l0.1,5.2"/>
	<path class="st7" d="M17,442.6h16.9v10.8H17V442.6z"/>
	<g>
		<path class="st8" d="M22.4,447.3c0,0.6-0.2,1-0.5,1.3s-0.8,0.5-1.4,0.5h-0.4v1.7h-1.4v-5h1.7c0.6,0,1.1,0.1,1.4,0.4
			C22.2,446.4,22.4,446.8,22.4,447.3z M20.1,447.9h0.2c0.2,0,0.4-0.1,0.5-0.2s0.2-0.3,0.2-0.5c0-0.3-0.2-0.5-0.6-0.5h-0.3
			C20.1,446.7,20.1,447.9,20.1,447.9z M28.1,448.1c0,0.8-0.2,1.5-0.7,1.9s-1.1,0.7-1.9,0.7h-1.6v-5h1.7c0.8,0,1.4,0.2,1.9,0.6
			S28.1,447.3,28.1,448.1z M26.7,448.1c0-0.5-0.1-0.8-0.3-1c-0.2-0.2-0.5-0.3-0.8-0.3h-0.4v2.8h0.3c0.4,0,0.7-0.1,0.9-0.4
			S26.7,448.6,26.7,448.1z M31,450.7h-1.3v-5h3v1.1H31v1h1.5v1.1H31V450.7z"/>
	</g>
</g>
<g>
	<path class="st9" d="M98.3,440H86.9 M86.9,440v24.2 M86.9,464.2h16 M102.9,464.2v-19 M102.9,445.2l-4.5-5.2"/>
	<path class="st10" d="M102.9,445.2h-4.8 M98.1,445.2V440"/>
	<path class="st11" d="M102.9,445.2l-4.6-5.2l0.1,5.2"/>
	<path class="st7" d="M79.4,442.6h16.9v10.8H79.4V442.6z"/>
	<g>
		<path class="st8" d="M84.8,447.3c0,0.6-0.2,1-0.5,1.3s-0.8,0.5-1.4,0.5h-0.4v1.7h-1.4v-5h1.7c0.6,0,1.1,0.1,1.4,0.4
			C84.6,446.4,84.8,446.8,84.8,447.3z M82.5,447.9h0.2c0.2,0,0.4-0.1,0.5-0.2s0.2-0.3,0.2-0.5c0-0.3-0.2-0.5-0.6-0.5h-0.3
			C82.5,446.7,82.5,447.9,82.5,447.9z M90.5,448.1c0,0.8-0.2,1.5-0.7,1.9s-1.1,0.7-1.9,0.7h-1.6v-5H88c0.8,0,1.4,0.2,1.9,0.6
			S90.5,447.3,90.5,448.1z M89.1,448.1c0-0.5-0.1-0.8-0.3-1c-0.2-0.2-0.5-0.3-0.8-0.3h-0.4v2.8h0.3c0.4,0,0.7-0.1,0.9-0.4
			S89.1,448.6,89.1,448.1z M93.4,450.7h-1.3v-5h3v1.1h-1.6v1H95v1.1h-1.5L93.4,450.7L93.4,450.7z"/>
	</g>
</g>
<path class="st0" d="M47.9,632l-16-16 M15.9,632 M31.9,616 M31.6,615.8l-16,16 M31.9,616v32 M31.9,648h16"/>
<g>
	<path class="st3" d="M112.3,632l-16-16 M96.3,616l-16,16 M96.3,616v32 M96.3,648h16"/>
</g>
<circle class="st12" cx="31.9" cy="695.9" r="15.9"/>
<g>
	<path class="st4" d="M32.2,702.8h-2.4l2.4-11.2h2.4L32.2,702.8z M32.6,688.8c0-0.5,0.1-0.8,0.4-1.1s0.6-0.4,1.1-0.4
		c0.4,0,0.6,0.1,0.9,0.3c0.2,0.2,0.3,0.5,0.3,0.8c0,0.5-0.1,0.9-0.4,1.1c-0.3,0.3-0.6,0.4-1.1,0.4c-0.4,0-0.7-0.1-0.9-0.3
		C32.8,689.5,32.6,689.2,32.6,688.8z"/>
</g>
<circle class="st13" cx="96" cy="695.9" r="15.9"/>
<g>
	<path class="st4" d="M95.7,702.8H94l2.4-11.1H98L95.7,702.8z M96.8,688.9c0-0.4,0.1-0.7,0.3-0.9c0.2-0.2,0.5-0.4,0.8-0.4
		c0.6,0,0.9,0.3,0.9,0.9c0,0.4-0.1,0.7-0.3,0.9c-0.2,0.3-0.5,0.4-0.8,0.4s-0.5-0.1-0.7-0.2C96.9,689.4,96.8,689.2,96.8,688.9z"/>
</g>
<path class="st4" d="M31.9,744h16l-8,11.1l-8,11.1l-8-11.1l-8-11.1"/>
<g>
	<path class="st6" d="M155.1,22.3l-8-8 M147.1,14.3l-8,8"/>
</g>
<g>
	<path class="st6" d="M139.1,30.3l8,8 M147.1,38.3l8-8"/>
</g>
<g>
	<path class="st6" d="M155.1,61.8h-16 M148.9,50.5h-5.7 M143.2,50.5v8 M143.2,58.5h8 M151.2,58.5v-5.4 M151.2,53.1l-2.2-2.6
		 M151.2,53.1h-2.4 M148.8,53.1v-2.6 M142.9,55.8H141 M153.2,55.8h-1.8 M153.2,55.8l1.9,1.9 M141,55.8l-1.9,1.9 M155.1,57.7v4.1
		 M139.1,57.7v4.1"/>
	<path class="st1" d="M151.2,53.1l-2.3-2.6l0.1,2.6"/>
</g>
<g>
	<path class="st6" d="M151.3,78.9v-4.2 M151.3,74.7H147 M151.3,74.7l-6.9,6.9 M149.1,86.3h-9.9 M139.1,86.3v-9.5 M139.2,76.8h5.7
		 M149.1,86.3v-4.8"/>
</g>
<g>
	<path class="st6" d="M139.1,105.8l3,3 M142.1,108.8l3-3 M142.1,108.8v-9 M139.1,110.3h6"/>
</g>
<g>
	<path class="st6" d="M139.1,122.3h16 M139.1,126.3h16 M139.1,130.3h16 M139.1,134.3h16 M139.1,134.3v-12 M155.1,134.3v-12
		 M151.1,134.3v-12 M147.1,134.3v-12 M143.1,134.3v-12"/>
	<path class="st14" d="M151.1,120.3v2 M143.1,120.3v2"/>
</g>
<g>
	<path class="st6" d="M147.5,157.7c0-4.3-3.5-7.8-7.8-7.8 M150.1,157.7c0-5.7-4.6-10.4-10.4-10.4 M145,157.7c0-2.9-2.3-5.2-5.2-5.2"
		/>
	<circle class="st1" cx="140.4" cy="157.1" r="1.3"/>
</g>
<g>
	<path class="st15" d="M187.1,22.3l-8-8 M179.1,14.3l-8,8"/>
</g>
<g>
	<path class="st6" d="M140.1,262.4l8-8 M148.1,254.4l-8-8"/>
</g>
<g>
	<path class="st15" d="M172.1,262.3l8-8 M180.1,254.3l-8-8"/>
</g>
<g>
	<path class="st6" d="M148.1,278.4l-8,8 M140.1,286.4l8,8"/>
</g>
<g>
	<path class="st15" d="M180.1,278.3l-8,8 M172.1,286.3l8,8"/>
</g>
<g>
	<path class="st15" d="M171.1,30.3l8,8 M179.1,38.3l8-8"/>
</g>
<g>
	<path class="st15" d="M187.1,61.8h-16 M180.9,50.4h-5.7 M175.2,50.4v8 M175.2,58.4h8 M183.2,58.4V53 M183.2,53l-2.2-2.6 M183.2,53
		h-2.4 M180.8,53v-2.6 M174.9,55.7H173 M185.2,55.7h-1.8 M185.2,55.7l1.9,1.9 M173,55.7l-1.9,1.9 M187.1,57.6v4.2 M171.1,57.6v4.2"
		/>
	<path class="st4" d="M183.2,53l-2.3-2.6L181,53"/>
</g>
<g>
	<path class="st15" d="M183.3,78.9v-4.3 M183.3,74.6H179 M183.3,74.6l-6.9,6.9 M181.1,86.3h-9.9 M171.1,86.2v-9.4 M171.2,76.8h5.7
		 M181.1,86.2v-4.7"/>
</g>
<g>
	<path class="st15" d="M171.1,105.8l3,3 M174.1,108.8l3-3 M174.1,108.8v-9 M171.1,110.3h6"/>
</g>
<g>
	<path class="st15" d="M171.1,122.3h16 M171.1,126.3h16 M171.1,130.3h16 M171.1,134.3h16 M171.1,134.3v-12 M187.1,134.3v-12
		 M183.1,134.3v-12 M179.1,134.3v-12 M175.1,134.3v-12"/>
	<path class="st16" d="M183.1,120.3v2 M175.1,120.3v2"/>
</g>
<g>
	<path class="st15" d="M179.5,157.6c0-4.3-3.5-7.8-7.8-7.8 M182.1,157.6c0-5.7-4.6-10.4-10.4-10.4 M177,157.6c0-2.9-2.3-5.2-5.2-5.2
		"/>
	<circle class="st4" cx="172.4" cy="157" r="1.3"/>
</g>
<path class="st6" d="M139.1,174.3h16 M139.1,180.3h16 M139.1,186.3h16"/>
<path class="st15" d="M171,174.3h16 M171,180.3h16 M171,186.3h16"/>
<g>
	<path class="st1" d="M143.3,210.1c-2.1,0-3.8-1.8-3.8-3.9c0-2.1,1.8-3.8,3.9-3.8c2.1,0,3.8,1.8,3.8,3.9
		C147.2,208.4,145.4,210.1,143.3,210.1z M143.4,203.2c-1.7,0-3,1.3-3.1,3s1.3,3,3,3.1s3-1.3,3.1-3
		C146.4,204.6,145.1,203.2,143.4,203.2z"/>
	<path class="st1" d="M146.6,207.6l2.8,2.9l-1.5,1.5L145,209L146.6,207.6z"/>
</g>
<g>
	<path class="st4" d="M174.9,210.1c-2.1,0-3.8-1.8-3.8-3.9c0-2.1,1.8-3.8,3.9-3.8c2.1,0,3.8,1.8,3.8,3.9S177.1,210.1,174.9,210.1z
		 M175.1,203.2c-1.7,0-3,1.3-3.1,3s1.3,3,3,3.1c1.7,0,3-1.3,3.1-3C178.1,204.6,176.7,203.2,175.1,203.2z"/>
	<path class="st4" d="M178.2,207.6l2.8,2.9l-1.5,1.5l-2.8-2.9L178.2,207.6z"/>
</g>
<g>
	<path class="st6" d="M149.1,226.3h-5.7 M143.4,226.3v12.2 M143.4,238.5h8 M151.4,238.5v-9.6 M151.4,228.9l-2.3-2.6 M151.4,228.9
		h-2.5 M148.9,228.9v-2.6"/>
	<path class="st1" d="M151.4,228.9l-2.3-2.6v2.6"/>
	<path class="st7" d="M139.6,227.6h8.4v5.4h-8.4V227.6z"/>
	<g>
		<path class="st8" d="M142.3,230c0,0.3-0.1,0.5-0.2,0.6c-0.2,0.2-0.4,0.2-0.7,0.2h-0.2v0.8h-0.7v-2.5h0.9c0.3,0,0.6,0.1,0.7,0.2
			S142.3,229.7,142.3,230z M141.2,230.3h0.1c0.1,0,0.2,0,0.2-0.1c0.1-0.1,0.1-0.1,0.1-0.2c0-0.2-0.1-0.3-0.3-0.3h-0.2L141.2,230.3
			L141.2,230.3z M145.2,230.4c0,0.4-0.1,0.7-0.3,1c-0.2,0.2-0.6,0.3-1,0.3h-0.8v-2.5h0.9c0.4,0,0.7,0.1,0.9,0.3
			S145.2,230,145.2,230.4L145.2,230.4z M144.5,230.4c0-0.2,0-0.4-0.1-0.5s-0.2-0.2-0.4-0.2h-0.2v1.4h0.2c0.2,0,0.4-0.1,0.5-0.2
			S144.5,230.7,144.5,230.4z M146.6,231.7H146v-2.5h1.5v0.5h-0.8v0.5h0.7v0.5h-0.7L146.6,231.7L146.6,231.7z"/>
	</g>
</g>
<g>
	<path class="st10" d="M180.3,226.3h-5.7 M174.6,226.3v12.2 M174.6,238.5h8 M182.6,238.5v-9.6 M182.6,228.9l-2.3-2.6 M182.6,228.9
		h-2.4 M180.2,228.9v-2.6"/>
	<path class="st11" d="M182.6,228.9l-2.3-2.6v2.6"/>
	<path class="st7" d="M170.8,227.6h8.4v5.4h-8.4V227.6z"/>
	<g>
		<path class="st8" d="M173.5,230c0,0.3-0.1,0.5-0.2,0.6c-0.2,0.2-0.4,0.2-0.7,0.2h-0.2v0.8h-0.7v-2.5h0.9c0.3,0,0.6,0.1,0.7,0.2
			S173.5,229.7,173.5,230z M172.4,230.3h0.1c0.1,0,0.2,0,0.2-0.1c0.1-0.1,0.1-0.1,0.1-0.2c0-0.2-0.1-0.3-0.3-0.3h-0.2L172.4,230.3
			L172.4,230.3z M176.4,230.4c0,0.4-0.1,0.7-0.3,1c-0.2,0.2-0.6,0.3-1,0.3h-0.8v-2.5h0.9c0.4,0,0.7,0.1,0.9,0.3
			S176.4,230,176.4,230.4L176.4,230.4z M175.7,230.4c0-0.2,0-0.4-0.1-0.5s-0.2-0.2-0.4-0.2H175v1.4h0.2c0.2,0,0.4-0.1,0.5-0.2
			S175.7,230.7,175.7,230.4z M177.8,231.7h-0.7v-2.5h1.5v0.5h-0.8v0.5h0.7v0.5h-0.7V231.7z"/>
	</g>
</g>
<g>
	<path class="st6" d="M155.1,322.3l-8-8 M147.1,314.3l-8,8 M147.1,314.3v16 M147.1,330.3h8"/>
</g>
<g>
	<path class="st15" d="M187.3,322.3l-8-8 M179.3,314.3l-8,8 M179.3,314.3v16 M179.3,330.3h8"/>
</g>
<circle class="st13" cx="147.1" cy="354.3" r="8"/>
<g>
	<path class="st4" d="M147.2,357.8H146l1.2-5.6h1.2L147.2,357.8z M147.4,350.8c0-0.2,0.1-0.4,0.2-0.6c0.1-0.1,0.3-0.2,0.6-0.2
		c0.2,0,0.3,0,0.4,0.1c0.1,0.1,0.2,0.2,0.2,0.4s-0.1,0.4-0.2,0.6c-0.1,0.1-0.3,0.2-0.5,0.2s-0.3,0-0.4-0.1
		C147.5,351.1,147.4,351,147.4,350.8z"/>
</g>
<circle class="st13" cx="179.1" cy="354.3" r="8"/>
<g>
	<path class="st4" d="M179,357.8h-0.9l1.2-5.6h0.9L179,357.8z M179.5,350.8c0-0.2,0.1-0.3,0.2-0.5s0.2-0.2,0.4-0.2
		c0.3,0,0.4,0.2,0.4,0.5c0,0.2-0.1,0.3-0.2,0.5c-0.1,0.1-0.2,0.2-0.4,0.2c-0.1,0-0.2,0-0.3-0.1C179.6,351,179.5,350.9,179.5,350.8
		L179.5,350.8z"/>
</g>
<path class="st4" d="M147.1,378.3h8l-4,5.6l-4,5.6l-4-5.6l-4-5.6"/>
<g>
	<path class="st0" d="M14.2,791h32 M14.2,811h32 M14.2,810.2V791 M46.2,810.2V791 M30.2,803.2L46,792.1 M30.2,803.2l-15.9-11.1"/>
</g>
<g>
	<path class="st17" d="M80.3,791.1h32 M80.3,811.1h32 M80.3,810.3v-19.2 M112.3,810.3v-19.2 M96.3,803.3l15.8-11.1 M96.3,803.3
		l-15.8-11.1"/>
</g>
<g>
	<g>
		<path class="st6" d="M139.1,403.1h16 M139.1,413.1h16 M139.1,412.7v-9.6 M155.1,412.7v-9.6 M147.1,409l7.9-5.5 M147.1,409
			l-7.9-5.5"/>
	</g>
	<g>
		<path class="st18" d="M172.2,403.2h16 M172.2,413.2h16 M172.2,412.8v-9.6 M188.2,412.8v-9.6 M180.2,409.3l7.9-5.6 M180.2,409.3
			l-7.9-5.6"/>
	</g>
</g>
<g>
	<circle class="st0" cx="24.4" cy="399.7" r="6.7"/>
	<line class="st0" x1="29.6" y1="404.8" x2="34.2" y2="409.4"/>
</g>
<g>
	<circle class="st19" cx="87.6" cy="399.7" r="6.7"/>
	<line class="st20" x1="92.7" y1="404.8" x2="97.3" y2="409.4"/>
</g>
</svg>
