<svg xmlns="http://www.w3.org/2000/svg" width="60" height="25" viewBox="0 0 60 25">
  <g fill="#E2E2E3">
    <polygon points="52.252 17.702 52.252 .012 45.967 4.017 45.967 23.988 59.901 23.988 59.901 17.702"/>
    <path d="M37.0909091,16.5123967 C36.0619835,17.4173554 34.7107438,17.9628099 33.2355372,17.9628099 C30.0123967,17.9628099 27.3966942,15.3471074 27.3966942,12.1239669 C27.3966942,8.90082645 30.0123967,6.28512397 33.2355372,6.28512397 C35.3057851,6.28512397 37.1280992,7.36363636 38.1570248,8.98760331 L43.4504132,5.61570248 C41.3057851,2.24380165 37.5247934,0 33.2355372,0 C28.7107438,0 24.768595,2.49173554 22.6859504,6.16115702 C20.6033058,2.49173554 16.6487603,0 12.1239669,0 C5.44214876,0 0,5.44214876 0,12.1239669 C0,18.8057851 5.44214876,24.2479339 12.1239669,24.2479339 C16.6487603,24.2479339 20.5909091,21.7561983 22.6735537,18.0867769 C24.7561983,21.768595 28.7107438,24.2479339 33.2231405,24.2479339 C36.285124,24.2479339 39.0867769,23.107438 41.2190083,21.2355372 L43.6239669,23.9876033 L43.9958678,23.9876033 L43.9958678,13.1033058 L34.0785124,13.1033058 L37.0909091,16.5123967 Z M12.1239669,17.9752066 C8.90082645,17.9752066 6.28512397,15.3595041 6.28512397,12.1363636 C6.28512397,8.91322314 8.90082645,6.29752066 12.1239669,6.29752066 C15.3471074,6.29752066 17.9752066,8.90082645 17.9752066,12.1239669 C17.9752066,15.3471074 15.3471074,17.9752066 12.1239669,17.9752066 Z"/>
  </g>
</svg>
