<svg xmlns="http://www.w3.org/2000/svg" viewBox="0 0 88 88"><g id="Circle"><circle cx="44" cy="44" r="44" style="fill:#e5ebee"/></g><g id="Artwork_64x64" data-name="Artwork 64x64"><rect x="18" y="22" width="52" height="48" rx="2" style="fill:#003c57"/><rect x="58" y="16" width="6" height="12" rx="3" style="fill:#4d7789"/><rect x="24" y="16" width="6" height="12" rx="3" style="fill:#4d7789"/><rect x="59" y="32" width="6" height="6" style="fill:#fff"/><rect x="50" y="32" width="6" height="6" style="fill:#fff"/><rect x="41" y="32" width="6" height="6" style="fill:#fff"/><rect x="32" y="32" width="6" height="6" style="fill:#fff"/><rect x="23" y="32" width="6" height="6" style="fill:#fff"/><rect x="59" y="41" width="6" height="6" style="fill:#fff"/><rect x="50" y="41" width="6" height="6" style="fill:#fff"/><rect x="41" y="41" width="6" height="6" style="fill:#fff"/><rect x="32" y="41" width="6" height="6" style="fill:#fff"/><rect x="23" y="41" width="6" height="6" style="fill:#fff"/><rect x="59" y="50" width="6" height="6" style="fill:#fff"/><rect x="50" y="50" width="6" height="6" style="fill:#fff"/><rect x="41" y="50" width="6" height="6" style="fill:#fff"/><rect x="32" y="50" width="6" height="6" style="fill:#fff"/><rect x="23" y="50" width="6" height="6" style="fill:#fff"/><rect x="41" y="59" width="6" height="6" style="fill:#fff"/><rect x="32" y="59" width="6" height="6" style="fill:#fff"/><rect x="23" y="59" width="6" height="6" style="fill:#fff"/></g></svg>
