<svg xmlns="http://www.w3.org/2000/svg" viewBox="0 0 32 32"><g id="Artwork_32x32" data-name="Artwork 32x32"><path d="M24.5,7.92A1.5,1.5,0,0,0,26,6.42v-3a1.5,1.5,0,0,0-3,0v3A1.5,1.5,0,0,0,24.5,7.92Z" style="fill:#003c57"/><path d="M7.5,8A1.5,1.5,0,0,0,9,6.5v-3a1.5,1.5,0,0,0-3,0v3A1.5,1.5,0,0,0,7.5,8Z" style="fill:#003c57"/><path d="M28,4.92H27v1.5a2.5,2.5,0,1,1-5,0V4.92H10v1.5a2.5,2.5,0,0,1-5,0V4.92H4a1,1,0,0,0-1,1v22a1,1,0,0,0,1,1H28a1,1,0,0,0,1-1v-22A1,1,0,0,0,28,4.92ZM9.5,25.75H6v-3.5H9.5Zm0-5.5H6v-3.5H9.5Zm0-5.5H6v-3.5H9.5Zm5.5,11H11.5v-3.5H15Zm0-5.5H11.5v-3.5H15Zm0-5.5H11.5v-3.5H15Zm5.5,11H17v-3.5h3.5Zm0-5.5H17v-3.5h3.5Zm0-5.5H17v-3.5h3.5Zm5.5,5.5H22.5v-3.5H26Zm0-5.5H22.5v-3.5H26Z" style="fill:#003c57"/></g></svg>