<svg xmlns="http://www.w3.org/2000/svg" viewBox="0 0 64 64"><g id="Artwork_64x64" data-name="Artwork 64x64"><rect x="6" y="10" width="52" height="48" rx="2" style="fill:#003c57"/><rect x="46" y="4" width="6" height="12" rx="3" style="fill:#4d7789"/><rect x="12" y="4" width="6" height="12" rx="3" style="fill:#4d7789"/><rect x="47" y="20" width="6" height="6" style="fill:#fff"/><rect x="38" y="20" width="6" height="6" style="fill:#fff"/><rect x="29" y="20" width="6" height="6" style="fill:#fff"/><rect x="20" y="20" width="6" height="6" style="fill:#fff"/><rect x="11" y="20" width="6" height="6" style="fill:#fff"/><rect x="47" y="29" width="6" height="6" style="fill:#fff"/><rect x="38" y="29" width="6" height="6" style="fill:#fff"/><rect x="29" y="29" width="6" height="6" style="fill:#fff"/><rect x="20" y="29" width="6" height="6" style="fill:#fff"/><rect x="11" y="29" width="6" height="6" style="fill:#fff"/><rect x="47" y="38" width="6" height="6" style="fill:#fff"/><rect x="38" y="38" width="6" height="6" style="fill:#fff"/><rect x="29" y="38" width="6" height="6" style="fill:#fff"/><rect x="20" y="38" width="6" height="6" style="fill:#fff"/><rect x="11" y="38" width="6" height="6" style="fill:#fff"/><rect x="29" y="47" width="6" height="6" style="fill:#fff"/><rect x="20" y="47" width="6" height="6" style="fill:#fff"/><rect x="11" y="47" width="6" height="6" style="fill:#fff"/></g></svg>
