<svg width="140" height="34" viewBox="0 0 140 34" fill="none" xmlns="http://www.w3.org/2000/svg">
<g clip-path="url(#clip0_597_12406)">
<path d="M0.5 12.8999C0.621555 12.6094 0.831474 12.3645 1.1 12.1999C1.61358 12.0225 2.15856 11.9544 2.7 11.9999C3.93032 12.423 5.05562 13.105 6 13.9999C7.13939 14.9194 8.209 15.9221 9.2 16.9999L9.9 15.5999C8.01808 14.0974 6.01072 12.7592 3.9 11.5999C2.5 11.1999 0.7 10.9999 0.5 12.8999ZM1.9 10.5999C3.5 10.0999 3.7 11.1999 4 11.4999L5.2 12.1999C3.6 8.49991 1.9 10.5999 1.9 10.5999Z" fill="#222222"/>
<path d="M2.6 12.5C6.4 15.3 3.2 16.6 3.2 16.6C3.48245 16.7563 3.81294 16.8019 4.12717 16.728C4.4414 16.654 4.71688 16.4658 4.9 16.2L5.2 15.6C5.25828 15.4393 5.29199 15.2707 5.3 15.1C6.65236 16.6046 7.8892 18.2092 9 19.9C8.88397 19.3065 8.81708 18.7045 8.8 18.1C7.6 16.7 7.3 16.2 6.5 15.4C4.3 12.7 2.5 12.4 2.5 12.4L2.6 12.5ZM18.4 12.2C18.2723 11.5414 18.2387 10.868 18.3 10.2C18.5119 9.71621 18.6792 9.21414 18.8 8.7H18.9L19.5 9.1C19.2396 8.5565 19.0384 7.98655 18.9 7.4V7.3C18.7542 6.63455 18.4449 6.01591 18 5.5C18.2328 6.10511 18.335 6.7526 18.3 7.4C18.2 9.1 15.7 11.1 16.3 14C16.6245 15.1901 17.3263 16.2427 18.3 17C17.8847 15.9692 17.5829 14.8962 17.4 13.8C17.2968 12.9347 17.4719 12.059 17.9 11.3H18.1L18.4 12.2ZM35.3 0.5C33.1414 0.842707 31.0045 1.31016 28.9 1.9C26.8 2.6 23.7 3.9 22.3 5.7C20.9 7.5 22.1 10.3 21.7 12.1C21.3 13.9 18.5 15.9 18.5 15.9C18.5 15.9 21.8 15 22.9 12.4C24 9.8 22.7 9.1 24 6.3C25.3 3.5 35.3 0.5 35.3 0.5Z" fill="#222222"/>
<path d="M35.4002 0.699951C34.3106 1.0657 33.3154 1.66772 32.4856 2.46294C31.6558 3.25816 31.012 4.22693 30.6002 5.29995L32.2002 4.99995C32.2002 4.99995 32.3002 2.79995 35.4002 0.699951ZM41.0002 5.39995C37.3061 4.78637 33.5242 4.95673 29.9002 5.89995C24.4002 7.59995 25.1002 10.4 25.0002 11.9C24.9002 13.4 23.6002 17.1 18.7002 16.7C19.6878 17.1419 20.7838 17.2828 21.851 17.1049C22.9183 16.927 23.9093 16.4383 24.7002 15.7C27.9002 13.1 25.7002 9.99995 28.3002 8.49995C30.9002 6.99995 33.0002 5.79995 41.0002 5.39995Z" fill="#222222"/>
<path d="M27 13.5001C28.3312 13.704 29.5598 14.3359 30.5 15.3001C29.4129 14.4826 28.0487 14.1236 26.7 14.3001L27 13.5001ZM36.5 11.0001C36.5 11.0001 31.3 11.1001 31.2 15.6001C31 15.5001 28.2 10.6001 36.5 11.0001ZM40.6 5.70008C35.3 6.80008 36.5 11.0001 36.5 11.0001C33.8 5.60008 40.6 5.70008 40.6 5.70008ZM25.9 19.6001C26.2957 18.5072 26.9953 17.5501 27.9165 16.8415C28.8378 16.1329 29.9423 15.7022 31.1 15.6001C27 14.8001 26 16.8001 25.9 18.3001C23.8247 17.882 21.7165 17.6477 19.6 17.6001C21.8045 17.8766 23.9397 18.5545 25.9 19.6001ZM4.20004 30.8001C4.75514 30.5127 5.37549 30.3749 6.00004 30.4001C6.62057 30.3869 7.23234 30.251 7.80004 30.0001L5.10004 29.5001C4.10004 29.6001 4.20004 30.8001 4.20004 30.8001ZM23.9 28.0001C23.8861 27.8949 23.8931 27.788 23.9209 27.6856C23.9486 27.5831 23.9964 27.4873 24.0616 27.4035C24.1267 27.3197 24.2079 27.2498 24.3003 27.1977C24.3928 27.1456 24.4947 27.1124 24.6 27.1001C25.2882 27.0821 25.9717 27.2188 26.6 27.5001L25.3 27.8001C24.8239 27.7361 24.3393 27.8053 23.9 28.0001ZM31.4 31.2001C31.9269 30.9411 32.5164 30.8371 33.1 30.9001H34.5C34.1 30.9001 33.3 30.0001 32.3 30.2001C32.1729 30.1993 32.0471 30.2254 31.9309 30.2768C31.8146 30.3281 31.7105 30.4035 31.6255 30.498C31.5405 30.5925 31.4764 30.7039 31.4376 30.8249C31.3987 30.9459 31.3859 31.0738 31.4 31.2001ZM36.1 10.8001C29.7 9.30008 27.7 10.4001 27.7 10.4001C27.7981 10.212 27.8656 10.0094 27.9 9.80008C28.1 9.50008 28.1 9.40008 28.1 9.30008C30.8435 9.21948 33.5721 9.73109 36.1 10.8001ZM11.3 6.70008C10.8897 6.23719 10.3165 5.95059 9.70004 5.90008C8.50004 5.90008 7.40004 7.30008 6.40004 7.30008C5.80725 7.32695 5.21866 7.18846 4.70004 6.90008C4.90602 7.15922 5.16337 7.37296 5.45593 7.52784C5.74849 7.68273 6.06993 7.77541 6.40004 7.80008C7.80004 7.80008 8.80004 6.50008 9.70004 6.50008L11.3 6.70008ZM14.2 8.10008C14.3415 8.75692 14.3753 9.4324 14.3 10.1001C14.2 12.3001 10 15.3001 10 18.8001C10.0812 20.0957 10.6534 21.3117 11.6 22.2001C11.18 20.9802 11.0433 19.6807 11.2 18.4001C11.6 15.8001 14.9 12.8001 14.8 10.3001C14.8512 9.52033 14.64 8.74587 14.2 8.10008Z" fill="#222222"/>
<path d="M12.1001 22.1C11.7559 21.2075 11.6863 20.2325 11.9001 19.3C12.2001 18.4 13.0001 17.7 14.6001 17.3C14.6001 17.3 11.8001 19.9 13.9001 22.1C13.0637 22.938 12.3861 23.9205 11.9001 25C11.3001 26.3 10.1001 29.2 9.7001 29.8C9.09345 30.7946 8.1814 31.5664 7.1001 32C5.4001 32.1 3.4001 32.4001 3.3001 33.7001C3.05297 33.3519 2.94587 32.9235 3.0001 32.5C3.1001 31.6 4.5001 30.6 6.0001 30.7001C6.75208 30.8377 7.52851 30.7017 8.18885 30.3165C8.84919 29.9313 9.34982 29.3224 9.6001 28.6C10.3077 26.3871 11.1425 24.2168 12.1001 22.1Z" fill="#222222"/>
<path d="M14.5002 22.2999C14.5002 22.2999 12.2002 29.2 8.2002 31.9C9.25513 31.7 10.3348 31.6663 11.4002 31.7999C12.1002 32.0999 12.9002 32.5999 12.2002 33.7999C11.5002 35 13.6002 32.9999 13.3002 31.7999C13.0002 30.5999 11.5002 30.7999 11.5002 30.7999C11.5002 30.7999 11.1002 30.6 11.3002 30C11.5002 29.4 13.1002 27.4 13.3002 27L15.6002 23.4C16.0832 23.4392 16.5672 23.3372 16.9933 23.1064C17.4194 22.8756 17.7692 22.5259 18.0002 22.1C18.9002 20.3 17.0002 18.7 17.0002 18.7C17.0002 18.7 17.8002 20.6 16.9002 21.5C16.5789 21.7945 16.1991 22.0181 15.7855 22.1559C15.372 22.2938 14.934 22.3428 14.5002 22.2999Z" fill="#222222"/>
<path d="M16.3998 23.9001L17.4998 23.5001C17.4998 23.5001 17.8998 23.9001 19.4998 23.9001H19.7998C22.3547 23.4533 24.8417 22.6803 27.1998 21.6001L27.5998 22.2001C24.8998 23.1001 21.7998 25.7001 17.6998 25.2001L15.7998 24.8001L16.3998 23.9001ZM27.9998 27.2001C27.5562 27.9863 26.8472 28.589 25.9998 28.9001C24.7998 28.9001 23.2998 29.2001 23.1998 30.2001C23.0967 30.0771 23.0247 29.9312 22.9899 29.7745C22.9551 29.6179 22.9585 29.4552 22.9998 29.3001C22.9998 28.7001 23.8998 27.9001 25.1998 28.0001C25.4628 28.0426 25.7317 28.0321 25.9906 27.9692C26.2495 27.9064 26.4932 27.7924 26.7075 27.634C26.9218 27.4757 27.1022 27.2761 27.2383 27.047C27.3743 26.818 27.4632 26.564 27.4998 26.3001C27.7998 25.4001 27.4998 23.7001 27.8998 22.6001L28.7998 23.3001V23.6001C28.2998 24.8001 28.4998 26.2001 27.9998 27.2001ZM29.6998 23.9001L30.3998 24.3001C30.213 24.6802 30.0785 25.0839 29.9998 25.5001L29.2998 27.6001C29.0998 28.1001 29.3998 28.2001 29.3998 28.2001C29.3998 28.2001 30.4998 28.3001 30.6998 29.0001C30.8998 29.7001 29.8998 30.5001 29.8998 30.5001C29.8998 30.5001 29.7998 29.2001 29.2998 29.0001C28.5659 28.9137 27.8228 28.9474 27.0998 29.1001C28.7998 27.9001 29.3998 24.5001 29.6998 23.9001Z" fill="#222222"/>
<path d="M36.3004 30.9C36.3004 30.9 36.8004 31.9 36.5004 32.2C36.2004 32.5 34.7004 32.2 33.1004 32.4C31.5004 32.6 30.7004 32.7 30.6004 33.9C30.3687 33.5826 30.2619 33.1911 30.3004 32.8C30.5001 32.2651 30.8768 31.8146 31.368 31.5235C31.8592 31.2324 32.4353 31.1183 33.0004 31.2H34.9004C35.3004 31 34.3004 29 34.1004 28.6C32.6004 25.6 32.6004 24.6 32.6004 24.4C32.6004 24.2 28.4004 23.6 27.4004 20.7C30.8004 23.5 33.4004 23.5 33.4004 23.5C34.1909 26.0321 35.16 28.505 36.3004 30.9ZM37.3004 15.2H38.5004C40.3004 11.3 43.5004 7.3 43.5004 4.9C43.4619 3.92845 43.0709 3.00417 42.4004 2.3L42.2004 2.9C41.8179 2.00155 41.3132 1.16027 40.7004 0.4L43.4004 1.7H42.9004C43.2932 2.0927 43.6021 2.56111 43.8084 3.07681C44.0147 3.59251 44.114 4.14474 44.1004 4.7C44.2004 7.5 41.1004 10.7 39.3004 15C43.3004 15.5 46.0004 18 46.0004 20.6C46.0004 23.2 43.7004 25.8 41.6004 25.8C40.6847 25.8195 39.7825 25.5766 39.0004 25.1C38.0004 24.6 37.0004 23.4 37.0004 21C36.9452 19.3857 37.2527 17.7797 37.9004 16.3L35.2004 16.6L34.1004 16.9C34.6203 17.1775 35.0759 17.5614 35.4377 18.0265C35.7995 18.4917 36.0594 19.0278 36.2004 19.6C36.3936 20.8471 36.2557 22.123 35.8004 23.3C35.847 25.1182 36.2196 26.9134 36.9004 28.6L37.5004 30.1C37.6483 30.4876 37.9328 30.8077 38.3004 31C38.3004 31 39.5004 31.2 39.8004 31.9C39.8743 32.0111 39.9252 32.1359 39.9501 32.267C39.975 32.398 39.9734 32.5328 39.9455 32.6632C39.9175 32.7937 39.8637 32.9172 39.7873 33.0266C39.7109 33.136 39.6133 33.2289 39.5004 33.3C39.8004 32.2 38.8004 32 38.2004 32H37.2004C37.0777 31.2152 36.8766 30.4447 36.6004 29.7C36.6004 29.7 35.6004 27 35.3004 25.7C35.0038 24.7158 34.77 23.7138 34.6004 22.7C34.6004 22.7 37.4004 17.9 31.1004 15.9H32.0004L33.7004 15.4L37.3004 15.2ZM38.9004 16.5C38.316 18.1001 38.0444 19.7975 38.1004 21.5C38.2004 23.2 39.2004 25.5 41.9004 25.2C42.4776 25.1483 43.0311 24.9455 43.5051 24.6119C43.979 24.2784 44.3568 23.8259 44.6004 23.3C44.9017 22.6391 45.0715 21.9258 45.1004 21.2C45.0858 20.5817 44.9347 19.9743 44.6582 19.4211C44.3816 18.8679 43.9862 18.3827 43.5004 18C42.1984 16.9612 40.5645 16.4284 38.9004 16.5ZM11.0004 4.3C11.0004 4.3 8.80039 3.6 7.40039 4.7L8.10039 5.9C8.32787 5.6917 8.59493 5.53128 8.88567 5.42829C9.17642 5.3253 9.4849 5.28184 9.79278 5.3005C10.1007 5.31916 10.4016 5.39956 10.6778 5.53691C10.954 5.67425 11.1997 5.86575 11.4004 6.1L11.7004 6.6C11.2373 7.06264 10.6625 7.39781 10.0318 7.57301C9.40106 7.74821 8.73577 7.75751 8.10039 7.6C8.34982 7.97283 8.69496 8.27168 9.09963 8.46522C9.5043 8.65876 9.95359 8.73985 10.4004 8.7C12.0004 8.7 13.6004 7 14.1004 7.6C14.6004 8.2 13.9004 5.3 16.8004 4.4L17.5004 5.2C17.8263 4.87605 18.0762 4.48369 18.2318 4.05131C18.3875 3.61894 18.4451 3.15736 18.4004 2.7C18.382 2.17701 18.2357 1.6665 17.9742 1.21321C17.7126 0.759924 17.344 0.377689 16.9004 0.1C17.0075 0.814277 16.9032 1.54429 16.6004 2.2C16.4518 2.56324 16.2044 2.87757 15.8863 3.10735C15.5681 3.33712 15.1919 3.47315 14.8004 3.5L13.5004 3.3C13.2004 3.2 11.1004 2.5 11.0004 4.3ZM13.4004 4.2C13.4004 4.2 12.7004 5.4 11.7004 4.7C10.7004 4 11.7004 4 12.3004 4.1C12.9004 4.2 12.8004 4.3 13.4004 4.2ZM60.1004 6.9H61.1004V13.4H63.6004V14.2H60.2004L60.1004 6.9ZM64.4004 6.4H65.3004V14.3H64.4004V6.4ZM68.4004 15.5C68.1004 16.4 67.8004 16.8 67.1004 16.8H66.5004V16H67.0004C67.3004 16 67.4004 15.9 67.6004 15.3L67.8004 14.4L66.2004 8.8H67.2004L68.4004 13.2L69.5004 8.8H70.4004L68.4004 15.5ZM76.0004 14.4H75.0004L73.9004 9.8L72.8004 14.4H71.8004L70.4004 9H71.4004L72.4004 13.5L73.4004 9H74.5004L75.6004 13.5L76.6004 9H77.5004L76.0004 14.4ZM80.1004 8.9C81.5004 8.9 82.3004 10 82.3004 11.7C82.3004 13.4 81.6004 14.5 80.1004 14.5C78.6004 14.5 78.0004 13.4 78.0004 11.7C78.0004 10 78.7004 8.9 80.1004 8.9ZM80.1004 13.7C81.0004 13.7 81.3004 13 81.3004 11.6C81.3004 10.2 80.9004 9.5 80.1004 9.5C79.3004 9.5 78.9004 10.2 78.9004 11.6C78.9004 13 79.2004 13.7 80.1004 13.7ZM87.2004 13.4C87.2004 13.7 87.3004 14.1 87.3004 14.4H86.4004V13.6C86.282 13.8715 86.0858 14.1018 85.8367 14.262C85.5875 14.4221 85.2965 14.505 85.0004 14.5C83.9004 14.5 83.1004 13.6 83.1004 11.7C83.1004 9.8 83.8004 8.9 85.0004 8.9C85.2817 8.90704 85.5569 8.98383 85.8013 9.12345C86.0456 9.26308 86.2515 9.46119 86.4004 9.7V6.4H87.3004L87.2004 13.4ZM85.1004 9.6C84.3004 9.6 83.9004 10.3 83.9004 11.7C83.9004 13.1 84.3004 13.8 85.1004 13.8C85.9004 13.8 86.3004 13.1 86.3004 11.7C86.3004 10.3 85.9004 9.6 85.1004 9.6ZM88.4004 10.1C88.4004 9.7 88.3004 9.3 88.3004 8.9H89.2004V9.8C89.3111 9.50196 89.5199 9.25046 89.7925 9.08689C90.0651 8.92331 90.3853 8.8574 90.7004 8.9V9.8H90.4004C89.7004 9.8 89.2004 10.4 89.2004 11.6V14.5H88.3004L88.4004 10.1ZM91.7004 9.3C92.148 9.01702 92.6713 8.87747 93.2004 8.9C93.4564 8.87186 93.7154 8.90224 93.9579 8.98886C94.2005 9.07547 94.4201 9.21606 94.6004 9.4C94.7708 9.5691 94.9035 9.77237 94.9896 9.99644C95.0758 10.2205 95.1136 10.4603 95.1004 10.7V13.5C95.0828 13.8035 95.1166 14.1078 95.2004 14.4H94.4004V13.7C94.2426 13.9533 94.0209 14.1605 93.7576 14.301C93.4943 14.4414 93.1986 14.51 92.9004 14.5C92.6918 14.5308 92.4789 14.5142 92.2777 14.4512C92.0764 14.3882 91.892 14.2806 91.7381 14.1364C91.5843 13.9922 91.465 13.8151 91.3892 13.6183C91.3134 13.4215 91.2831 13.2102 91.3004 13C91.3004 11.9 92.0004 11.2 93.9004 11.2H94.4004V10.9C94.3925 10.5899 94.3246 10.2843 94.2004 10C94.0004 9.7 93.7004 9.7 93.3004 9.7C93.0374 9.69159 92.7757 9.74095 92.5338 9.84462C92.2919 9.94828 92.0757 10.1037 91.9004 10.3L91.7004 9.3ZM94.3004 11.7H93.7004C92.6004 11.7 92.2004 12.2 92.2004 12.8C92.2004 13.4 92.5004 13.8 93.1004 13.8C93.4452 13.8 93.7758 13.663 94.0196 13.4192C94.2634 13.1754 94.4004 12.8448 94.4004 12.5V11.8L94.3004 11.7ZM97.1004 11.9C97.1004 13.2 97.6004 13.8 98.6004 13.8C99.032 13.7932 99.451 13.6535 99.8004 13.4V14.2C99.3277 14.4063 98.8161 14.5086 98.3004 14.5C96.9004 14.5 96.1004 13.4 96.1004 11.7C96.1004 10 96.8004 8.9 98.2004 8.9C99.6004 8.9 100.1 9.9 100.1 11.5V12L97.1004 11.9ZM99.3004 11.3C99.3004 10.2 98.9004 9.6 98.2004 9.6C97.5004 9.6 97.1004 10 97.1004 11.3H99.3004ZM103.5 14.3L102.8 14.5C102 14.5 101.5 14.2 101.5 13.2V9.7H100.6V9H101.5V7.8L102.4 7.5V8.9H103.5V9.6H102.4V12.8C102.4 13.4 102.6 13.7 103 13.7L103.5 13.5V14.3ZM104.2 6.4H105.1V9.7C105.205 9.44661 105.387 9.23279 105.621 9.08911C105.854 8.94543 106.127 8.87924 106.4 8.9C107.4 8.9 108 9.4 108 10.7V14.5H107.1V11C107.1 10.1 106.8 9.8 106.2 9.8C105.6 9.8 105 10.3 105 11.3V14.6H104.1L104.2 6.4ZM116.4 14.3L115.1 14.5C112.8 14.5 111.7 12.7 111.7 10.7C111.7 8.7 113 6.9 115 6.9C115.485 6.88142 115.966 6.98456 116.4 7.2V8.1C115.989 7.81858 115.498 7.67821 115 7.7C113.8 7.7 112.7 8.7 112.7 10.5C112.7 12.3 113.4 13.7 115.1 13.7C115.569 13.7418 116.036 13.5982 116.4 13.3V14.3ZM119.3 15.5C119 16.4 118.7 16.8 118 16.8H117.4V16H117.9C118.2 16 118.3 15.9 118.5 15.3L118.7 14.4L117 8.9H118L119.2 13.3L120.3 8.9H121.2L119.3 15.5ZM121.8 10.1C121.8 9.7 121.7 9.3 121.7 8.9H122.6V9.7C122.704 9.44013 122.884 9.21735 123.115 9.06042C123.347 8.90349 123.621 8.81962 123.9 8.81962C124.18 8.81962 124.454 8.90349 124.685 9.06042C124.917 9.21735 125.097 9.44013 125.2 9.7C125.312 9.44381 125.492 9.22382 125.722 9.06481C125.952 8.90579 126.221 8.81408 126.5 8.8C127.5 8.8 128.1 9.3 128.1 10.6V14.4H127.2V10.7C127.2 10 126.9 9.7 126.3 9.7C125.7 9.7 125.3 10.1 125.3 11.1V14.5H124.4V10.8C124.4 10.1 124.1 9.8 123.5 9.8C122.9 9.8 122.5 10.2 122.5 11.2V14.6H121.6L121.8 10.1ZM129.5 10.1C129.5 9.7 129.4 9.3 129.4 8.9H130.3V9.8C130.411 9.50196 130.62 9.25046 130.893 9.08689C131.165 8.92331 131.485 8.8574 131.8 8.9V9.8H131.5C130.8 9.8 130.3 10.4 130.3 11.6V14.5H129.4L129.5 10.1ZM136.4 13.2C136.4 13.6 136.5 14 136.5 14.4H135.6V13.6C135.494 13.8801 135.301 14.1186 135.049 14.2806C134.797 14.4426 134.499 14.5195 134.2 14.5C133.2 14.5 132.6 14 132.6 12.7V8.9H133.5V12.5C133.5 13.4 133.8 13.7 134.4 13.7C135 13.7 135.6 13.2 135.6 12.2V8.9H136.5V13.2H136.4ZM59.4004 19.7H60.4004L61.6004 25.6L62.9004 19.7H64.1004L65.4004 25.6L66.7004 19.7H67.6004L65.9004 27.1H64.8004L63.4004 20.8L62.0004 27.1H60.9004L59.4004 19.7ZM68.9004 24.6C68.9004 25.9 69.4004 26.5 70.4004 26.5C70.86 26.4755 71.3065 26.3382 71.7004 26.1V26.9C71.2276 27.1063 70.7161 27.2086 70.2004 27.2C68.8004 27.2 68.0004 26.1 68.0004 24.4C68.0004 22.7 68.7004 21.6 70.1004 21.6C71.5004 21.6 72.0004 22.6 72.0004 24.2V24.7L68.9004 24.6ZM71.1004 24C71.1004 22.9 70.7004 22.3 70.0004 22.3C69.3004 22.3 68.9004 22.7 68.9004 24H71.1004ZM73.1004 19.1H74.0004V27H73.1004V19.1ZM75.2004 26.1C75.5806 26.3673 76.0357 26.5073 76.5004 26.5C77.2004 26.5 77.6004 26.1 77.6004 25.8C77.6004 25.5 77.4004 25.2 76.9004 24.9L76.3004 24.6C75.5004 24.2 75.2004 23.9 75.2004 23.2C75.2 22.9812 75.2444 22.7646 75.331 22.5637C75.4176 22.3628 75.5445 22.1817 75.7038 22.0318C75.8631 21.8818 76.0515 21.7661 76.2573 21.6918C76.4632 21.6176 76.682 21.5863 76.9004 21.6H77.0004L78.2004 21.8V22.5H77.0004C76.4004 22.5 76.1004 22.8 76.1004 23.2C76.1004 23.6 76.4004 23.9 77.0004 24.1H77.3004C78.0004 24.4 78.4004 24.8 78.4004 25.5C78.4004 26.2 77.9004 27.2 76.6004 27.2C76.0838 27.2189 75.57 27.1161 75.1004 26.9L75.2004 26.1ZM79.3004 19.1H80.2004V22.4C80.305 22.1466 80.4871 21.9328 80.7206 21.7891C80.9541 21.6454 81.227 21.5792 81.5004 21.6C82.5004 21.6 83.1004 22.1 83.1004 23.4V27.2H82.2004V23.7C82.2004 22.8 81.9004 22.5 81.3004 22.5C80.7004 22.5 80.1004 23 80.1004 24V27.3H79.2004L79.3004 19.1ZM92.1004 26.7C91.5009 26.9614 90.8544 27.0975 90.2004 27.1C87.8004 27.1 86.8004 25.3 86.8004 23.3C86.8004 21.3 88.2004 19.5 90.1004 19.5L91.9004 19.8V20.8C91.3483 20.4936 90.7314 20.3223 90.1004 20.3C88.9004 20.3 87.8004 21.3 87.8004 23.1C87.8004 24.9 88.6004 26.3 90.2004 26.3L91.2004 26.1V23.9H89.9004V23.1H92.1004V26.7ZM95.6004 21.6C97.0004 21.6 97.8004 22.7 97.8004 24.4C97.8004 26.1 97.1004 27.2 95.6004 27.2C94.1004 27.2 93.4004 26.1 93.4004 24.4C93.4004 22.7 94.1004 21.6 95.6004 21.6ZM95.6004 26.4C96.5004 26.4 96.9004 25.7 96.9004 24.3C96.9004 22.9 96.5004 22.2 95.6004 22.2C94.7004 22.2 94.3004 22.9 94.3004 24.3C94.3004 25.7 94.7004 26.3 95.6004 26.3V26.4ZM98.2004 21.6H99.2004L100.4 26.1L101.6 21.6H102.6L100.9 26.9H99.8004L98.2004 21.6ZM104 24.6C104 25.9 104.5 26.5 105.5 26.5C105.96 26.4755 106.407 26.3382 106.8 26.1V26.9C106.328 27.1063 105.816 27.2086 105.3 27.2C103.9 27.2 103.1 26.1 103.1 24.4C103.1 22.7 103.8 21.6 105.2 21.6C106.6 21.6 107.1 22.6 107.1 24.2V24.7L104 24.6ZM106.2 24C106.2 22.9 105.8 22.3 105.1 22.3C104.4 22.3 104 22.7 104 24H106.2ZM108.1 22.8C108.1 22.4 108 22 108 21.6H108.9V22.5C109.011 22.202 109.22 21.9505 109.493 21.7869C109.765 21.6233 110.085 21.5574 110.4 21.6V22.5H110.1C109.4 22.5 108.9 23.1 108.9 24.3V27H108L108.1 22.8ZM111.2 22.8C111.2 22.4 111.1 22 111.1 21.6H112V22.4C112.107 22.1199 112.3 21.8814 112.552 21.7194C112.804 21.5574 113.101 21.4805 113.4 21.5C114.4 21.5 115 22 115 23.3V27H114.1V23.6C114.1 22.7 113.8 22.4 113.2 22.4C112.6 22.4 112 22.9 112 23.9V27.2H111.1L111.2 22.8ZM116.4 22.8C116.4 22.4 116.3 22 116.3 21.6H117.2V22.4C117.304 22.1401 117.484 21.9174 117.715 21.7604C117.947 21.6035 118.221 21.5196 118.5 21.5196C118.78 21.5196 119.054 21.6035 119.285 21.7604C119.517 21.9174 119.697 22.1401 119.8 22.4C119.912 22.1438 120.092 21.9238 120.322 21.7648C120.552 21.6058 120.821 21.5141 121.1 21.5C122.1 21.5 122.7 22 122.7 23.3V27H121.8V23.4C121.8 22.7 121.5 22.4 120.9 22.4C120.3 22.4 119.9 22.8 119.9 23.8V27.2H119V23.5C119 22.8 118.7 22.5 118.1 22.5C117.5 22.5 117.1 22.9 117.1 23.9V27.3H116.2L116.4 22.8ZM124.7 24.6C124.7 25.9 125.2 26.5 126.2 26.5C126.66 26.4755 127.107 26.3382 127.5 26.1V26.9C127.028 27.1063 126.516 27.2086 126 27.2C124.6 27.2 123.8 26.1 123.8 24.4C123.8 22.7 124.5 21.6 125.9 21.6C127.3 21.6 127.8 22.6 127.8 24.2V24.7L124.7 24.6ZM127 24C127 22.9 126.6 22.3 125.9 22.3C125.2 22.3 124.8 22.7 124.8 24H127ZM128.8 22.8C128.8 22.4 128.7 22 128.7 21.6H129.6V22.4C129.707 22.1199 129.9 21.8814 130.152 21.7194C130.404 21.5574 130.701 21.4805 131 21.5C132 21.5 132.6 22 132.6 23.3V27H131.7V23.6C131.7 22.7 131.4 22.4 130.8 22.4C130.2 22.4 129.6 22.9 129.6 23.9V27.2H128.7V22.8H128.8ZM136.4 26.9L135.7 27.1C134.8 27.1 134.4 26.8 134.4 25.8V22.4H133.5V21.7H134.4V20.6L135.3 20.3V21.7H136.4V22.4H135.2V25.6C135.2 26.2 135.4 26.5 135.8 26.5L136.4 26.3V27V26.9ZM52.0004 0H53.0004V33.88H52.0004V0Z" fill="#222222"/>
</g>
<defs>
<clipPath id="clip0_597_12406">
<rect width="140" height="34" fill="white"/>
</clipPath>
</defs>
</svg>
