<svg id="Layer_1" xmlns="http://www.w3.org/2000/svg" viewBox="0 0 300 1000"><style>.st0{fill:none;stroke:#706f6f;stroke-width:2;stroke-linecap:round;stroke-linejoin:round;stroke-miterlimit:10}.st1{fill:#706f6f}.st3{fill:none;stroke:#f1f2f2;stroke-width:2;stroke-linecap:round;stroke-linejoin:round;stroke-miterlimit:10}.st4{fill:#f1f2f2}.st6{fill:none;stroke:#706f6f;stroke-linecap:round;stroke-linejoin:round;stroke-miterlimit:10}.st7{fill:#b21f2b}.st8{fill:#fff}.st10{fill:none;stroke:#f9f9f9;stroke-linecap:round;stroke-miterlimit:10}.st11{fill:#f9f9f9}.st13,.st15,.st19{fill:#3c7a9f;stroke:#f1f2f2;stroke-miterlimit:10}.st15,.st19{fill:none;stroke-linecap:round}.st15{stroke-linejoin:round}.st19{stroke-width:2}</style><path class="st0" d="M48 32L32 16m0 0L16 32M16 48l16 16m0 0l16-16M48 111H16m19.5-22.7H24.1m0 0v16m0 0h16m0 0V93.5m0 0l-4.5-5.2m4.5 5.2h-4.8m0 0v-5.2M23.5 98.9h-3.7m24.4 0h-3.7m3.7 0l3.8 3.8m-28.2-3.8l-3.8 3.8m32 0v8.3m-32-8.3v8.3"/><path class="st1" d="M40.1 93.5l-4.6-5.2.1 5.2"/><path class="st0" d="M40.3 145.2v-8.5m0 0h-8.5m8.5 0l-13.7 13.7M36 160H16.1m-.1-.1V141m.1 0h11.4m8.5 18.9v-9.5M16 199l6 6m0 0l6-6m-6 6v-18m-6 21h12M16 232h32m-32 8h32m-32 8h32m-32 8h32m-32 0v-24m32 24v-24m-8 24v-24m-8 24v-24m-8 24v-24"/><path d="M40 228v4m-16-4v4" fill="none" stroke="#706f6f" stroke-width="5" stroke-linejoin="round" stroke-miterlimit="10"/><path class="st0" d="M32.8 302.7c0-8.6-6.9-15.5-15.5-15.5M38 302.7c0-11.4-9.3-20.7-20.7-20.7m10.3 20.7c0-5.7-4.6-10.4-10.4-10.4"/><circle class="st1" cx="18.6" cy="301.4" r="2.6"/><path class="st3" d="M112 31.9l-16-16m0 0l-16 16"/><path class="st0" d="M18 512.1l16-16m0 0l-16-16"/><path class="st3" d="M82 511.9l16-16m0 0l-16-16"/><path class="st0" d="M34 544.1l-16 16m0 0l16 16"/><path class="st3" d="M98 543.9l-16 16m0 0l16 16M80 47.9l16 16m0 0l16-16M112 110.8H80m19.5-22.6H88.1m0 0v16m0 0h16m0 0V93.3m0 0l-4.5-5.1m4.5 5.1h-4.8m0 0v-5.1M87.5 98.8h-3.7m24.4 0h-3.7m3.7 0l3.8 3.8m-28.2-3.8l-3.8 3.8m32 0v8.2m-32-8.2v8.2"/><path class="st4" d="M104.1 93.3l-4.6-5.1.1 5.1"/><path class="st3" d="M104.3 145.1v-8.5m0 0h-8.5m8.5 0l-13.7 13.7m9.4 9.6H80.1m-.1-.1v-18.9m.1 0h11.4m8.5 18.9v-9.5M80 198.9l6 6m0 0l6-6m-6 6v-18m-6 21h12M80 231.9h32m-32 8h32m-32 8h32m-32 8h32m-32 0v-24m32 24v-24m-8 24v-24m-8 24v-24m-8 24v-24"/><path d="M104 227.9v4m-16-4v4" fill="none" stroke="#f1f2f2" stroke-width="5" stroke-linejoin="round" stroke-miterlimit="10"/><path class="st3" d="M96.8 302.6c0-8.6-6.9-15.5-15.5-15.5m20.7 15.5c0-11.4-9.3-20.7-20.7-20.7m10.3 20.7c0-5.7-4.6-10.4-10.4-10.4"/><circle class="st4" cx="82.6" cy="301.3" r="2.6"/><path class="st0" d="M16 336h32m-32 12h32m-32 12h32"/><path class="st3" d="M79.8 336h32m-32 12h32m-32 12h32"/><path class="st0" d="M35.9 440H24.5m0 0v24.2m0 0h16m0 0v-19m0 0L36 440"/><path class="st6" d="M40.5 445.2h-4.9m0 0V440"/><path class="st1" d="M40.5 445.2l-4.6-5.2.1 5.2"/><path class="st7" d="M17 442.6h16.9v10.8H17v-10.8z"/><path class="st8" d="M22.4 447.3c0 .6-.2 1-.5 1.3s-.8.5-1.4.5h-.4v1.7h-1.4v-5h1.7c.6 0 1.1.1 1.4.4.4.2.6.6.6 1.1zm-2.3.6h.2c.2 0 .4-.1.5-.2s.2-.3.2-.5c0-.3-.2-.5-.6-.5h-.3v1.2zm8 .2c0 .8-.2 1.5-.7 1.9s-1.1.7-1.9.7h-1.6v-5h1.7c.8 0 1.4.2 1.9.6s.6 1 .6 1.8zm-1.4 0c0-.5-.1-.8-.3-1-.2-.2-.5-.3-.8-.3h-.4v2.8h.3c.4 0 .7-.1.9-.4s.3-.6.3-1.1zm4.3 2.6h-1.3v-5h3v1.1H31v1h1.5v1.1H31v1.8z"/><path d="M98.3 440H86.9m0 0v24.2m0 0h16m0 0v-19m0 0l-4.5-5.2" fill="none" stroke="#f9f9f9" stroke-width="2" stroke-linecap="round" stroke-miterlimit="10"/><path class="st10" d="M102.9 445.2h-4.8m0 0V440"/><path class="st11" d="M102.9 445.2l-4.6-5.2.1 5.2"/><path class="st7" d="M79.4 442.6h16.9v10.8H79.4v-10.8z"/><path class="st8" d="M84.8 447.3c0 .6-.2 1-.5 1.3s-.8.5-1.4.5h-.4v1.7h-1.4v-5h1.7c.6 0 1.1.1 1.4.4.4.2.6.6.6 1.1zm-2.3.6h.2c.2 0 .4-.1.5-.2s.2-.3.2-.5c0-.3-.2-.5-.6-.5h-.3v1.2zm8 .2c0 .8-.2 1.5-.7 1.9s-1.1.7-1.9.7h-1.6v-5H88c.8 0 1.4.2 1.9.6s.6 1 .6 1.8zm-1.4 0c0-.5-.1-.8-.3-1-.2-.2-.5-.3-.8-.3h-.4v2.8h.3c.4 0 .7-.1.9-.4s.3-.6.3-1.1zm4.3 2.6h-1.3v-5h3v1.1h-1.6v1H95v1.1h-1.5l-.1 1.8z"/><path class="st0" d="M47.9 632l-16-16m-.2-.2l-16 16M31.9 616v32m0 0h16"/><path class="st3" d="M112.3 632l-16-16m0 0l-16 16m16-16v32m0 0h16"/><circle cx="31.9" cy="695.9" r="15.9" fill="#3c7a9f" stroke="#f1f2f2" stroke-width="2" stroke-miterlimit="10"/><path class="st4" d="M32.2 702.8h-2.4l2.4-11.2h2.4l-2.4 11.2zm.4-14c0-.5.1-.8.4-1.1s.6-.4 1.1-.4c.4 0 .6.1.9.3.2.2.3.5.3.8 0 .5-.1.9-.4 1.1-.3.3-.6.4-1.1.4-.4 0-.7-.1-.9-.3-.1-.1-.3-.4-.3-.8z"/><circle class="st13" cx="96" cy="695.9" r="15.9"/><path class="st4" d="M95.7 702.8H94l2.4-11.1H98l-2.3 11.1zm1.1-13.9c0-.4.1-.7.3-.9.2-.2.5-.4.8-.4.6 0 .9.3.9.9 0 .4-.1.7-.3.9-.2.3-.5.4-.8.4s-.5-.1-.7-.2c-.1-.2-.2-.4-.2-.7zM31.9 744h16l-8 11.1-8 11.1-8-11.1-8-11.1"/><path class="st6" d="M155.1 22.3l-8-8m0 0l-8 8M139.1 30.3l8 8m0 0l8-8M155.1 61.8h-16m9.8-11.3h-5.7m0 0v8m0 0h8m0 0v-5.4m0 0l-2.2-2.6m2.2 2.6h-2.4m0 0v-2.6m-5.9 5.3H141m12.2 0h-1.8m1.8 0l1.9 1.9M141 55.8l-1.9 1.9m16 0v4.1m-16-4.1v4.1"/><path class="st1" d="M151.2 53.1l-2.3-2.6.1 2.6"/><path class="st6" d="M151.3 78.9v-4.2m0 0H147m4.3 0l-6.9 6.9m4.7 4.7h-9.9m-.1 0v-9.5m.1 0h5.7m4.2 9.5v-4.8M139.1 105.8l3 3m0 0l3-3m-3 3v-9m-3 10.5h6M139.1 122.3h16m-16 4h16m-16 4h16m-16 4h16m-16 0v-12m16 12v-12m-4 12v-12m-4 12v-12m-4 12v-12"/><path d="M151.1 120.3v2m-8-2v2" fill="none" stroke="#706f6f" stroke-linejoin="round" stroke-miterlimit="10"/><path class="st6" d="M147.5 157.7c0-4.3-3.5-7.8-7.8-7.8m10.4 7.8c0-5.7-4.6-10.4-10.4-10.4m5.3 10.4c0-2.9-2.3-5.2-5.2-5.2"/><circle class="st1" cx="140.4" cy="157.1" r="1.3"/><path class="st15" d="M187.1 22.3l-8-8m0 0l-8 8"/><path class="st6" d="M140.1 262.4l8-8m0 0l-8-8"/><path class="st15" d="M172.1 262.3l8-8m0 0l-8-8"/><path class="st6" d="M148.1 278.4l-8 8m0 0l8 8"/><path class="st15" d="M180.1 278.3l-8 8m0 0l8 8M171.1 30.3l8 8m0 0l8-8M187.1 61.8h-16m9.8-11.4h-5.7m0 0v8m0 0h8m0 0V53m0 0l-2.2-2.6m2.2 2.6h-2.4m0 0v-2.6m-5.9 5.3H173m12.2 0h-1.8m1.8 0l1.9 1.9M173 55.7l-1.9 1.9m16 0v4.2m-16-4.2v4.2"/><path class="st4" d="M183.2 53l-2.3-2.6.1 2.6"/><path class="st15" d="M183.3 78.9v-4.3m0 0H179m4.3 0l-6.9 6.9m4.7 4.8h-9.9m-.1-.1v-9.4m.1 0h5.7m4.2 9.4v-4.7M171.1 105.8l3 3m0 0l3-3m-3 3v-9m-3 10.5h6M171.1 122.3h16m-16 4h16m-16 4h16m-16 4h16m-16 0v-12m16 12v-12m-4 12v-12m-4 12v-12m-4 12v-12"/><path d="M183.1 120.3v2m-8-2v2" fill="none" stroke="#f1f2f2" stroke-linejoin="round" stroke-miterlimit="10"/><path class="st15" d="M179.5 157.6c0-4.3-3.5-7.8-7.8-7.8m10.4 7.8c0-5.7-4.6-10.4-10.4-10.4m5.3 10.4c0-2.9-2.3-5.2-5.2-5.2"/><circle class="st4" cx="172.4" cy="157" r="1.3"/><path class="st6" d="M139.1 174.3h16m-16 6h16m-16 6h16"/><path class="st15" d="M171 174.3h16m-16 6h16m-16 6h16"/><path class="st1" d="M143.3 210.1c-2.1 0-3.8-1.8-3.8-3.9 0-2.1 1.8-3.8 3.9-3.8 2.1 0 3.8 1.8 3.8 3.9s-1.8 3.8-3.9 3.8zm.1-6.9c-1.7 0-3 1.3-3.1 3s1.3 3 3 3.1 3-1.3 3.1-3c0-1.7-1.3-3.1-3-3.1z"/><path class="st1" d="M146.6 207.6l2.8 2.9-1.5 1.5-2.9-3 1.6-1.4z"/><path class="st4" d="M174.9 210.1c-2.1 0-3.8-1.8-3.8-3.9 0-2.1 1.8-3.8 3.9-3.8 2.1 0 3.8 1.8 3.8 3.9s-1.7 3.8-3.9 3.8zm.2-6.9c-1.7 0-3 1.3-3.1 3s1.3 3 3 3.1c1.7 0 3-1.3 3.1-3 0-1.7-1.4-3.1-3-3.1z"/><path class="st4" d="M178.3 207.6l2.8 2.9-1.5 1.5-2.8-2.9 1.5-1.5z"/><g><path class="st6" d="M149.1 226.3h-5.7m0 0v12.2m0 0h8m0 0v-9.6m0 0l-2.3-2.6m2.3 2.6h-2.5m0 0v-2.6"/><path class="st1" d="M151.4 228.9l-2.3-2.6v2.6"/><path class="st7" d="M139.6 227.6h8.4v5.4h-8.4v-5.4z"/><path class="st8" d="M142.3 230c0 .3-.1.5-.2.6-.2.2-.4.2-.7.2h-.2v.8h-.7v-2.5h.9c.3 0 .6.1.7.2s.2.4.2.7zm-1.1.3h.1c.1 0 .2 0 .2-.1.1-.1.1-.1.1-.2 0-.2-.1-.3-.3-.3h-.2l.1.6zm4 .1c0 .4-.1.7-.3 1-.2.2-.6.3-1 .3h-.8v-2.5h.9c.4 0 .7.1.9.3s.3.5.3.9zm-.7 0c0-.2 0-.4-.1-.5s-.2-.2-.4-.2h-.2v1.4h.2c.2 0 .4-.1.5-.2s0-.2 0-.5zm2.1 1.3h-.6v-2.5h1.5v.5h-.8v.5h.7v.5h-.7l-.1 1z"/></g><g><path class="st10" d="M180.3 226.3h-5.7m0 0v12.2m0 0h8m0 0v-9.6m0 0l-2.3-2.6m2.3 2.6h-2.4m0 0v-2.6"/><path class="st11" d="M182.6 228.9l-2.3-2.6v2.6"/><path class="st7" d="M170.8 227.6h8.4v5.4h-8.4v-5.4z"/><path class="st8" d="M173.5 230c0 .3-.1.5-.2.6-.2.2-.4.2-.7.2h-.2v.8h-.7v-2.5h.9c.3 0 .6.1.7.2s.2.4.2.7zm-1.1.3h.1c.1 0 .2 0 .2-.1.1-.1.1-.1.1-.2 0-.2-.1-.3-.3-.3h-.2l.1.6zm4 .1c0 .4-.1.7-.3 1-.2.2-.6.3-1 .3h-.8v-2.5h.9c.4 0 .7.1.9.3s.3.5.3.9zm-.7 0c0-.2 0-.4-.1-.5s-.2-.2-.4-.2h-.2v1.4h.2c.2 0 .4-.1.5-.2s0-.2 0-.5zm2.1 1.3h-.7v-2.5h1.5v.5h-.8v.5h.7v.5h-.7v1z"/></g><g><path class="st6" d="M155.1 322.3l-8-8m0 0l-8 8m8-8v16m0 0h8"/></g><g><path class="st15" d="M187.3 322.3l-8-8m0 0l-8 8m8-8v16m0 0h8"/></g><circle class="st13" cx="147.1" cy="354.3" r="8"/><g><path class="st4" d="M147.2 357.8H146l1.2-5.6h1.2l-1.2 5.6zm.2-7c0-.2.1-.4.2-.6.1-.1.3-.2.6-.2.2 0 .3 0 .4.1.1.1.2.2.2.4s-.1.4-.2.6c-.1.1-.3.2-.5.2s-.3 0-.4-.1c-.2-.1-.3-.2-.3-.4z"/></g><circle class="st13" cx="179.1" cy="354.3" r="8"/><g><path class="st4" d="M179 357.8h-.9l1.2-5.6h.9l-1.2 5.6zm.5-7c0-.2.1-.3.2-.5s.2-.2.4-.2c.3 0 .4.2.4.5 0 .2-.1.3-.2.5-.1.1-.2.2-.4.2-.1 0-.2 0-.3-.1 0-.2-.1-.3-.1-.4z"/></g><path class="st4" d="M147.1 378.3h8l-4 5.6-4 5.6-4-5.6-4-5.6"/><g><path class="st0" d="M14.2 791h32m-32 20h32m-32-.8V791m32 19.2V791m-16 12.2L46 792.1m-15.8 11.1l-15.9-11.1"/></g><g><path d="M80.3 791.1h32m-32 20h32m-32-.8v-19.2m32 19.2v-19.2m-16 12.2l15.8-11.1m-15.8 11.1l-15.8-11.1" fill="none" stroke="#f6f6f6" stroke-width="2" stroke-linecap="round" stroke-linejoin="round" stroke-miterlimit="10"/></g><g><path class="st6" d="M139.1 403.1h16m-16 10h16m-16-.4v-9.6m16 9.6v-9.6m-8 6.1l7.9-5.5m-8 5.5l-7.9-5.5"/><path d="M172.2 403.2h16m-16 10h16m-16-.4v-9.6m16 9.6v-9.6m-8 6.1l7.9-5.6m-7.9 5.6l-7.9-5.6" fill="none" stroke="#f6f6f6" stroke-linecap="round" stroke-linejoin="round" stroke-miterlimit="10"/></g><g><path class="st6" d="M148.2 430.2l-5.1 4.8m0 0l5.1 4.8"/></g><g><path class="st15" d="M181.6 430.2l-5.1 4.8m.1 0l5.1 4.8"/></g><g><path class="st6" d="M143.1 466.8l5.1-4.8m0 0l-5.1-4.8"/></g><g><path class="st15" d="M176.6 466.8l5.1-4.8m-.1 0l-5.1-4.8"/></g><g><circle class="st0" cx="24.3" cy="399.7" r="6.5"/><path class="st0" d="M29.3 404.7l5.1 5"/></g><g><circle class="st19" cx="87.7" cy="399.7" r="6.5"/><path class="st19" d="M92.7 404.7l5 5"/></g></svg>