<?xml version="1.0" encoding="UTF-8"?>
<svg id="Layer_1" data-name="Layer 1" xmlns="http://www.w3.org/2000/svg" viewBox="0 0 100 100">
  <defs>
    <style>
      .cls-1, .cls-2 {
        fill: #fff;
      }

      .cls-3 {
        fill: #a8bd3a;
      }

      .cls-2 {
        stroke: #003c57;
        stroke-miterlimit: 10;
        stroke-width: .75px;
      }

      .cls-4 {
        fill: #003c57;
      }
    </style>
  </defs>
  <g>
    <g>
      <path class="cls-1" d="m24,96.32c-5.31,0-9.62-4.32-9.62-9.62s4.32-9.62,9.62-9.62h52c5.31,0,9.62,4.32,9.62,9.62s-4.32,9.62-9.62,9.62H24Z"/>
      <path class="cls-4" d="m76,77.44c5.1,0,9.25,4.15,9.25,9.25s-4.15,9.25-9.25,9.25H24c-5.1,0-9.25-4.15-9.25-9.25s4.15-9.25,9.25-9.25h52m0-.75H24c-5.52,0-10,4.48-10,10s4.48,10,10,10h52c5.52,0,10-4.48,10-10s-4.48-10-10-10h0Z"/>
    </g>
    <g>
      <path class="cls-4" d="m26.27,90.4l-.52-1.7h-2.6l-.52,1.7h-1.63l2.52-7.17h1.85l2.53,7.17h-1.63Zm-.88-2.97c-.48-1.54-.75-2.41-.81-2.61s-.1-.36-.13-.48c-.11.42-.42,1.45-.92,3.09h1.86Z"/>
      <path class="cls-4" d="m30.99,90.49c-1.7,0-2.55-.93-2.55-2.8,0-.93.23-1.64.69-2.13.46-.49,1.12-.74,1.99-.74.63,0,1.2.12,1.7.37l-.44,1.15c-.23-.09-.45-.17-.65-.23-.2-.06-.4-.09-.61-.09-.77,0-1.16.55-1.16,1.65s.39,1.6,1.16,1.6c.29,0,.55-.04.8-.11.24-.08.49-.2.73-.36v1.27c-.24.15-.48.26-.73.32-.25.06-.55.09-.93.09Z"/>
      <path class="cls-4" d="m39.06,90.4h-1.49v-3.19c0-.79-.29-1.18-.88-1.18-.42,0-.72.14-.9.42s-.28.74-.28,1.38v2.57h-1.49v-7.6h1.49v1.55c0,.12-.01.4-.03.85l-.04.44h.08c.33-.53.86-.8,1.58-.8.64,0,1.13.17,1.46.52s.5.84.5,1.48v3.56Z"/>
      <path class="cls-4" d="m43.74,84.84c.2,0,.37.01.5.04l-.11,1.4c-.12-.03-.27-.05-.44-.05-.48,0-.85.12-1.11.37s-.4.59-.4,1.03v2.78h-1.49v-5.46h1.13l.22.92h.07c.17-.31.4-.55.69-.74.29-.19.6-.28.94-.28Z"/>
      <path class="cls-4" d="m47.8,90.49c-.88,0-1.57-.24-2.06-.73s-.74-1.17-.74-2.06.23-1.62.69-2.12c.46-.5,1.09-.75,1.9-.75s1.37.22,1.8.66.64,1.05.64,1.82v.72h-3.52c.02.42.14.75.38.99s.56.36.99.36c.33,0,.64-.03.93-.1s.6-.18.92-.33v1.15c-.26.13-.54.23-.83.29-.3.06-.66.1-1.08.1Zm-.21-4.6c-.32,0-.56.1-.74.3-.18.2-.28.48-.31.85h2.09c0-.37-.1-.65-.29-.85-.19-.2-.44-.3-.75-.3Z"/>
      <path class="cls-4" d="m53.07,90.49c-.64,0-1.14-.25-1.51-.75s-.55-1.19-.55-2.07.19-1.59.56-2.09c.37-.5.89-.75,1.54-.75.69,0,1.21.27,1.57.8h.05c-.07-.41-.11-.77-.11-1.09v-1.75h1.49v7.6h-1.14l-.29-.71h-.06c-.34.54-.86.81-1.55.81Zm.52-1.19c.38,0,.66-.11.84-.33.18-.22.28-.6.29-1.13v-.16c0-.59-.09-1.01-.27-1.26-.18-.25-.47-.38-.88-.38-.33,0-.59.14-.77.42-.18.28-.28.69-.28,1.23s.09.94.28,1.21c.19.27.45.4.8.4Z"/>
      <path class="cls-4" d="m60.24,90.49c-.88,0-1.57-.24-2.06-.73s-.74-1.17-.74-2.06.23-1.62.69-2.12c.46-.5,1.09-.75,1.9-.75s1.37.22,1.8.66.64,1.05.64,1.82v.72h-3.52c.02.42.14.75.38.99s.56.36.99.36c.33,0,.64-.03.93-.1s.6-.18.92-.33v1.15c-.26.13-.54.23-.83.29-.3.06-.66.1-1.08.1Zm-.21-4.6c-.32,0-.56.1-.74.3-.18.2-.28.48-.31.85h2.09c0-.37-.1-.65-.29-.85-.19-.2-.44-.3-.75-.3Z"/>
      <path class="cls-4" d="m65.5,90.49c-.64,0-1.14-.25-1.51-.75-.37-.5-.55-1.19-.55-2.07s.19-1.59.56-2.09c.37-.5.89-.75,1.54-.75.69,0,1.21.27,1.57.8h.05c-.08-.41-.11-.77-.11-1.09v-1.75h1.49v7.6h-1.14l-.29-.71h-.06c-.34.54-.85.81-1.55.81Zm.52-1.19c.38,0,.66-.11.84-.33.18-.22.27-.6.29-1.13v-.16c0-.59-.09-1.01-.27-1.26-.18-.25-.47-.38-.88-.38-.33,0-.59.14-.77.42-.18.28-.28.69-.28,1.23s.09.94.28,1.21c.19.27.45.4.8.4Z"/>
      <path class="cls-4" d="m70.14,83.53c0-.49.27-.73.81-.73s.81.24.81.73c0,.23-.07.41-.2.54-.14.13-.34.19-.61.19-.54,0-.81-.24-.81-.73Zm1.55,6.87h-1.49v-5.46h1.49v5.46Z"/>
      <path class="cls-4" d="m78.13,90.41c0,.78-.23,1.38-.69,1.79-.46.4-1.14.61-2.04.61-.8,0-1.48-.11-2.04-.32v-1.19c.66.28,1.37.42,2.13.42s1.15-.41,1.15-1.24v-.09l.02-.69h-.02c-.35.54-.86.81-1.55.81s-1.16-.25-1.52-.76c-.36-.5-.54-1.19-.54-2.06s.19-1.59.56-2.09c.37-.5.89-.75,1.54-.75s1.2.27,1.58.8h.04l.12-.7h1.26v5.47Zm-2.51-1.08c.39,0,.67-.11.84-.34.17-.23.26-.6.28-1.12v-.18c0-.58-.09-1-.27-1.26-.18-.26-.47-.38-.87-.38-.7,0-1.05.55-1.05,1.65,0,.55.09.96.26,1.23.17.27.45.41.81.41Z"/>
    </g>
  </g>
  <g>
    <path class="cls-2" d="m12.5,42.16C12.5,21.45,29.29,4.66,50,4.66c20.71,0,37.5,16.79,37.5,37.5s-16.79,37.5-37.5,37.5S12.5,62.87,12.5,42.16"/>
    <g>
      <path class="cls-4" d="m20.62,32.26l-2.33-2.21.73-2.18,3.71,3.98,2.91.98-.68,2.03-2.84-.96-5.42.9.74-2.19,3.19-.34Z"/>
      <path class="cls-4" d="m28.29,23.58c.4.28.68.63.85,1.05s.21.88.11,1.38c-.09.5-.32,1.01-.68,1.52-.3.43-.58.77-.84,1.02-.26.25-.58.48-.95.69l-1.55-1.08c.4-.21.78-.46,1.12-.76.34-.29.62-.59.83-.89.18-.26.27-.48.26-.66s-.08-.32-.22-.42c-.09-.06-.18-.09-.28-.09-.1,0-.22.03-.36.09-.14.06-.48.25-1.01.57-.48.29-.89.47-1.21.56-.33.08-.64.1-.94.04s-.61-.2-.93-.42c-.59-.42-.91-.95-.94-1.62-.03-.66.22-1.37.75-2.13.46-.67,1.09-1.24,1.89-1.71l.97,1.47c-.7.41-1.2.83-1.5,1.27-.16.23-.23.42-.23.58,0,.16.07.28.19.36.13.09.28.1.48.04.19-.06.62-.29,1.29-.68.64-.38,1.17-.58,1.61-.59s.87.13,1.31.43Z"/>
      <path class="cls-4" d="m34.2,21.41l-1.63,1.35-3.91-4.71-1.48,1.22-1.11-1.33,4.58-3.8,1.11,1.34-1.47,1.22,3.91,4.71Z"/>
      <path class="cls-4" d="m41.4,17.5l-.93-1.21-2.35.99.21,1.51-2.15.91-.71-8.26,2.61-1.1,5.46,6.25-2.14.9Zm-2.01-2.64l-.81-1.06c-.18-.23-.42-.54-.7-.91s-.48-.65-.59-.81c.04.18.1.48.18.91.08.42.2,1.26.38,2.53l1.54-.65Z"/>
      <path class="cls-4" d="m51.78,11.87c.07,1.31-.23,2.34-.91,3.08s-1.67,1.16-2.98,1.23l-2.54.14-.43-7.84,2.71-.15c1.26-.07,2.25.2,2.97.8.72.61,1.11,1.52,1.18,2.73Zm-2.19.2c-.04-.72-.21-1.24-.52-1.57-.3-.33-.74-.48-1.32-.45l-.62.03.24,4.39.47-.03c.64-.04,1.11-.25,1.38-.64.28-.39.4-.97.36-1.74Z"/>
      <path class="cls-4" d="m58.52,17.4l-4.53-1.09,1.83-7.64,4.53,1.09-.4,1.66-2.47-.59-.29,1.2,2.29.55-.4,1.66-2.29-.55-.35,1.44,2.47.59-.4,1.68Z"/>
      <path class="cls-4" d="m65.44,15.68l2.92,1.72-2.14,3.65c-.95-.19-1.91-.57-2.86-1.13-1.04-.61-1.67-1.39-1.89-2.33-.21-.94,0-1.97.67-3.09.64-1.09,1.45-1.76,2.43-2,.98-.24,2.03-.03,3.16.63.43.25.8.53,1.13.83.33.3.6.6.81.89l-1.42,1.1c-.35-.53-.81-.96-1.4-1.3-.53-.31-1.05-.38-1.54-.21-.5.18-.93.59-1.31,1.23-.37.63-.52,1.19-.46,1.68.07.49.35.88.85,1.17.27.16.54.28.8.36l.62-1.06-1.21-.71.83-1.41Z"/>
      <path class="cls-4" d="m70.95,26.58l.87-1.25-1.65-1.94-1.38.65-1.51-1.78,7.67-3.15,1.83,2.16-4.33,7.08-1.5-1.77Zm1.91-2.71l.76-1.09c.17-.25.39-.56.66-.94.27-.38.47-.65.6-.8-.16.09-.43.24-.81.44-.38.2-1.15.57-2.3,1.12l1.08,1.27Z"/>
      <path class="cls-4" d="m82.82,33l-4.41,1.71c-.96.37-1.8.39-2.54.05-.74-.34-1.3-1.02-1.7-2.04-.39-1-.43-1.86-.13-2.6.3-.73.93-1.29,1.89-1.66l4.45-1.73.77,1.99-4.29,1.67c-.52.2-.85.44-1.01.73-.16.29-.16.62-.02.99.16.4.39.65.69.74.3.09.72.04,1.24-.17l4.29-1.67.77,1.98Z"/>
    </g>
    <g>
      <path class="cls-4" d="m21.01,54.84c-.46.15-.91.17-1.35.06-.44-.11-.83-.36-1.17-.73s-.62-.86-.82-1.45c-.17-.5-.27-.92-.31-1.28s-.04-.75.01-1.17l1.79-.6c-.07.45-.09.9-.06,1.35.03.45.1.85.22,1.2.1.3.23.5.38.61s.31.13.47.07c.1-.03.18-.09.24-.17.06-.08.1-.2.14-.35.04-.15.09-.53.15-1.15.06-.56.15-1,.28-1.31.12-.31.3-.57.53-.78s.53-.37.89-.49c.69-.23,1.3-.16,1.85.21.55.37.97.99,1.26,1.87.26.77.34,1.62.25,2.54l-1.76-.1c.09-.8.04-1.46-.12-1.96-.09-.26-.2-.44-.33-.52-.13-.09-.26-.11-.4-.06-.15.05-.25.17-.32.36s-.14.67-.22,1.44c-.07.74-.23,1.29-.48,1.65s-.62.62-1.12.79Z"/>
      <path class="cls-4" d="m25.91,66.27l-1.58-1.95,2.19-2.74c.09-.12.27-.34.56-.67s.52-.6.72-.8c-.2.12-.45.27-.76.44-.31.17-.6.32-.86.45-.27.13-1.34.67-3.23,1.61l-1.58-1.95,4.88-6.45,1.29,1.59-2.52,3.14c-.56.7-1.01,1.24-1.37,1.62.31-.19.75-.44,1.31-.74.56-.3,1.04-.54,1.42-.72l2.74-1.33,1.24,1.53-1.89,2.39c-.3.39-.65.83-1.06,1.31s-.72.84-.94,1.06c.34-.21.95-.55,1.85-1l3.62-1.81,1.29,1.59-7.32,3.44Z"/>
      <path class="cls-4" d="m35.46,67.2l2.63-1.83,1.99,1.16-4.64,2.84-1.54,2.65-1.85-1.08,1.51-2.59.21-5.49,2,1.16-.3,3.19Z"/>
      <path class="cls-4" d="m46.93,72.01c-.28,1.28-.85,2.19-1.71,2.72-.86.54-1.92.66-3.2.38l-2.48-.55,1.69-7.67,2.65.59c1.23.27,2.11.8,2.64,1.57s.67,1.76.4,2.95Zm-2.17-.4c.16-.7.13-1.25-.07-1.66-.2-.4-.59-.66-1.15-.79l-.6-.13-.95,4.29.46.1c.63.14,1.13.06,1.51-.24.37-.3.64-.83.81-1.58Z"/>
      <path class="cls-4" d="m55.81,71.6c.1,1.31-.18,2.34-.84,3.1s-1.65,1.2-2.95,1.3l-2.53.2-.61-7.83,2.71-.21c1.26-.1,2.25.15,2.99.74.73.59,1.15,1.49,1.24,2.71Zm-2.19.25c-.06-.72-.24-1.24-.55-1.56s-.75-.46-1.33-.42l-.62.05.34,4.39.47-.04c.64-.05,1.1-.27,1.37-.67s.38-.98.32-1.75Z"/>
      <path class="cls-4" d="m64.89,68.44c.5,1.22.58,2.27.24,3.16-.34.88-1.09,1.56-2.24,2.04-1.14.47-2.14.51-3.01.12-.87-.39-1.56-1.2-2.06-2.42-.5-1.21-.57-2.26-.23-3.14s1.09-1.56,2.24-2.04c1.16-.47,2.16-.52,3.02-.13.86.39,1.54,1.2,2.04,2.42Zm-5,2.05c.58,1.4,1.35,1.91,2.33,1.5.5-.2.79-.53.89-.97.1-.44,0-1.02-.29-1.74-.3-.73-.64-1.21-1.02-1.46-.39-.25-.82-.27-1.3-.07-.98.4-1.18,1.31-.6,2.73Z"/>
      <path class="cls-4" d="m68.82,64.61l2.59-2.18,2.73,3.24c-.5.83-1.17,1.61-2.02,2.32-.92.78-1.87,1.12-2.82,1-.96-.11-1.85-.66-2.69-1.66-.82-.97-1.18-1.96-1.08-2.96.1-1,.64-1.93,1.64-2.77.38-.32.76-.58,1.16-.79.4-.21.76-.37,1.11-.47l.56,1.71c-.61.15-1.18.44-1.7.88-.47.4-.71.86-.71,1.39,0,.53.24,1.08.72,1.65.47.56.95.89,1.43.99.48.1.94-.04,1.38-.41.24-.2.44-.41.61-.63l-.79-.94-1.07.9-1.06-1.25Z"/>
      <path class="cls-4" d="m77.42,54.82c1.12.7,1.8,1.51,2.04,2.42.24.91.02,1.9-.64,2.96-.65,1.04-1.45,1.66-2.38,1.85-.94.19-1.96-.07-3.08-.77-1.11-.69-1.78-1.5-2.02-2.42-.24-.92-.02-1.91.64-2.96.66-1.06,1.46-1.68,2.38-1.86s1.94.08,3.07.78Zm-2.87,4.58c1.29.81,2.21.76,2.77-.13.29-.46.34-.89.17-1.31s-.59-.83-1.25-1.25c-.66-.42-1.22-.61-1.68-.59s-.82.26-1.1.7c-.57.9-.2,1.76,1.1,2.57Z"/>
      <path class="cls-4" d="m82.12,53.25l-7.58-2.04.55-2.05,5.93,1.59.79-2.92,1.65.45-1.34,4.97Z"/>
    </g>
    <g>
      <circle class="cls-4" cx="50" cy="42.23" r="22.35"/>
      <g>
        <rect class="cls-1" x="39.24" y="41.55" width="4.85" height="8.92"/>
        <rect class="cls-1" x="46.8" y="31.99" width="4.85" height="18.47"/>
        <rect class="cls-1" x="54.36" y="37.09" width="4.85" height="13.37"/>
      </g>
    </g>
  </g>
  <g>
    <path class="cls-3" d="m54.15,47.93c-.38,0-.75-.15-1.02-.42l-4.32-4.32c-.56-.56-.56-1.47,0-2.04l.67-.66c.27-.27.63-.42,1.02-.42s.75.15,1.02.42l2.64,2.64,7.9-7.9c.27-.27.63-.42,1.02-.42s.75.15,1.02.42l.66.66c.56.56.56,1.47,0,2.04l-9.58,9.58c-.27.27-.63.42-1.02.42Z"/>
    <path class="cls-4" d="m63.07,35.31c.24,0,.48.09.66.28l.66.66c.37.37.37.96,0,1.33l-9.58,9.58c-.18.18-.42.28-.66.28s-.48-.09-.66-.28l-4.32-4.32c-.37-.37-.37-.96,0-1.33l.66-.66c.18-.18.42-.28.66-.28s.48.09.66.28l2.99,2.99,8.26-8.26c.18-.18.42-.28.66-.28m0-1c-.52,0-1,.2-1.37.57l-7.55,7.55-2.29-2.29c-.37-.37-.85-.57-1.37-.57s-1,.2-1.37.57l-.66.66c-.37.37-.57.85-.57,1.37s.2,1,.57,1.37l4.32,4.32c.37.37.85.57,1.37.57s1-.2,1.37-.57l9.58-9.58c.37-.37.57-.85.57-1.37s-.2-1-.57-1.37l-.66-.66c-.37-.37-.85-.57-1.37-.57h0Z"/>
  </g>
</svg>